<svg version="1.1" id="Layer_1" xmlns="http://www.w3.org/2000/svg" xmlns:xlink="http://www.w3.org/1999/xlink" x="0px" y="0px"
	 width="100%" viewBox="0 0 2309 2308" enable-background="new 0 0 2309 2308" xml:space="preserve">
<path fill="#1A6736" opacity="1.000000" stroke="none" 
	d="
M1128.000000,1.999995 
	C1147.375122,2.000000 1166.750244,2.000000 1187.492310,2.743250 
	C1197.287354,3.561838 1205.715454,3.637176 1215.015869,3.933825 
	C1222.830200,4.648875 1229.786499,4.993083 1236.711548,5.662776 
	C1263.761353,8.278650 1290.851440,10.574903 1317.833130,13.776673 
	C1358.746216,18.631617 1399.069702,26.936193 1439.009033,36.895458 
	C1519.584961,56.987839 1597.115234,85.583366 1671.463989,122.543388 
	C1723.957642,148.638809 1774.131592,178.725891 1822.089722,212.509476 
	C1902.740601,269.323120 1974.988281,335.349670 2038.776123,410.533142 
	C2106.073486,489.853149 2161.597656,576.785461 2205.445312,671.165466 
	C2236.058594,737.059326 2260.330811,805.215332 2277.745850,875.714111 
	C2296.414062,951.284546 2308.595459,1027.859375 2310.130371,1106.812744 
	C2310.008789,1117.069946 2309.860107,1126.393799 2310.101074,1135.707642 
	C2310.173096,1138.486206 2311.336670,1141.236694 2312.000000,1144.000000 
	C2312.000000,1152.049072 2312.000000,1160.098145 2311.253906,1169.510376 
	C2310.425049,1183.289795 2310.342285,1195.705933 2310.148193,1209.044189 
	C2308.809814,1229.837280 2308.389893,1249.798828 2306.172607,1269.558716 
	C2302.550293,1301.839722 2298.956543,1334.205566 2293.200684,1366.148315 
	C2282.170410,1427.360474 2265.958496,1487.283813 2244.943359,1545.906128 
	C2214.730225,1630.185059 2175.353271,1709.893799 2126.525879,1784.892090 
	C2073.642090,1866.120850 2011.692627,1939.723633 1940.262329,2005.347778 
	C1906.670776,2036.208862 1871.505005,2065.069580 1834.648071,2091.924316 
	C1772.580811,2137.147461 1706.430664,2175.416260 1636.672363,2207.354980 
	C1579.466797,2233.546143 1520.371094,2254.688477 1459.579346,2271.067871 
	C1418.181274,2282.222656 1376.353394,2291.436768 1333.939575,2297.479736 
	C1302.127441,2302.012451 1270.058716,2304.743164 1237.230957,2308.159668 
	C1231.692261,2308.131104 1227.026733,2308.218750 1221.438232,2308.224854 
	C1213.676880,2308.761963 1206.838501,2309.381104 1200.000000,2310.000000 
	C1172.624878,2310.000000 1145.249756,2310.000000 1116.300903,2309.478760 
	C1107.698364,2308.740967 1100.669556,2308.524414 1092.775879,2308.207031 
	C1087.239258,2308.162598 1082.567261,2308.219238 1077.039917,2308.057129 
	C1070.909424,2307.354004 1065.642578,2306.738770 1060.358032,2306.406738 
	C1027.553101,2304.344727 995.071838,2299.721191 962.678162,2294.323730 
	C910.837646,2285.685791 859.873535,2273.345459 809.799133,2257.488770 
	C728.355469,2231.698486 650.723511,2197.220703 576.890381,2154.195801 
	C500.993347,2109.968262 430.994812,2057.778564 367.215302,1997.451660 
	C343.556793,1975.074097 321.148590,1951.309448 299.035431,1927.377930 
	C263.098785,1888.486450 230.938339,1846.528198 201.291367,1802.670044 
	C165.268860,1749.380249 133.860825,1693.485718 107.215973,1634.921509 
	C79.073898,1573.066406 56.657204,1509.213379 39.719440,1443.402222 
	C28.870352,1401.248291 20.505033,1358.587891 14.687438,1315.502930 
	C10.831425,1286.945557 9.009687,1258.113037 6.297444,1229.401733 
	C5.556551,1221.558838 4.888516,1213.708984 4.323218,1204.942505 
	C4.486652,1193.884644 4.681683,1183.742188 4.424073,1173.611328 
	C4.359078,1171.055298 2.847061,1168.536133 2.000002,1166.000000 
	C2.000000,1160.599976 2.000000,1155.199951 2.711044,1148.399658 
	C3.787332,1143.749390 4.423700,1140.503174 4.467610,1137.248901 
	C4.606216,1126.976685 4.522835,1116.701416 5.007814,1105.717773 
	C6.872565,1084.488525 7.405189,1063.868164 9.829204,1043.472412 
	C13.817640,1009.913635 18.208368,976.359680 23.907009,943.056519 
	C34.293484,882.357849 50.979240,823.237854 71.811256,765.320740 
	C98.225403,691.884399 131.923004,621.894897 172.592728,555.288086 
	C215.907852,484.348755 266.402832,418.878510 323.809113,358.810577 
	C363.622742,317.151001 406.383759,278.681976 452.010162,243.437592 
	C526.588257,185.829300 606.922607,137.857132 693.149780,99.846840 
	C760.832581,70.011215 830.836975,47.108204 902.986450,30.807949 
	C949.949890,20.197809 997.403870,12.557510 1045.344482,8.093719 
	C1064.155273,6.342235 1083.018555,5.155797 1102.783447,3.820376 
	C1109.200928,3.946789 1114.703491,4.173954 1120.179932,3.892334 
	C1122.812012,3.756983 1125.394897,2.660965 1128.000000,1.999995 
M1777.863403,239.111786 
	C1741.085815,213.805832 1702.638062,191.271988 1663.002563,170.807114 
	C1619.232422,148.207336 1574.031494,128.781799 1527.588135,112.372795 
	C1420.678345,74.600235 1310.487427,53.462822 1197.188354,49.926834 
	C1144.697510,48.288631 1092.177734,49.439835 1039.819214,55.473198 
	C995.259338,60.607918 951.126831,67.755806 907.422729,77.788628 
	C825.755981,96.536263 747.414795,124.645477 672.117981,161.274734 
	C622.967041,185.184998 576.033447,212.942856 530.963989,243.860062 
	C485.912750,274.764771 443.290955,308.764099 403.561371,346.217102 
	C381.787262,366.743469 361.040039,388.404724 340.509552,410.194702 
	C303.946594,449.000580 271.485596,491.141693 241.450363,535.149841 
	C207.054703,585.546997 177.381821,638.615540 151.750458,693.987000 
	C130.631317,739.610535 112.754143,786.445923 98.218025,834.555786 
	C80.130135,894.420959 67.085098,955.320618 59.347481,1017.440430 
	C54.253834,1058.333740 51.441204,1099.329468 50.489365,1140.459839 
	C50.051437,1159.383667 50.906345,1178.359253 51.755505,1197.285278 
	C52.707096,1218.494385 54.096458,1239.690552 55.683262,1260.863281 
	C59.061638,1305.941040 66.610382,1350.401733 76.210419,1394.528931 
	C94.877205,1480.332153 123.636063,1562.660522 162.103928,1641.560913 
	C188.689835,1696.090820 219.621429,1748.080322 254.843002,1797.505981 
	C289.655579,1846.357910 327.789154,1892.430298 370.356384,1934.715942 
	C388.761108,1952.998901 407.613007,1970.871460 426.913879,1988.204224 
	C465.333344,2022.705811 506.477325,2053.765869 549.602173,2082.127686 
	C591.885132,2109.935547 635.864380,2134.775635 681.573975,2156.602783 
	C722.732910,2176.256836 764.865112,2193.489746 808.128906,2207.762695 
	C870.041443,2228.187988 933.235962,2243.306396 997.882751,2252.539062 
	C1049.249146,2259.875000 1100.789551,2263.819580 1152.622681,2264.279785 
	C1184.202271,2264.560059 1215.756836,2263.598145 1247.191406,2260.318115 
	C1271.585693,2257.772461 1296.038208,2255.575439 1320.316650,2252.167480 
	C1388.250244,2242.632324 1454.522705,2226.095947 1519.380981,2203.759766 
	C1608.853516,2172.947510 1692.890625,2131.159912 1771.584229,2078.698975 
	C1813.689087,2050.629639 1853.630127,2019.715088 1891.557373,1986.136719 
	C1924.504150,1956.967651 1955.685059,1926.055176 1984.962769,1893.285278 
	C2015.774536,1858.798218 2044.224121,1822.392700 2070.476318,1784.260254 
	C2112.684570,1722.951172 2148.496582,1658.141846 2177.615967,1589.673218 
	C2206.440430,1521.897339 2228.058105,1451.862427 2243.003906,1379.712524 
	C2256.368164,1315.197510 2263.300781,1249.957275 2265.481689,1184.226807 
	C2266.661377,1148.680786 2265.118164,1113.130859 2262.549072,1077.599609 
	C2260.034668,1042.820923 2255.925293,1008.308777 2250.358398,973.912292 
	C2241.478027,919.040649 2228.176514,865.249390 2210.917725,812.461731 
	C2190.208496,749.119751 2163.911621,688.148987 2132.068115,629.565979 
	C2105.801025,581.241760 2076.382812,534.929138 2043.170288,491.123749 
	C2001.486694,436.145538 1955.495728,385.042328 1904.269531,338.667908 
	C1864.750854,302.892029 1823.234741,269.742096 1777.863403,239.111786 
z"/>
<path fill="#FFFFFF" opacity="1.000000" stroke="none" 
	d="
M1101.857910,3.712031 
	C1083.018555,5.155797 1064.155273,6.342235 1045.344482,8.093719 
	C997.403870,12.557510 949.949890,20.197809 902.986450,30.807949 
	C830.836975,47.108204 760.832581,70.011215 693.149780,99.846840 
	C606.922607,137.857132 526.588257,185.829300 452.010162,243.437592 
	C406.383759,278.681976 363.622742,317.151001 323.809113,358.810577 
	C266.402832,418.878510 215.907852,484.348755 172.592728,555.288086 
	C131.923004,621.894897 98.225403,691.884399 71.811256,765.320740 
	C50.979240,823.237854 34.293484,882.357849 23.907009,943.056519 
	C18.208368,976.359680 13.817640,1009.913635 9.829204,1043.472412 
	C7.405189,1063.868164 6.872565,1084.488525 4.381986,1105.578369 
	C2.849125,1106.099121 2.424562,1106.049561 2.000000,1106.000000 
	C2.000000,738.146057 2.000000,370.292175 2.000000,2.000000 
	C368.041687,2.000000 734.083496,2.000000 1100.998291,2.425618 
	C1101.871338,2.851235 1101.857910,3.712032 1101.857910,3.712031 
z"/>
<path fill="#FFFFFF" opacity="1.000000" stroke="none" 
	d="
M4.187044,1205.862305 
	C4.888516,1213.708984 5.556551,1221.558838 6.297444,1229.401733 
	C9.009687,1258.113037 10.831425,1286.945557 14.687438,1315.502930 
	C20.505033,1358.587891 28.870352,1401.248291 39.719440,1443.402222 
	C56.657204,1509.213379 79.073898,1573.066406 107.215973,1634.921509 
	C133.860825,1693.485718 165.268860,1749.380249 201.291367,1802.670044 
	C230.938339,1846.528198 263.098785,1888.486450 299.035431,1927.377930 
	C321.148590,1951.309448 343.556793,1975.074097 367.215302,1997.451660 
	C430.994812,2057.778564 500.993347,2109.968262 576.890381,2154.195801 
	C650.723511,2197.220703 728.355469,2231.698486 809.799133,2257.488770 
	C859.873535,2273.345459 910.837646,2285.685791 962.678162,2294.323730 
	C995.071838,2299.721191 1027.553101,2304.344727 1060.358032,2306.406738 
	C1065.642578,2306.738770 1070.909424,2307.354004 1077.052490,2308.488770 
	C1077.920532,2309.139648 1078.000000,2310.000000 1078.000000,2310.000000 
	C719.477295,2310.000000 360.954559,2310.000000 2.000000,2310.000000 
	C2.000000,1942.625000 2.000000,1575.249756 2.550693,1206.965332 
	C3.463272,1205.991577 3.825158,1205.927002 4.187044,1205.862305 
z"/>
<path fill="#FFFFFF" opacity="1.000000" stroke="none" 
	d="
M2310.252197,1105.875610 
	C2308.595459,1027.859375 2296.414062,951.284546 2277.745850,875.714111 
	C2260.330811,805.215332 2236.058594,737.059326 2205.445312,671.165466 
	C2161.597656,576.785461 2106.073486,489.853149 2038.776123,410.533142 
	C1974.988281,335.349670 1902.740601,269.323120 1822.089722,212.509476 
	C1774.131592,178.725891 1723.957642,148.638809 1671.463989,122.543388 
	C1597.115234,85.583366 1519.584961,56.987839 1439.009033,36.895458 
	C1399.069702,26.936193 1358.746216,18.631617 1317.833130,13.776673 
	C1290.851440,10.574903 1263.761353,8.278650 1236.711548,5.662776 
	C1229.786499,4.993083 1222.830200,4.648875 1215.008545,3.503296 
	C1214.129028,2.851458 1214.000000,2.000000 1214.000000,2.000000 
	C1579.854614,2.000000 1945.709106,2.000000 2312.000000,2.000000 
	C2312.000000,369.375000 2312.000000,736.750183 2311.564453,1105.012939 
	C2311.128662,1105.900391 2310.252197,1105.875610 2310.252197,1105.875610 
z"/>
<path fill="#FFFFFF" opacity="1.000000" stroke="none" 
	d="
M1238.104248,2308.275879 
	C1270.058716,2304.743164 1302.127441,2302.012451 1333.939575,2297.479736 
	C1376.353394,2291.436768 1418.181274,2282.222656 1459.579346,2271.067871 
	C1520.371094,2254.688477 1579.466797,2233.546143 1636.672363,2207.354980 
	C1706.430664,2175.416260 1772.580811,2137.147461 1834.648071,2091.924316 
	C1871.505005,2065.069580 1906.670776,2036.208862 1940.262329,2005.347778 
	C2011.692627,1939.723633 2073.642090,1866.120850 2126.525879,1784.892090 
	C2175.353271,1709.893799 2214.730225,1630.185059 2244.943359,1545.906128 
	C2265.958496,1487.283813 2282.170410,1427.360474 2293.200684,1366.148315 
	C2298.956543,1334.205566 2302.550293,1301.839722 2306.172607,1269.558716 
	C2308.389893,1249.798828 2308.809814,1229.837280 2310.584961,1209.038086 
	C2311.133057,1208.109741 2312.000000,1208.000000 2312.000000,1208.000000 
	C2312.000000,1575.185669 2312.000000,1942.371216 2312.000000,2310.000000 
	C1954.625000,2310.000000 1597.249878,2310.000000 1238.977173,2309.569824 
	C1238.079712,2309.139893 1238.104248,2308.276123 1238.104248,2308.275879 
z"/>
<path fill="#B5CEBD" opacity="1.000000" stroke="none" 
	d="
M2.000000,1106.937012 
	C2.424562,1106.049561 2.849125,1106.099121 3.899515,1106.287964 
	C4.522835,1116.701416 4.606216,1126.976685 4.467610,1137.248901 
	C4.423700,1140.503174 3.787332,1143.749390 2.711044,1147.499634 
	C2.000000,1134.624756 2.000000,1121.249390 2.000000,1106.937012 
z"/>
<path fill="#B2CCBB" opacity="1.000000" stroke="none" 
	d="
M4.323218,1204.942505 
	C3.825158,1205.927002 3.463272,1205.991577 2.550693,1206.028076 
	C2.000000,1193.291138 2.000000,1180.582397 2.000002,1166.936768 
	C2.847061,1168.536133 4.359078,1171.055298 4.424073,1173.611328 
	C4.681683,1183.742188 4.486652,1193.884644 4.323218,1204.942505 
z"/>
<path fill="#B3CDBC" opacity="1.000000" stroke="none" 
	d="
M2312.000000,1207.063477 
	C2312.000000,1208.000000 2311.133057,1208.109741 2310.696289,1208.115967 
	C2310.342285,1195.705933 2310.425049,1183.289795 2311.253906,1170.436768 
	C2312.000000,1182.042358 2312.000000,1194.084595 2312.000000,1207.063477 
z"/>
<path fill="#B1CBBA" opacity="1.000000" stroke="none" 
	d="
M2310.130371,1106.812744 
	C2310.252197,1105.875610 2311.128662,1105.900391 2311.564453,1105.950195 
	C2312.000000,1118.042358 2312.000000,1130.084595 2312.000000,1143.063477 
	C2311.336670,1141.236694 2310.173096,1138.486206 2310.101074,1135.707642 
	C2309.860107,1126.393799 2310.008789,1117.069946 2310.130371,1106.812744 
z"/>
<path fill="#B1CBBB" opacity="1.000000" stroke="none" 
	d="
M1213.073608,2.000000 
	C1214.000000,2.000000 1214.129028,2.851458 1214.136230,3.281986 
	C1205.715454,3.637176 1197.287354,3.561838 1188.429688,2.743250 
	C1196.049072,2.000000 1204.098145,2.000000 1213.073608,2.000000 
z"/>
<path fill="#B1CBBB" opacity="1.000000" stroke="none" 
	d="
M1102.783447,3.820377 
	C1101.857910,3.712032 1101.871338,2.851235 1101.935669,2.425618 
	C1110.049072,2.000000 1118.098145,2.000000 1127.073608,1.999995 
	C1125.394897,2.660965 1122.812012,3.756983 1120.179932,3.892334 
	C1114.703491,4.173954 1109.200928,3.946789 1102.783447,3.820377 
z"/>
<path fill="#508A65" opacity="1.000000" stroke="none" 
	d="
M1093.640747,2308.307617 
	C1100.669556,2308.524414 1107.698364,2308.740967 1115.363525,2309.478760 
	C1109.277466,2310.000000 1102.554810,2310.000000 1094.807983,2309.580811 
	C1093.783691,2309.161621 1093.640747,2308.307617 1093.640747,2308.307617 
z"/>
<path fill="#508A65" opacity="1.000000" stroke="none" 
	d="
M1200.916138,2310.000000 
	C1206.838501,2309.381104 1213.676880,2308.761963 1221.365967,2308.651855 
	C1222.216675,2309.160889 1222.000000,2310.000000 1222.000000,2310.000000 
	C1215.277466,2310.000000 1208.554810,2310.000000 1200.916138,2310.000000 
z"/>
<path fill="#C1D6C9" opacity="1.000000" stroke="none" 
	d="
M1092.775879,2308.206787 
	C1093.640747,2308.307617 1093.783691,2309.161621 1093.891846,2309.580811 
	C1089.258911,2310.000000 1084.517700,2310.000000 1078.888306,2310.000000 
	C1078.000000,2310.000000 1077.920532,2309.139648 1077.907959,2308.707764 
	C1082.567261,2308.219238 1087.239258,2308.162598 1092.775879,2308.206787 
z"/>
<path fill="#C1D6C9" opacity="1.000000" stroke="none" 
	d="
M1222.888306,2310.000000 
	C1222.000000,2310.000000 1222.216675,2309.160889 1222.288940,2308.733887 
	C1227.026733,2308.218750 1231.692261,2308.131104 1237.230957,2308.159668 
	C1238.104248,2308.276123 1238.079712,2309.139893 1238.039795,2309.569824 
	C1233.258911,2310.000000 1228.517700,2310.000000 1222.888306,2310.000000 
z"/>
<path fill="#FEFEFE" opacity="1.000000" stroke="none" 
	d="
M1778.471191,239.500854 
	C1823.234741,269.742096 1864.750854,302.892029 1904.269531,338.667908 
	C1955.495728,385.042328 2001.486694,436.145538 2043.170288,491.123749 
	C2076.382812,534.929138 2105.801025,581.241760 2132.068115,629.565979 
	C2163.911621,688.148987 2190.208496,749.119751 2210.917725,812.461731 
	C2228.176514,865.249390 2241.478027,919.040649 2250.358398,973.912292 
	C2255.925293,1008.308777 2260.034668,1042.820923 2262.549072,1077.599609 
	C2265.118164,1113.130859 2266.661377,1148.680786 2265.481689,1184.226807 
	C2263.300781,1249.957275 2256.368164,1315.197510 2243.003906,1379.712524 
	C2228.058105,1451.862427 2206.440430,1521.897339 2177.615967,1589.673218 
	C2148.496582,1658.141846 2112.684570,1722.951172 2070.476318,1784.260254 
	C2044.224121,1822.392700 2015.774536,1858.798218 1984.962769,1893.285278 
	C1955.685059,1926.055176 1924.504150,1956.967651 1891.557373,1986.136719 
	C1853.630127,2019.715088 1813.689087,2050.629639 1771.584229,2078.698975 
	C1692.890625,2131.159912 1608.853516,2172.947510 1519.380981,2203.759766 
	C1454.522705,2226.095947 1388.250244,2242.632324 1320.316650,2252.167480 
	C1296.038208,2255.575439 1271.585693,2257.772461 1247.191406,2260.318115 
	C1215.756836,2263.598145 1184.202271,2264.560059 1152.622681,2264.279785 
	C1100.789551,2263.819580 1049.249146,2259.875000 997.882751,2252.539062 
	C933.235962,2243.306396 870.041443,2228.187988 808.128906,2207.762695 
	C764.865112,2193.489746 722.732910,2176.256836 681.573975,2156.602783 
	C635.864380,2134.775635 591.885132,2109.935547 549.602173,2082.127686 
	C506.477325,2053.765869 465.333344,2022.705811 426.913879,1988.204224 
	C407.613007,1970.871460 388.761108,1952.998901 370.356384,1934.715942 
	C327.789154,1892.430298 289.655579,1846.357910 254.843002,1797.505981 
	C219.621429,1748.080322 188.689835,1696.090820 162.103928,1641.560913 
	C123.636063,1562.660522 94.877205,1480.332153 76.210419,1394.528931 
	C66.610382,1350.401733 59.061638,1305.941040 55.683262,1260.863281 
	C54.096458,1239.690552 52.707096,1218.494385 51.755505,1197.285278 
	C50.906345,1178.359253 50.051437,1159.383667 50.489365,1140.459839 
	C51.441204,1099.329468 54.253834,1058.333740 59.347481,1017.440430 
	C67.085098,955.320618 80.130135,894.420959 98.218025,834.555786 
	C112.754143,786.445923 130.631317,739.610535 151.750458,693.987000 
	C177.381821,638.615540 207.054703,585.546997 241.450363,535.149841 
	C271.485596,491.141693 303.946594,449.000580 340.509552,410.194702 
	C361.040039,388.404724 381.787262,366.743469 403.561371,346.217102 
	C443.290955,308.764099 485.912750,274.764771 530.963989,243.860062 
	C576.033447,212.942856 622.967041,185.184998 672.117981,161.274734 
	C747.414795,124.645477 825.755981,96.536263 907.422729,77.788628 
	C951.126831,67.755806 995.259338,60.607918 1039.819214,55.473198 
	C1092.177734,49.439835 1144.697510,48.288631 1197.188354,49.926834 
	C1310.487427,53.462822 1420.678345,74.600235 1527.588135,112.372795 
	C1574.031494,128.781799 1619.232422,148.207336 1663.002563,170.807114 
	C1702.638062,191.271988 1741.085815,213.805832 1778.471191,239.500854 
M864.347107,2134.557129 
	C867.833374,2135.652832 871.294922,2136.835938 874.809631,2137.831055 
	C910.620056,2147.971191 946.871338,2156.048096 983.526001,2162.619385 
	C1032.634033,2171.423828 1082.172852,2175.619385 1131.897583,2177.463135 
	C1166.111694,2178.731934 1200.339111,2177.097900 1234.532349,2174.514893 
	C1264.000244,2172.288818 1293.279785,2168.935059 1322.445068,2164.303467 
	C1373.050049,2156.267578 1422.684570,2144.239014 1471.458618,2128.563965 
	C1534.659546,2108.252197 1595.187500,2081.820801 1653.251343,2049.671143 
	C1729.920532,2007.219360 1799.936157,1955.654419 1863.162842,1895.060791 
	C1884.524292,1874.588745 1904.799683,1852.887817 1924.489990,1830.785156 
	C1987.281006,1760.301147 2038.664795,1682.166260 2079.336182,1596.968018 
	C2110.229736,1532.252319 2134.095215,1465.100952 2150.769531,1395.322876 
	C2165.934326,1331.861206 2175.294678,1267.625000 2177.571777,1202.439331 
	C2179.186279,1156.225464 2178.914795,1110.052002 2174.552246,1063.887939 
	C2170.392822,1019.873169 2163.832031,976.325012 2154.274902,933.195007 
	C2132.981689,837.102295 2098.115723,746.190247 2050.306396,660.181274 
	C2002.944214,574.976013 1944.254272,498.381165 1875.097778,429.802521 
	C1859.525635,414.360443 1843.162354,399.672668 1826.624878,385.255249 
	C1758.539917,325.898895 1683.761108,276.669098 1602.378784,237.401230 
	C1558.287354,216.126663 1512.975464,198.106064 1466.327881,183.249374 
	C1366.159668,151.346939 1263.431641,136.244003 1158.464722,135.777130 
	C1140.204468,135.695892 1121.941284,137.115295 1103.673706,137.642792 
	C1074.780640,138.477112 1046.129395,141.712036 1017.513062,145.592499 
	C949.819824,154.771881 883.827698,170.768387 819.343689,193.362518 
	C742.054260,220.443436 669.221863,256.471741 600.648071,301.105042 
	C554.008179,331.462036 510.319946,365.641388 469.143524,403.147583 
	C438.578186,430.988556 409.911469,460.607208 383.032959,491.918213 
	C343.082672,538.456665 307.469513,588.171997 276.545502,641.197083 
	C242.264099,699.979004 213.853973,761.442261 191.927887,825.882568 
	C174.023483,878.503235 160.461121,932.177856 151.297073,987.039551 
	C143.848679,1031.630371 138.887131,1076.457153 137.863678,1121.592041 
	C136.733002,1171.456299 137.600510,1221.296387 143.512512,1270.978516 
	C147.751862,1306.604370 153.125946,1342.010864 160.916275,1376.996948 
	C180.449417,1464.719849 210.626404,1548.602295 252.289093,1628.334839 
	C277.469330,1676.523804 306.268097,1722.413574 338.699799,1765.994385 
	C375.323395,1815.208008 416.082214,1860.732788 460.977081,1902.630981 
	C498.755310,1937.887939 538.780029,1970.282227 581.383240,1999.420776 
	C668.216919,2058.810791 761.985291,2103.891846 864.347107,2134.557129 
z"/>
<path fill="#176534" opacity="1.000000" stroke="none" 
	d="
M863.556885,2134.406738 
	C761.985291,2103.891846 668.216919,2058.810791 581.383240,1999.420776 
	C538.780029,1970.282227 498.755310,1937.887939 460.977081,1902.630981 
	C416.082214,1860.732788 375.323395,1815.208008 338.699799,1765.994385 
	C306.268097,1722.413574 277.469330,1676.523804 252.289093,1628.334839 
	C210.626404,1548.602295 180.449417,1464.719849 160.916275,1376.996948 
	C153.125946,1342.010864 147.751862,1306.604370 143.512512,1270.978516 
	C137.600510,1221.296387 136.733002,1171.456299 137.863678,1121.592041 
	C138.887131,1076.457153 143.848679,1031.630371 151.297073,987.039551 
	C160.461121,932.177856 174.023483,878.503235 191.927887,825.882568 
	C213.853973,761.442261 242.264099,699.979004 276.545502,641.197083 
	C307.469513,588.171997 343.082672,538.456665 383.032959,491.918213 
	C409.911469,460.607208 438.578186,430.988556 469.143524,403.147583 
	C510.319946,365.641388 554.008179,331.462036 600.648071,301.105042 
	C669.221863,256.471741 742.054260,220.443436 819.343689,193.362518 
	C883.827698,170.768387 949.819824,154.771881 1017.513062,145.592499 
	C1046.129395,141.712036 1074.780640,138.477112 1103.673706,137.642792 
	C1121.941284,137.115295 1140.204468,135.695892 1158.464722,135.777130 
	C1263.431641,136.244003 1366.159668,151.346939 1466.327881,183.249374 
	C1512.975464,198.106064 1558.287354,216.126663 1602.378784,237.401230 
	C1683.761108,276.669098 1758.539917,325.898895 1826.624878,385.255249 
	C1843.162354,399.672668 1859.525635,414.360443 1875.097778,429.802521 
	C1944.254272,498.381165 2002.944214,574.976013 2050.306396,660.181274 
	C2098.115723,746.190247 2132.981689,837.102295 2154.274902,933.195007 
	C2163.832031,976.325012 2170.392822,1019.873169 2174.552246,1063.887939 
	C2178.914795,1110.052002 2179.186279,1156.225464 2177.571777,1202.439331 
	C2175.294678,1267.625000 2165.934326,1331.861206 2150.769531,1395.322876 
	C2134.095215,1465.100952 2110.229736,1532.252319 2079.336182,1596.968018 
	C2038.664795,1682.166260 1987.281006,1760.301147 1924.489990,1830.785156 
	C1904.799683,1852.887817 1884.524292,1874.588745 1863.162842,1895.060791 
	C1799.936157,1955.654419 1729.920532,2007.219360 1653.251343,2049.671143 
	C1595.187500,2081.820801 1534.659546,2108.252197 1471.458618,2128.563965 
	C1422.684570,2144.239014 1373.050049,2156.267578 1322.445068,2164.303467 
	C1293.279785,2168.935059 1264.000244,2172.288818 1234.532349,2174.514893 
	C1200.339111,2177.097900 1166.111694,2178.731934 1131.897583,2177.463135 
	C1082.172852,2175.619385 1032.634033,2171.423828 983.526001,2162.619385 
	C946.871338,2156.048096 910.620056,2147.971191 874.809631,2137.831055 
	C871.294922,2136.835938 867.833374,2135.652832 863.556885,2134.406738 
M837.463013,1095.537231 
	C864.019043,1131.840210 890.510132,1168.190796 917.145630,1204.435303 
	C961.143982,1264.306396 1005.257568,1324.093018 1049.231689,1383.981812 
	C1051.823120,1387.511230 1055.552368,1390.580688 1056.247314,1395.500610 
	C1036.050415,1397.865723 811.319580,1399.798828 804.229004,1397.580078 
	C811.810181,1380.516235 819.539368,1363.578369 826.867004,1346.468628 
	C831.972351,1334.547852 836.503052,1322.381592 841.335022,1310.342896 
	C845.461792,1300.061035 843.041504,1291.453125 836.625122,1282.460693 
	C809.542236,1244.504395 783.144653,1206.059937 756.269531,1167.953857 
	C750.336975,1159.542236 743.565552,1151.711670 736.983398,1143.776733 
	C735.456238,1141.935669 733.122253,1140.764038 730.443298,1138.744385 
	C718.757141,1160.427490 707.270874,1181.078857 696.392151,1202.045532 
	C660.819885,1270.604614 625.253967,1339.168823 590.121399,1407.953613 
	C571.953979,1443.522949 554.449341,1479.439209 537.221619,1515.474365 
	C532.826477,1524.668091 529.496155,1534.701416 527.637756,1544.713013 
	C522.746887,1571.060669 540.842529,1593.047119 567.872986,1593.966675 
	C580.831726,1594.407471 593.850098,1593.677124 606.821533,1593.058228 
	C651.741638,1590.914917 696.639954,1587.034058 741.570374,1586.658569 
	C831.201477,1585.908936 920.848328,1587.053345 1010.488770,1587.398682 
	C1066.476807,1587.614380 1122.468384,1587.517700 1178.450073,1588.221802 
	C1190.498901,1588.373291 1197.749634,1583.736328 1203.172729,1573.581055 
	C1230.808105,1521.830444 1261.238770,1471.754761 1294.046265,1423.118896 
	C1296.252441,1419.848267 1298.093872,1416.331299 1300.535034,1412.201294 
	C1270.622070,1367.803711 1236.595459,1326.737305 1204.860840,1283.994873 
	C1173.082764,1241.194092 1140.404663,1199.058350 1107.896118,1156.804321 
	C1075.184326,1114.285889 1041.785278,1072.290894 1009.444275,1029.494385 
	C977.441101,987.144897 944.726379,945.307861 912.269226,900.679321 
	C1002.361877,900.679321 1090.172974,900.679321 1178.471558,900.679321 
	C1179.081787,897.333801 1179.657837,894.799255 1179.994873,892.233337 
	C1184.506836,857.897705 1189.298828,823.594604 1193.350220,789.204407 
	C1195.645752,769.718506 1196.782104,750.093079 1198.261719,730.517029 
	C1198.498535,727.381958 1197.795898,724.175781 1197.471069,720.333313 
	C1193.523804,720.333313 1190.575195,720.333313 1187.626587,720.333313 
	C1073.641357,720.333191 959.655823,720.196533 845.671448,720.495483 
	C830.409729,720.535461 815.019531,721.893311 799.923279,724.184875 
	C769.186279,728.850708 743.028687,742.330566 723.641663,767.398315 
	C699.171387,799.038818 688.012329,835.489746 685.056824,874.826050 
	C684.277588,885.197327 687.570801,894.356323 694.243958,902.558594 
	C702.650513,912.891479 710.662109,923.557251 718.576904,934.276672 
	C757.960999,987.616028 797.257446,1041.020142 837.463013,1095.537231 
M1736.192871,1315.119507 
	C1739.208130,1300.108643 1742.765991,1285.182983 1745.141235,1270.071533 
	C1753.748779,1215.309814 1739.982178,1167.110474 1701.804321,1126.396484 
	C1694.685791,1118.805176 1686.575806,1112.506348 1676.948486,1108.237427 
	C1675.169067,1107.448486 1673.943970,1105.409180 1672.463013,1103.946899 
	C1673.864990,1102.740967 1675.075928,1100.955566 1676.699097,1100.420166 
	C1690.364258,1095.913452 1701.373291,1087.390625 1711.479980,1077.578247 
	C1730.518677,1059.093384 1746.166260,1038.060425 1758.274170,1014.416382 
	C1781.759155,968.555237 1790.764648,919.484863 1789.416138,868.450317 
	C1788.623413,838.449402 1777.605957,811.889954 1757.311401,789.599976 
	C1741.478027,772.209839 1723.088623,758.046570 1702.009888,747.381470 
	C1668.126953,730.237976 1631.854614,722.247681 1594.316772,720.249878 
	C1569.393921,718.923401 1544.363525,719.391541 1519.381958,719.439087 
	C1443.397949,719.583740 1367.414185,719.921570 1291.430420,720.165710 
	C1277.155884,720.211609 1262.880981,720.172302 1248.557007,720.172302 
	C1247.685303,723.413269 1246.796631,725.600342 1246.538696,727.859375 
	C1244.952637,741.757385 1243.534180,755.674500 1242.013306,769.580078 
	C1238.392334,802.687805 1234.696167,835.787354 1231.122314,868.900146 
	C1227.369629,903.670044 1223.876099,938.468506 1219.987671,973.222961 
	C1216.322754,1005.979797 1212.208740,1038.686157 1208.457520,1071.433472 
	C1206.717773,1086.622192 1204.842407,1101.827515 1204.018799,1117.078613 
	C1203.409912,1128.356201 1207.565674,1138.645752 1214.328003,1147.749512 
	C1229.426758,1168.076050 1244.526733,1188.401855 1259.653931,1208.707275 
	C1283.535156,1240.763062 1307.439697,1272.801636 1331.332275,1304.849121 
	C1332.128296,1305.916870 1332.889404,1307.010742 1333.689941,1308.075073 
	C1336.393799,1311.670288 1339.660034,1313.220581 1345.190918,1310.329224 
	C1348.290649,1286.086426 1351.478882,1261.151001 1354.637817,1236.444824 
	C1355.796265,1236.123535 1356.420288,1235.782837 1357.031250,1235.804932 
	C1399.315674,1237.341797 1441.610229,1238.660522 1483.877197,1240.585938 
	C1502.118774,1241.416992 1519.320679,1246.296997 1534.204346,1257.652954 
	C1542.154785,1263.718872 1546.440918,1271.200317 1546.080811,1281.556274 
	C1545.236206,1305.849731 1537.308472,1327.764404 1525.025146,1348.426147 
	C1512.560791,1369.392822 1493.954712,1381.089478 1470.133057,1384.090088 
	C1457.294067,1385.707397 1444.243774,1385.959351 1431.279297,1386.133789 
	C1424.908081,1386.219727 1420.566162,1388.244263 1417.329224,1393.705566 
	C1413.768066,1399.713989 1409.555786,1405.333008 1405.896118,1411.286987 
	C1381.131470,1451.578979 1356.315308,1491.840332 1331.785034,1532.274902 
	C1322.635620,1547.356201 1314.168579,1562.853149 1305.495972,1578.220093 
	C1304.303833,1580.332764 1303.725220,1582.791504 1302.396851,1586.330688 
	C1324.707886,1586.330688 1345.684814,1586.348145 1366.661743,1586.326660 
	C1399.997437,1586.292725 1433.310669,1585.776978 1466.297363,1580.175903 
	C1552.981934,1565.457153 1623.598145,1524.175903 1675.886230,1452.881104 
	C1705.898315,1411.959473 1724.622437,1365.981323 1736.192871,1315.119507 
z"/>
<path fill="#FEFEFE" opacity="1.000000" stroke="none" 
	d="
M837.023804,1094.969360 
	C797.257446,1041.020142 757.960999,987.616028 718.576904,934.276672 
	C710.662109,923.557251 702.650513,912.891479 694.243958,902.558594 
	C687.570801,894.356323 684.277588,885.197327 685.056824,874.826050 
	C688.012329,835.489746 699.171387,799.038818 723.641663,767.398315 
	C743.028687,742.330566 769.186279,728.850708 799.923279,724.184875 
	C815.019531,721.893311 830.409729,720.535461 845.671448,720.495483 
	C959.655823,720.196533 1073.641357,720.333191 1187.626587,720.333313 
	C1190.575195,720.333313 1193.523804,720.333313 1197.471069,720.333313 
	C1197.795898,724.175781 1198.498535,727.381958 1198.261719,730.517029 
	C1196.782104,750.093079 1195.645752,769.718506 1193.350220,789.204407 
	C1189.298828,823.594604 1184.506836,857.897705 1179.994873,892.233337 
	C1179.657837,894.799255 1179.081787,897.333801 1178.471558,900.679321 
	C1090.172974,900.679321 1002.361877,900.679321 912.269226,900.679321 
	C944.726379,945.307861 977.441101,987.144897 1009.444275,1029.494385 
	C1041.785278,1072.290894 1075.184326,1114.285889 1107.896118,1156.804321 
	C1140.404663,1199.058350 1173.082764,1241.194092 1204.860840,1283.994873 
	C1236.595459,1326.737305 1270.622070,1367.803711 1300.535034,1412.201294 
	C1298.093872,1416.331299 1296.252441,1419.848267 1294.046265,1423.118896 
	C1261.238770,1471.754761 1230.808105,1521.830444 1203.172729,1573.581055 
	C1197.749634,1583.736328 1190.498901,1588.373291 1178.450073,1588.221802 
	C1122.468384,1587.517700 1066.476807,1587.614380 1010.488770,1587.398682 
	C920.848328,1587.053345 831.201477,1585.908936 741.570374,1586.658569 
	C696.639954,1587.034058 651.741638,1590.914917 606.821533,1593.058228 
	C593.850098,1593.677124 580.831726,1594.407471 567.872986,1593.966675 
	C540.842529,1593.047119 522.746887,1571.060669 527.637756,1544.713013 
	C529.496155,1534.701416 532.826477,1524.668091 537.221619,1515.474365 
	C554.449341,1479.439209 571.953979,1443.522949 590.121399,1407.953613 
	C625.253967,1339.168823 660.819885,1270.604614 696.392151,1202.045532 
	C707.270874,1181.078857 718.757141,1160.427490 730.443298,1138.744385 
	C733.122253,1140.764038 735.456238,1141.935669 736.983398,1143.776733 
	C743.565552,1151.711670 750.336975,1159.542236 756.269531,1167.953857 
	C783.144653,1206.059937 809.542236,1244.504395 836.625122,1282.460693 
	C843.041504,1291.453125 845.461792,1300.061035 841.335022,1310.342896 
	C836.503052,1322.381592 831.972351,1334.547852 826.867004,1346.468628 
	C819.539368,1363.578369 811.810181,1380.516235 804.229004,1397.580078 
	C811.319580,1399.798828 1036.050415,1397.865723 1056.247314,1395.500610 
	C1055.552368,1390.580688 1051.823120,1387.511230 1049.231689,1383.981812 
	C1005.257568,1324.093018 961.143982,1264.306396 917.145630,1204.435303 
	C890.510132,1168.190796 864.019043,1131.840210 837.023804,1094.969360 
z"/>
<path fill="#FEFFFE" opacity="1.000000" stroke="none" 
	d="
M1736.056030,1315.942627 
	C1724.622437,1365.981323 1705.898315,1411.959473 1675.886230,1452.881104 
	C1623.598145,1524.175903 1552.981934,1565.457153 1466.297363,1580.175903 
	C1433.310669,1585.776978 1399.997437,1586.292725 1366.661743,1586.326660 
	C1345.684814,1586.348145 1324.707886,1586.330688 1302.396851,1586.330688 
	C1303.725220,1582.791504 1304.303833,1580.332764 1305.495972,1578.220093 
	C1314.168579,1562.853149 1322.635620,1547.356201 1331.785034,1532.274902 
	C1356.315308,1491.840332 1381.131470,1451.578979 1405.896118,1411.286987 
	C1409.555786,1405.333008 1413.768066,1399.713989 1417.329224,1393.705566 
	C1420.566162,1388.244263 1424.908081,1386.219727 1431.279297,1386.133789 
	C1444.243774,1385.959351 1457.294067,1385.707397 1470.133057,1384.090088 
	C1493.954712,1381.089478 1512.560791,1369.392822 1525.025146,1348.426147 
	C1537.308472,1327.764404 1545.236206,1305.849731 1546.080811,1281.556274 
	C1546.440918,1271.200317 1542.154785,1263.718872 1534.204346,1257.652954 
	C1519.320679,1246.296997 1502.118774,1241.416992 1483.877197,1240.585938 
	C1441.610229,1238.660522 1399.315674,1237.341797 1357.031250,1235.804932 
	C1356.420288,1235.782837 1355.796265,1236.123535 1354.637817,1236.444824 
	C1351.478882,1261.151001 1348.290649,1286.086426 1345.190918,1310.329224 
	C1339.660034,1313.220581 1336.393799,1311.670288 1333.689941,1308.075073 
	C1332.889404,1307.010742 1332.128296,1305.916870 1331.332275,1304.849121 
	C1307.439697,1272.801636 1283.535156,1240.763062 1259.653931,1208.707275 
	C1244.526733,1188.401855 1229.426758,1168.076050 1214.328003,1147.749512 
	C1207.565674,1138.645752 1203.409912,1128.356201 1204.018799,1117.078613 
	C1204.842407,1101.827515 1206.717773,1086.622192 1208.457520,1071.433472 
	C1212.208740,1038.686157 1216.322754,1005.979797 1219.987671,973.222961 
	C1223.876099,938.468506 1227.369629,903.670044 1231.122314,868.900146 
	C1234.696167,835.787354 1238.392334,802.687805 1242.013306,769.580078 
	C1243.534180,755.674500 1244.952637,741.757385 1246.538696,727.859375 
	C1246.796631,725.600342 1247.685303,723.413269 1248.557007,720.172302 
	C1262.880981,720.172302 1277.155884,720.211609 1291.430420,720.165710 
	C1367.414185,719.921570 1443.397949,719.583740 1519.381958,719.439087 
	C1544.363525,719.391541 1569.393921,718.923401 1594.316772,720.249878 
	C1631.854614,722.247681 1668.126953,730.237976 1702.009888,747.381470 
	C1723.088623,758.046570 1741.478027,772.209839 1757.311401,789.599976 
	C1777.605957,811.889954 1788.623413,838.449402 1789.416138,868.450317 
	C1790.764648,919.484863 1781.759155,968.555237 1758.274170,1014.416382 
	C1746.166260,1038.060425 1730.518677,1059.093384 1711.479980,1077.578247 
	C1701.373291,1087.390625 1690.364258,1095.913452 1676.699097,1100.420166 
	C1675.075928,1100.955566 1673.864990,1102.740967 1672.463013,1103.946899 
	C1673.943970,1105.409180 1675.169067,1107.448486 1676.948486,1108.237427 
	C1686.575806,1112.506348 1694.685791,1118.805176 1701.804321,1126.396484 
	C1739.982178,1167.110474 1753.748779,1215.309814 1745.141235,1270.071533 
	C1742.765991,1285.182983 1739.208130,1300.108643 1736.056030,1315.942627 
M1399.714722,924.679016 
	C1393.143677,958.504028 1386.954224,992.375793 1385.783691,1027.678223 
	C1389.767822,1027.678223 1392.390259,1027.675049 1395.012695,1027.678711 
	C1435.668823,1027.733765 1476.326416,1027.611816 1516.980347,1027.936768 
	C1532.360474,1028.059570 1545.544800,1023.196533 1557.615967,1013.903809 
	C1586.982788,991.296692 1600.276733,960.096069 1605.184082,924.680908 
	C1607.208374,910.071167 1601.391846,898.003479 1589.155518,889.231506 
	C1581.444702,883.703735 1573.079224,879.444824 1563.766479,878.124634 
	C1551.596558,876.399353 1539.288818,874.898438 1527.022339,874.745300 
	C1491.702759,874.304565 1456.374023,874.589722 1421.048950,874.589722 
	C1417.775146,874.589722 1414.501465,874.589722 1410.588989,874.589722 
	C1406.941162,891.230164 1403.459351,907.113953 1399.714722,924.679016 
z"/>
<path fill="#196636" opacity="1.000000" stroke="none" 
	d="
M1399.846069,923.838379 
	C1403.459351,907.113953 1406.941162,891.230164 1410.588989,874.589722 
	C1414.501465,874.589722 1417.775146,874.589722 1421.048950,874.589722 
	C1456.374023,874.589722 1491.702759,874.304565 1527.022339,874.745300 
	C1539.288818,874.898438 1551.596558,876.399353 1563.766479,878.124634 
	C1573.079224,879.444824 1581.444702,883.703735 1589.155518,889.231506 
	C1601.391846,898.003479 1607.208374,910.071167 1605.184082,924.680908 
	C1600.276733,960.096069 1586.982788,991.296692 1557.615967,1013.903809 
	C1545.544800,1023.196533 1532.360474,1028.059570 1516.980347,1027.936768 
	C1476.326416,1027.611816 1435.668823,1027.733765 1395.012695,1027.678711 
	C1392.390259,1027.675049 1389.767822,1027.678223 1385.783691,1027.678223 
	C1386.954224,992.375793 1393.143677,958.504028 1399.846069,923.838379 
z"/>
</svg>