<svg id="svg" version="1.1" xmlns="http://www.w3.org/2000/svg" xmlns:xlink="http://www.w3.org/1999/xlink" width="400" height="224.87702037947997" viewBox="0, 0, 400,224.87702037947997"><g id="svgg"><path id="path0" d="M140.037 105.430 C 137.444 106.722,136.839 110.146,138.848 112.155 C 140.017 113.325,140.356 113.406,144.473 113.499 C 148.961 113.601,148.833 113.537,148.833 115.670 C 148.833 117.744,148.663 117.834,144.779 117.830 C 141.157 117.825,140.509 117.644,140.031 116.505 L 139.750 115.837 138.708 115.835 C 137.477 115.833,137.404 116.012,138.061 117.423 C 138.505 118.377,139.242 119.068,140.332 119.552 C 141.427 120.039,154.530 120.098,155.545 119.621 C 158.419 118.271,159.091 114.669,156.862 112.570 L 156.192 111.939 156.617 111.100 C 157.478 109.401,157.096 107.400,155.665 106.114 C 154.445 105.016,154.320 105.000,147.222 105.000 L 140.899 105.000 140.037 105.430 M148.057 107.185 C 148.527 107.399,148.802 107.872,148.869 108.583 C 148.916 109.074,148.935 109.084,149.958 109.133 C 151.140 109.189,151.269 108.966,150.759 107.745 L 150.517 107.167 152.079 107.167 C 153.513 107.167,153.683 107.202,154.149 107.594 C 155.344 108.600,155.009 110.625,153.556 111.177 C 152.997 111.390,141.236 111.382,140.837 111.169 C 139.574 110.493,139.536 108.318,140.769 107.348 C 141.283 106.944,147.235 106.810,148.057 107.185 M236.575 112.750 C 236.575 115.867,236.597 117.118,236.625 115.531 C 236.652 113.944,236.652 111.394,236.625 109.864 C 236.597 108.335,236.575 109.633,236.575 112.750 M231.575 112.833 C 231.575 115.904,231.597 117.160,231.625 115.625 C 231.652 114.090,231.652 111.577,231.625 110.042 C 231.597 108.506,231.575 109.763,231.575 112.833 M154.827 113.747 C 156.418 114.569,156.372 116.916,154.752 117.593 C 154.240 117.807,150.500 117.963,150.500 117.770 C 150.500 117.736,150.612 117.438,150.750 117.109 C 151.068 116.349,151.072 114.828,150.759 114.078 L 150.517 113.500 152.433 113.500 C 153.799 113.500,154.487 113.571,154.827 113.747 M194.867 116.291 C 195.664 116.321,197.014 116.321,197.867 116.291 C 198.719 116.261,198.067 116.236,196.417 116.236 C 194.767 116.235,194.069 116.260,194.867 116.291 M204.867 116.291 C 205.664 116.321,207.014 116.321,207.867 116.291 C 208.719 116.261,208.067 116.236,206.417 116.236 C 204.767 116.235,204.069 116.260,204.867 116.291 M240.550 116.291 C 241.356 116.321,242.631 116.321,243.383 116.291 C 244.135 116.260,243.475 116.235,241.917 116.235 C 240.358 116.235,239.743 116.260,240.550 116.291 M249.883 116.291 C 250.690 116.321,251.965 116.321,252.717 116.291 C 253.468 116.260,252.808 116.235,251.250 116.235 C 249.692 116.235,249.077 116.260,249.883 116.291 " stroke="none" fill="#fbfbfb" fill-rule="evenodd"></path><path id="path1" d="M146.988 96.894 C 146.949 96.930,146.279 97.002,145.500 97.055 C 144.721 97.107,143.838 97.224,143.539 97.314 C 143.239 97.405,142.959 97.485,142.915 97.494 C 142.692 97.537,142.143 97.737,141.167 98.129 C 136.993 99.804,133.566 103.499,132.088 107.917 C 129.507 115.635,134.890 125.571,142.566 127.254 C 142.740 127.292,143.115 127.397,143.399 127.486 C 144.245 127.752,147.142 128.034,147.976 127.931 C 148.402 127.879,149.157 127.794,149.654 127.743 C 150.151 127.692,150.618 127.614,150.691 127.568 C 150.765 127.522,151.034 127.456,151.288 127.421 C 153.815 127.070,158.352 123.942,160.118 121.333 C 161.065 119.933,162.233 117.514,162.398 116.608 C 162.434 116.411,162.556 115.912,162.669 115.500 C 162.782 115.087,162.893 113.853,162.915 112.756 C 162.952 110.972,162.885 110.377,162.421 108.311 C 162.030 106.570,159.809 102.787,158.406 101.472 C 157.037 100.189,153.010 97.601,152.708 97.810 C 152.613 97.875,151.736 97.610,151.542 97.457 C 151.427 97.366,151.333 97.334,151.333 97.385 C 151.333 97.435,151.090 97.405,150.792 97.318 C 150.494 97.231,149.762 97.121,149.167 97.074 C 148.571 97.027,147.853 96.953,147.571 96.909 C 147.290 96.865,147.027 96.859,146.988 96.894 M149.667 97.664 C 151.887 97.988,155.121 99.374,156.376 100.542 C 156.647 100.794,156.923 101.000,156.990 101.000 C 157.344 101.000,160.333 104.506,160.333 104.921 C 160.333 104.982,160.471 105.231,160.638 105.474 C 164.410 110.948,162.055 120.365,155.833 124.686 C 152.325 127.122,146.246 128.128,143.039 126.801 C 142.789 126.698,142.532 126.623,142.470 126.636 C 142.087 126.714,139.444 125.365,138.056 124.384 C 136.950 123.602,134.833 121.415,134.833 121.054 C 134.833 120.932,134.774 120.833,134.701 120.833 C 134.480 120.833,133.364 118.798,132.913 117.573 C 130.656 111.429,132.559 104.891,137.849 100.621 C 138.270 100.281,138.663 100.052,138.724 100.113 C 138.784 100.173,138.833 100.144,138.833 100.048 C 138.833 99.846,141.165 98.582,141.169 98.783 C 141.171 98.856,141.227 98.835,141.294 98.734 C 141.447 98.506,143.688 97.811,144.582 97.714 C 144.948 97.674,145.279 97.610,145.318 97.571 C 145.450 97.439,148.577 97.506,149.667 97.664 M145.500 98.157 C 145.087 98.234,144.487 98.339,144.167 98.392 C 140.171 99.044,135.731 102.513,134.002 106.333 C 133.774 106.837,133.549 107.287,133.502 107.333 C 133.455 107.379,133.404 107.492,133.389 107.583 C 133.374 107.675,133.198 108.388,132.998 109.167 C 131.875 113.542,133.199 118.612,136.350 122.007 C 136.772 122.462,137.072 122.834,137.017 122.834 C 136.962 122.835,137.114 122.966,137.356 123.126 C 137.598 123.286,138.235 123.725,138.773 124.102 C 140.114 125.042,143.472 126.600,143.878 126.470 C 143.899 126.463,144.329 126.516,144.833 126.589 C 149.696 127.285,154.111 125.864,157.492 122.514 C 166.459 113.630,160.473 98.723,147.683 98.088 C 146.895 98.049,145.912 98.080,145.500 98.157 M153.811 105.026 C 156.455 105.637,157.963 108.869,156.665 111.144 L 156.250 111.872 157.035 112.678 C 159.129 114.830,158.553 118.113,155.833 119.527 L 155.083 119.917 148.000 119.917 C 141.168 119.917,140.890 119.904,140.165 119.569 C 138.832 118.952,137.910 117.750,137.587 116.208 L 137.474 115.667 138.640 115.667 L 139.807 115.667 140.001 116.252 C 140.425 117.539,140.845 117.667,144.648 117.667 C 148.785 117.667,148.833 117.643,148.833 115.661 C 148.833 114.572,148.793 114.434,148.346 113.987 L 147.859 113.500 144.388 113.498 C 140.399 113.497,139.763 113.333,138.641 112.022 C 136.518 109.542,137.764 105.766,140.953 105.015 C 141.925 104.786,152.812 104.796,153.811 105.026 M265.333 107.005 C 265.333 107.100,265.446 107.220,265.583 107.273 C 265.746 107.336,265.833 107.595,265.833 108.018 C 265.833 108.375,265.908 108.667,266.000 108.667 C 266.092 108.667,266.167 108.332,266.167 107.922 C 266.167 107.328,266.217 107.197,266.417 107.273 C 266.575 107.334,266.667 107.271,266.667 107.101 C 266.667 106.900,266.501 106.833,266.000 106.833 C 265.633 106.833,265.333 106.911,265.333 107.005 M267.000 107.750 C 267.000 108.323,267.071 108.667,267.189 108.667 C 267.317 108.667,267.349 108.408,267.289 107.875 L 267.199 107.083 267.448 107.893 C 267.715 108.766,267.879 108.751,268.139 107.833 L 268.303 107.250 268.318 107.958 C 268.341 109.012,268.667 108.817,268.667 107.750 C 268.667 106.681,268.328 106.492,267.995 107.375 L 267.792 107.917 267.622 107.375 C 267.342 106.484,267.000 106.691,267.000 107.750 M171.417 107.222 C 167.816 108.145,168.052 112.781,171.732 113.401 C 174.216 113.819,175.353 114.720,174.896 115.909 C 174.470 117.020,171.762 116.860,171.067 115.683 C 170.773 115.185,170.720 115.167,169.617 115.167 L 168.474 115.167 168.589 115.708 C 168.837 116.880,169.720 117.696,171.417 118.327 C 174.305 119.400,177.859 117.116,177.412 114.473 C 177.353 114.124,177.330 113.812,177.361 113.781 C 177.735 113.394,175.348 111.994,173.500 111.515 C 171.392 110.970,170.602 109.981,171.606 109.147 C 172.384 108.502,174.667 109.087,174.667 109.931 C 174.667 110.113,174.952 110.167,175.917 110.167 C 177.364 110.167,177.384 110.134,176.670 108.890 C 175.816 107.401,173.538 106.677,171.417 107.222 M258.014 107.190 C 254.256 108.080,254.486 112.570,258.333 113.418 C 261.003 114.007,261.732 114.555,261.432 115.747 C 261.117 117.002,258.248 116.951,257.590 115.680 C 257.332 115.180,257.294 115.167,256.149 115.167 L 254.974 115.167 255.091 115.708 C 255.883 119.368,263.028 119.415,263.844 115.766 C 264.325 113.616,263.167 112.335,260.000 111.515 C 257.866 110.963,257.299 110.295,258.069 109.242 C 258.500 108.652,260.939 108.869,261.021 109.504 C 261.032 109.594,261.051 109.760,261.063 109.875 C 261.093 110.177,263.668 110.266,263.663 109.965 C 263.629 108.107,260.544 106.591,258.014 107.190 M140.583 107.599 C 139.638 108.619,139.681 110.062,140.682 110.904 L 141.192 111.333 147.101 111.333 C 153.649 111.333,153.887 111.300,154.496 110.302 C 155.050 109.393,154.948 108.576,154.186 107.814 L 153.539 107.167 152.103 107.167 C 151.313 107.167,150.667 107.185,150.668 107.208 C 150.669 107.231,150.782 107.618,150.918 108.068 C 151.055 108.518,151.167 108.949,151.167 109.026 C 151.167 109.104,150.642 109.167,150.000 109.167 L 148.833 109.167 148.833 108.606 C 148.833 108.291,148.682 107.852,148.488 107.606 L 148.142 107.167 144.563 107.167 L 140.984 107.167 140.583 107.599 M179.333 112.750 L 179.333 118.333 180.500 118.333 L 181.667 118.333 181.667 115.917 L 181.667 113.500 183.917 113.500 L 186.167 113.500 186.167 115.917 L 186.167 118.333 187.333 118.333 L 188.500 118.333 188.500 112.750 L 188.500 107.167 187.333 107.167 L 186.167 107.167 186.167 109.333 L 186.167 111.500 183.917 111.500 L 181.667 111.500 181.667 109.333 L 181.667 107.167 180.500 107.167 L 179.333 107.167 179.333 112.750 M191.167 112.750 L 191.167 118.333 195.167 118.333 C 198.860 118.333,199.168 118.311,199.180 118.042 C 199.187 117.881,199.228 117.431,199.271 117.042 L 199.350 116.333 196.425 116.333 L 193.500 116.333 193.500 114.917 L 193.500 113.500 196.167 113.500 L 198.833 113.500 198.833 112.500 L 198.833 111.500 196.167 111.500 L 193.500 111.500 193.500 110.333 L 193.500 109.167 196.333 109.167 L 199.167 109.167 199.167 108.167 L 199.167 107.167 195.167 107.167 L 191.167 107.167 191.167 112.750 M201.167 112.753 L 201.167 118.339 205.106 118.295 L 209.045 118.250 209.104 117.667 C 209.136 117.346,209.202 116.915,209.251 116.708 L 209.340 116.333 206.420 116.333 L 203.500 116.333 203.500 114.917 L 203.500 113.500 206.083 113.500 L 208.667 113.500 208.667 112.500 L 208.667 111.500 206.083 111.500 L 203.500 111.500 203.500 110.333 L 203.500 109.167 206.250 109.167 L 209.000 109.167 209.000 108.167 L 209.000 107.167 205.083 107.167 L 201.167 107.167 201.167 112.753 M210.333 108.167 L 210.333 109.167 212.000 109.167 L 213.667 109.167 213.667 113.750 L 213.667 118.333 214.833 118.333 L 216.000 118.333 216.000 113.750 L 216.000 109.167 217.667 109.167 L 219.333 109.167 219.333 108.167 L 219.333 107.167 214.833 107.167 L 210.333 107.167 210.333 108.167 M221.000 112.740 L 221.000 118.346 223.958 118.327 C 227.135 118.307,227.881 118.146,228.806 117.284 C 230.113 116.065,230.070 113.761,228.723 112.838 L 228.172 112.461 228.573 112.145 C 229.886 111.112,229.627 108.505,228.134 107.733 C 227.342 107.323,227.086 107.291,223.958 107.211 L 221.000 107.134 221.000 112.740 M231.667 112.750 L 231.667 118.333 232.833 118.333 L 234.000 118.333 234.000 112.750 L 234.000 107.167 232.833 107.167 L 231.667 107.167 231.667 112.750 M236.667 112.750 L 236.667 118.333 240.500 118.333 C 243.449 118.333,244.336 118.285,244.346 118.125 C 244.353 118.010,244.382 117.804,244.410 117.667 C 244.491 117.272,244.540 116.769,244.519 116.542 C 244.505 116.384,243.845 116.333,241.833 116.333 L 239.167 116.333 239.167 111.750 L 239.167 107.167 237.917 107.167 L 236.667 107.167 236.667 112.750 M246.167 112.750 L 246.167 118.333 250.000 118.333 L 253.833 118.333 253.845 117.875 C 253.851 117.623,253.888 117.173,253.927 116.875 L 253.997 116.333 251.249 116.333 L 248.500 116.333 248.500 111.750 L 248.500 107.167 247.333 107.167 L 246.167 107.167 246.167 112.750 M226.405 109.235 C 227.146 109.544,227.358 110.331,226.875 110.978 C 226.496 111.486,226.015 111.620,224.458 111.647 L 223.333 111.667 223.333 110.333 L 223.333 109.000 224.589 109.000 C 225.291 109.000,226.091 109.103,226.405 109.235 M226.614 113.723 C 227.174 114.012,227.342 114.410,227.240 115.209 C 227.121 116.151,226.721 116.368,224.931 116.462 L 223.333 116.545 223.333 114.916 L 223.333 113.286 224.719 113.373 C 225.490 113.421,226.330 113.576,226.614 113.723 M150.960 114.542 C 151.211 115.396,151.136 116.392,150.746 117.375 C 150.576 117.806,154.285 117.812,155.013 117.382 C 155.915 116.850,156.211 115.746,155.728 114.726 C 155.307 113.840,154.796 113.667,152.610 113.667 L 150.703 113.667 150.960 114.542 " stroke="none" fill="#2cac3c" fill-rule="evenodd"></path><path id="path2" d="M135.824 101.625 L 135.250 102.250 135.875 101.676 C 136.457 101.141,136.577 101.000,136.449 101.000 C 136.422 101.000,136.140 101.281,135.824 101.625 M135.991 102.292 L 135.417 102.917 136.042 102.342 C 136.623 101.808,136.743 101.667,136.616 101.667 C 136.588 101.667,136.307 101.948,135.991 102.292 M142.958 107.124 C 143.806 107.154,145.194 107.154,146.042 107.124 C 146.890 107.094,146.196 107.069,144.500 107.069 C 142.804 107.069,142.110 107.094,142.958 107.124 M179.241 112.750 C 179.242 115.867,179.264 117.118,179.291 115.531 C 179.319 113.944,179.319 111.394,179.291 109.864 C 179.264 108.335,179.241 109.633,179.241 112.750 M210.220 108.167 C 210.220 108.763,210.250 109.006,210.287 108.708 C 210.324 108.410,210.324 107.923,210.287 107.625 C 210.250 107.327,210.220 107.571,210.220 108.167 M246.075 112.750 C 246.075 115.867,246.097 117.118,246.125 115.531 C 246.152 113.944,246.152 111.394,246.125 109.864 C 246.097 108.335,246.075 109.633,246.075 112.750 M220.908 112.750 C 220.908 115.775,220.930 117.036,220.958 115.552 C 220.986 114.068,220.986 111.593,220.958 110.052 C 220.931 108.511,220.908 109.725,220.908 112.750 M137.542 109.250 C 137.544 109.617,137.578 109.747,137.618 109.540 C 137.658 109.332,137.656 109.032,137.615 108.873 C 137.573 108.714,137.540 108.883,137.542 109.250 M216.073 113.750 C 216.073 116.317,216.096 117.343,216.125 116.032 C 216.153 114.720,216.153 112.620,216.125 111.365 C 216.096 110.110,216.073 111.183,216.073 113.750 M175.375 110.288 C 175.719 110.324,176.281 110.324,176.625 110.288 C 176.969 110.252,176.688 110.223,176.000 110.223 C 175.313 110.223,175.031 110.252,175.375 110.288 M261.875 110.288 C 262.219 110.324,262.781 110.324,263.125 110.288 C 263.469 110.252,263.188 110.223,262.500 110.223 C 261.813 110.223,261.531 110.252,261.875 110.288 M208.720 112.500 C 208.720 113.096,208.750 113.340,208.787 113.042 C 208.824 112.744,208.824 112.256,208.787 111.958 C 208.750 111.660,208.720 111.904,208.720 112.500 M223.875 111.621 C 224.219 111.657,224.781 111.657,225.125 111.621 C 225.469 111.585,225.188 111.556,224.500 111.556 C 223.813 111.556,223.531 111.585,223.875 111.621 M132.542 112.417 C 132.544 112.783,132.578 112.914,132.618 112.706 C 132.658 112.499,132.656 112.199,132.615 112.040 C 132.573 111.880,132.540 112.050,132.542 112.417 M223.788 113.454 C 224.084 113.490,224.609 113.491,224.955 113.455 C 225.300 113.419,225.058 113.389,224.417 113.388 C 223.775 113.387,223.492 113.417,223.788 113.454 M151.542 113.623 C 152.069 113.656,152.931 113.656,153.458 113.623 C 153.985 113.590,153.554 113.563,152.500 113.563 C 151.446 113.563,151.015 113.590,151.542 113.623 M169.579 115.120 C 170.222 115.155,170.804 115.273,170.883 115.383 C 170.983 115.524,171.005 115.509,170.958 115.333 C 170.906 115.141,170.604 115.080,169.653 115.070 L 168.417 115.057 169.579 115.120 M255.333 115.102 C 256.328 115.227,257.462 115.240,257.391 115.125 C 257.349 115.056,256.774 115.011,256.115 115.025 C 255.456 115.039,255.104 115.074,255.333 115.102 " stroke="none" fill="#5cc46c" fill-rule="evenodd"></path><path id="path3" d="M146.698 104.958 C 147.862 104.986,149.812 104.986,151.032 104.958 C 152.252 104.929,151.300 104.906,148.917 104.906 C 146.533 104.906,145.535 104.929,146.698 104.958 M266.797 106.958 C 266.766 107.027,266.787 107.458,266.844 107.917 L 266.948 108.750 266.974 107.792 C 266.998 106.911,266.940 106.639,266.797 106.958 M186.065 109.333 C 186.065 110.571,186.092 111.077,186.124 110.458 C 186.156 109.840,186.156 108.827,186.124 108.208 C 186.092 107.590,186.065 108.096,186.065 109.333 M266.214 107.917 C 266.216 108.375,266.248 108.543,266.286 108.289 C 266.325 108.036,266.324 107.661,266.284 107.456 C 266.244 107.251,266.213 107.458,266.214 107.917 M201.075 112.833 C 201.075 115.904,201.097 117.160,201.125 115.625 C 201.152 114.090,201.152 111.577,201.125 110.042 C 201.097 108.506,201.075 109.763,201.075 112.833 M172.542 108.948 C 172.702 108.990,172.965 108.990,173.125 108.948 C 173.285 108.906,173.154 108.872,172.833 108.872 C 172.512 108.872,172.381 108.906,172.542 108.948 M223.963 109.122 C 224.355 109.157,224.955 109.157,225.296 109.121 C 225.637 109.085,225.317 109.057,224.583 109.057 C 223.850 109.058,223.571 109.087,223.963 109.122 M194.883 109.291 C 195.690 109.321,196.965 109.321,197.717 109.291 C 198.468 109.260,197.808 109.235,196.250 109.235 C 194.692 109.235,194.077 109.260,194.883 109.291 M204.883 109.291 C 205.690 109.321,206.965 109.321,207.717 109.291 C 208.468 109.260,207.808 109.235,206.250 109.235 C 204.692 109.235,204.077 109.260,204.883 109.291 M211.125 109.290 C 211.606 109.323,212.394 109.323,212.875 109.290 C 213.356 109.256,212.963 109.228,212.000 109.228 C 211.037 109.228,210.644 109.256,211.125 109.290 M216.958 109.290 C 217.440 109.323,218.227 109.323,218.708 109.290 C 219.190 109.256,218.796 109.228,217.833 109.228 C 216.871 109.228,216.477 109.256,216.958 109.290 M186.067 115.917 C 186.067 117.292,186.093 117.832,186.124 117.117 C 186.155 116.403,186.155 115.278,186.124 114.617 C 186.092 113.957,186.066 114.542,186.067 115.917 M158.205 115.667 C 158.205 115.987,158.240 116.119,158.282 115.958 C 158.323 115.798,158.323 115.535,158.282 115.375 C 158.240 115.215,158.205 115.346,158.205 115.667 M138.121 115.787 C 138.417 115.824,138.942 115.824,139.288 115.788 C 139.634 115.752,139.392 115.722,138.750 115.721 C 138.108 115.721,137.825 115.750,138.121 115.787 M223.875 116.455 C 224.219 116.491,224.781 116.491,225.125 116.455 C 225.469 116.419,225.188 116.389,224.500 116.389 C 223.813 116.389,223.531 116.419,223.875 116.455 M150.500 117.708 C 150.500 117.777,151.381 117.821,152.458 117.805 C 154.488 117.776,154.256 117.706,151.875 117.628 C 151.118 117.604,150.499 117.640,150.500 117.708 M143.217 117.791 C 144.116 117.821,145.541 117.821,146.384 117.791 C 147.227 117.761,146.492 117.736,144.750 117.736 C 143.008 117.736,142.318 117.761,143.217 117.791 M142.375 119.956 C 142.810 119.990,143.523 119.990,143.958 119.956 C 144.394 119.922,144.037 119.893,143.167 119.893 C 142.296 119.893,141.940 119.922,142.375 119.956 M158.324 123.458 L 157.750 124.083 158.375 123.509 C 158.719 123.193,159.000 122.912,159.000 122.884 C 159.000 122.757,158.859 122.877,158.324 123.458 " stroke="none" fill="#93d49c" fill-rule="evenodd"></path><path id="path4" d="M142.375 104.956 C 142.810 104.990,143.523 104.990,143.958 104.956 C 144.394 104.922,144.037 104.893,143.167 104.893 C 142.296 104.893,141.940 104.922,142.375 104.956 M219.387 108.167 C 219.387 108.763,219.417 109.006,219.454 108.708 C 219.491 108.410,219.491 107.923,219.454 107.625 C 219.417 107.327,219.387 107.571,219.387 108.167 " stroke="none" fill="#6cc977" fill-rule="evenodd"></path></g></svg>