<?xml version="1.0" encoding="UTF-8"?>
<svg version="1.1" xmlns="http://www.w3.org/2000/svg" width="500" height="500">
<path d="M0 0 C0 0.66 0 1.32 0 2 C0.886875 2.103125 1.77375 2.20625 2.6875 2.3125 C6.09963573 3.02067911 8.06595196 4.19443197 11 6 C12.66519519 6.34060811 14.33157466 6.67558396 16 7 C16.33 7.66 16.66 8.32 17 9 C17.99 9.33 18.98 9.66 20 10 C20 10.66 20 11.32 20 12 C20.99 12.12375 20.99 12.12375 22 12.25 C25.99039163 13.24759791 29.38549643 15.07166683 33 17 C33 17.66 33 18.32 33 19 C35.31 19.33 37.62 19.66 40 20 C40 20.66 40 21.32 40 22 C41.09707275 22.18332886 41.09707275 22.18332886 42.21630859 22.37036133 C46.71518688 23.38795536 50.55153785 25.57362002 54.625 27.6875 C55.91277344 28.32075195 55.91277344 28.32075195 57.2265625 28.96679688 C60.96108147 30.901161 63.54748814 32.41667108 66.1484375 35.76953125 C68.22314467 43.64009468 65.61258654 49.71490614 61.6875 56.5 C60.86789402 57.98202504 60.0501636 59.46508899 59.234375 60.94921875 C58.84572266 61.64837402 58.45707031 62.3475293 58.05664062 63.06787109 C55.37100297 67.97871592 53 72.31595834 53 78 C52.01 78.33 51.02 78.66 50 79 C48.52267408 81.58897711 47.20520583 84.12421101 45.9375 86.8125 C45.58623047 87.53759766 45.23496094 88.26269531 44.87304688 89.00976562 C44.21537018 90.3686326 43.56182836 91.72951432 42.91381836 93.09301758 C42.28082833 94.41395937 41.60072726 95.71295581 40.88500977 96.9909668 C39.73124425 99.2442064 39.73124425 99.2442064 40 103 C39.01 103 38.02 103 37 103 C36.5978125 104.299375 36.5978125 104.299375 36.1875 105.625 C35.02242121 108.93627656 33.59311481 111.87489709 32 115 C31.47921875 116.0415625 30.9584375 117.083125 30.421875 118.15625 C29.55880533 119.88238935 28.6956836 121.60850282 27.83178711 123.33422852 C26.30490932 126.38522302 24.78300032 129.43840793 23.26953125 132.49609375 C19.85474679 139.38036174 16.34278137 146.19226667 12.66430664 152.93920898 C10.88304667 156.23091251 9.33850035 159.50669416 8 163 C7.01517978 165.00751815 6.01847486 167.00934459 5 169 C4.34 169 3.68 169 3 169 C2.86271484 170.25683594 2.86271484 170.25683594 2.72265625 171.5390625 C1.89195787 175.5174342 0.31535657 178.8126503 -1.5625 182.375 C-1.89185547 183.01566406 -2.22121094 183.65632812 -2.56054688 184.31640625 C-3.36639482 185.88138632 -4.18218493 187.44124021 -5 189 C-5.66 189 -6.32 189 -7 189 C-7.07734375 189.82113281 -7.1546875 190.64226562 -7.234375 191.48828125 C-8.19420896 195.89078499 -10.06476624 199.28043381 -12.25 203.1875 C-15.79038029 209.67784534 -19.07839737 216.20250242 -22 223 C-22.66 223 -23.32 223 -24 223 C-24.10183594 223.86238281 -24.20367187 224.72476563 -24.30859375 225.61328125 C-25.05284306 229.25884144 -26.30900494 231.91679646 -28.0625 235.1875 C-30.40531715 239.36821493 -30.40531715 239.36821493 -31 244 C-31.66 244 -32.32 244 -33 244 C-33.6509259 245.24735567 -34.29551669 246.49801832 -34.9375 247.75 C-35.29714844 248.44609375 -35.65679687 249.1421875 -36.02734375 249.859375 C-37.0779323 251.95670231 -37.0779323 251.95670231 -37.44140625 254.203125 C-37.62574219 254.79609375 -37.81007813 255.3890625 -38 256 C-38.99 256.33 -39.98 256.66 -41 257 C-41.33 258.98 -41.66 260.96 -42 263 C-42.66 263 -43.32 263 -44 263 C-44.0928125 264.2065625 -44.0928125 264.2065625 -44.1875 265.4375 C-45.42903013 270.8811321 -48.02793474 276.02793474 -52 280 C-52.99 280 -53.98 280 -55 280 C-55 280.66 -55 281.32 -55 282 C-61.56318821 282.45567488 -65.48181099 281.28087392 -71.1875 278.125 C-72.55512061 277.39680314 -73.923591 276.67019966 -75.29296875 275.9453125 C-75.9276709 275.60532227 -76.56237305 275.26533203 -77.21630859 274.91503906 C-79.42096252 273.78404496 -81.67635557 272.85726688 -84 272 C-84 271.34 -84 270.68 -84 270 C-84.721875 269.88527344 -85.44375 269.77054687 -86.1875 269.65234375 C-89.11175894 268.97407813 -91.34991509 267.95793534 -94 266.5625 C-97.28083072 264.84519017 -100.54158108 263.32778584 -104 262 C-104 261.34 -104 260.68 -104 260 C-104.886875 259.896875 -105.77375 259.79375 -106.6875 259.6875 C-110.18623346 258.96134777 -111.97759555 257.86190316 -115 256 C-116.23983585 255.33315062 -117.4850494 254.67624017 -118.734375 254.02734375 C-119.39050781 253.68509766 -120.04664063 253.34285156 -120.72265625 252.99023438 C-122.08812703 252.28118934 -123.45535697 251.57552302 -124.82421875 250.87304688 C-129.89014818 248.21970364 -129.89014818 248.21970364 -131 246 C-131.12327929 243.89851818 -131.17558006 241.79256093 -131.1875 239.6875 C-131.20876953 237.99173828 -131.20876953 237.99173828 -131.23046875 236.26171875 C-131.00480137 233.06795157 -130.36342654 230.8723571 -129 228 C-128.34 228 -127.68 228 -127 228 C-126.9175 227.175 -126.835 226.35 -126.75 225.5 C-125.83552731 221.23246079 -124.07776822 217.80763106 -122 214 C-121.34 214 -120.68 214 -120 214 C-119.9278125 213.18917969 -119.855625 212.37835938 -119.78125 211.54296875 C-118.77322299 206.97156624 -116.76554225 203.37714932 -114.5 199.3125 C-113.67515617 197.80964987 -112.85216036 196.30578358 -112.03125 194.80078125 C-111.66580078 194.14247314 -111.30035156 193.48416504 -110.92382812 192.8059082 C-109.86687959 190.85151695 -109.86687959 190.85151695 -109 188 C-108.34 188 -107.68 188 -107 188 C-106.855625 187.236875 -106.71125 186.47375 -106.5625 185.6875 C-106 183 -106 183 -105 180 C-104.34 180 -103.68 180 -103 180 C-102.505 177.03 -102.505 177.03 -102 174 C-101.34 174 -100.68 174 -100 174 C-99.505 171.03 -99.505 171.03 -99 168 C-98.34 168 -97.68 168 -97 168 C-97.33 167.01 -97.66 166.02 -98 165 C-97.34 165 -96.68 165 -96 165 C-95.67 163.35 -95.34 161.7 -95 160 C-94.34 160 -93.68 160 -93 160 C-92.505 157.03 -92.505 157.03 -92 154 C-91.34 154 -90.68 154 -90 154 C-89.87238281 153.278125 -89.74476562 152.55625 -89.61328125 151.8125 C-88.11793942 144.95488141 -85.43176854 139.40121791 -81 134 C-78.71313158 129.46799433 -76.83163251 124.73171733 -75 120 C-74.34 120 -73.68 120 -73 120 C-73 117.69 -73 115.38 -73 113 C-72.34 113 -71.68 113 -71 113 C-70.01 110.69 -69.02 108.38 -68 106 C-67.34 106 -66.68 106 -66 106 C-65.67 104.02 -65.34 102.04 -65 100 C-64.34 100 -63.68 100 -63 100 C-62.896875 99.30132812 -62.79375 98.60265625 -62.6875 97.8828125 C-61.89423794 94.55652045 -60.5794714 91.90485138 -59 88.875 C-57.4616925 85.90932064 -56.05677648 83.17032944 -55 80 C-54.34 80 -53.68 80 -53 80 C-52.9175 79.360625 -52.835 78.72125 -52.75 78.0625 C-51.70479628 73.79458483 -49.85908174 69.96892333 -48 66 C-47.34 66 -46.68 66 -46 66 C-45.86271484 64.97132813 -45.86271484 64.97132813 -45.72265625 63.921875 C-44.84076584 60.35617757 -43.22389095 57.42262358 -41.4375 54.25 C-38.28370704 48.50215628 -35.34414903 42.68707617 -32.5625 36.75 C-32.22081787 36.02329102 -31.87913574 35.29658203 -31.52709961 34.54785156 C-30.21255912 31.72434554 -28.9857591 28.9572773 -28 26 C-27.34 26 -26.68 26 -26 26 C-25.814375 24.948125 -25.814375 24.948125 -25.625 23.875 C-23.87885628 15.8427389 -23.87885628 15.8427389 -21.57421875 13.6328125 C-19.62159516 11.60751061 -18.8027177 9.57534809 -17.6875 7 C-16.06822724 3.70859987 -15.1653399 2.13152038 -12.25 -0.1875 C-7.94862844 -1.26284289 -4.32001641 -0.79680303 0 0 Z " fill="#DC11F4" transform="translate(181,109)"/>
<path d="M0 0 C1.17366875 -0.01511375 1.17366875 -0.01511375 2.37104797 -0.03053284 C4.9605636 -0.05905575 7.54949717 -0.06489161 10.13916016 -0.06811523 C11.93893678 -0.07775386 13.73871102 -0.08784615 15.53848267 -0.09837341 C19.31298267 -0.11634596 23.08727662 -0.12189335 26.86181641 -0.12011719 C31.69666844 -0.11981239 36.53019797 -0.16075779 41.36473656 -0.21243382 C45.0828558 -0.24580611 48.80065577 -0.25187451 52.51890945 -0.25028801 C54.30111879 -0.253827 56.08333649 -0.26709069 57.86539841 -0.29028511 C60.36042311 -0.31971679 62.85258448 -0.31104817 65.34765625 -0.29296875 C66.08237656 -0.30982727 66.81709686 -0.32668579 67.57408142 -0.34405518 C71.40735025 -0.27354368 73.09833595 0.25496603 75.99331188 2.80995846 C79.39094718 7.1941451 78.98766373 11.85219314 78.91795349 17.19082642 C78.92363675 18.27527208 78.92932 19.35971774 78.93517548 20.47702539 C78.94809663 24.11161992 78.92527137 27.74510487 78.90258789 31.37963867 C78.90445159 33.98484023 78.90848746 36.590041 78.91453552 39.19523621 C78.92520145 45.53660755 78.90927022 51.87764652 78.88439726 58.21896721 C78.85645902 65.6028348 78.85512424 72.98663519 78.85495425 80.37054686 C78.85376717 93.54340773 78.82880144 106.71611596 78.7902832 119.88891602 C78.75292353 132.67376537 78.73168657 145.45850373 78.72875977 158.2434082 C78.72857695 159.03112408 78.72839414 159.81883995 78.72820579 160.630426 C78.72802682 161.41677554 78.72784785 162.20312508 78.72766346 163.0133034 C78.72729804 164.59653894 78.72692567 166.17977448 78.72654629 167.76301003 C78.72636077 168.54379059 78.72617526 169.32457115 78.72598412 170.12901173 C78.72241478 182.31077823 78.70396534 194.49252757 78.68405304 206.67427666 C78.67702926 211.0905839 78.67224725 215.50688709 78.66909169 219.92319871 C78.66357315 227.58109953 78.64791782 235.23888192 78.62090492 242.89673805 C78.61344892 245.44289573 78.60939197 247.9890659 78.60892487 250.53523445 C78.60767208 254.0018336 78.59416526 257.46816929 78.57737732 260.9347229 C78.5797924 261.95008011 78.58220749 262.96543733 78.58469576 264.01156294 C78.57409737 265.40260869 78.57409737 265.40260869 78.56328487 266.82175636 C78.56133395 267.62199215 78.55938303 268.42222793 78.55737299 269.24671328 C78.27445478 271.68357793 77.51838342 273.32152913 76.30322266 275.43579102 C75.64322266 275.43579102 74.98322266 275.43579102 74.30322266 275.43579102 C74.30322266 276.09579102 74.30322266 276.75579102 74.30322266 277.43579102 C70.77952629 278.61035647 67.60722739 278.57571698 63.94189453 278.56518555 C63.1952504 278.56693787 62.44860626 278.56869019 61.67933655 278.57049561 C59.21019164 278.57489843 56.7411183 278.57198164 54.27197266 278.56860352 C52.55708808 278.56927701 50.84220359 278.57024741 49.12731934 278.57150269 C45.53278698 278.57297753 41.93827947 278.57083193 38.34375 278.56616211 C33.73342664 278.56046495 29.12316149 278.56374509 24.51284027 278.56973457 C20.97157349 278.57334592 17.43032054 278.57219895 13.88905334 278.56960678 C12.18896986 278.5689391 10.48888513 278.56976039 8.7888031 278.57208633 C6.41401843 278.57462223 4.03932839 278.57075898 1.66455078 278.56518555 C0.96004288 278.56720978 0.25553497 278.56923401 -0.47032166 278.57131958 C-3.49590725 278.55814696 -5.80077597 278.40112481 -8.69677734 277.43579102 C-8.69677734 276.77579102 -8.69677734 276.11579102 -8.69677734 275.43579102 C-9.68677734 275.10579102 -10.67677734 274.77579102 -11.69677734 274.43579102 C-14.56301364 269.76024188 -13.97762446 264.29873706 -13.95747375 259.00428772 C-13.9612993 257.94252538 -13.96512485 256.88076303 -13.96906632 255.78682607 C-13.97939857 252.22323106 -13.97540369 248.6597971 -13.97143555 245.09619141 C-13.97578187 242.5436437 -13.98096475 239.99109731 -13.98692322 237.43855286 C-13.99893932 231.22148059 -14.00146363 225.00446787 -13.99912295 218.78738625 C-13.99733996 213.73415732 -13.99908903 208.68094151 -14.0033474 203.62771416 C-14.00424018 202.54893795 -14.00424018 202.54893795 -14.005151 201.44836829 C-14.00636275 199.98735035 -14.00757688 198.5263324 -14.00879338 197.06531446 C-14.01966974 183.36396682 -14.01750592 169.66264379 -14.01140853 155.96129476 C-14.00623883 143.42704021 -14.01749603 130.89286335 -14.03650675 118.35862417 C-14.05587861 105.4875883 -14.06414233 92.6165892 -14.0603835 79.74553865 C-14.05847052 72.51976142 -14.06096844 65.29405033 -14.07509804 58.06828499 C-14.08824835 51.2745809 -14.08576071 44.48105773 -14.07268715 37.6873455 C-14.07031531 35.19200972 -14.07307766 32.69666306 -14.08131027 30.20133972 C-14.09172774 26.79880342 -14.08371682 23.39679498 -14.07099915 19.99427795 C-14.07837343 19.00351904 -14.08574772 18.01276013 -14.09334546 16.99197823 C-14.044351 10.77434074 -12.92828353 6.85349573 -9.49032593 1.58802795 C-6.55457847 -0.2979966 -3.38031384 -0.0062208 0 0 Z " fill="#6E02CC" transform="translate(371.69677734375,110.564208984375)"/>
<path d="M0 0 C1.14311646 0.05837036 1.14311646 0.05837036 2.30932617 0.11791992 C3.10556396 0.13943115 3.90180176 0.16094238 4.72216797 0.18310547 C11.98373439 0.47752277 18.84797054 1.84738524 25.87182617 3.68041992 C33.82067707 5.62241463 41.66061525 7.13345668 49.77416992 8.21166992 C53.29388854 8.74428812 56.4745394 9.64043417 59.87182617 10.68041992 C62.19970544 11.04992457 64.53227762 11.39394459 66.87182617 11.68041992 C66.87182617 12.34041992 66.87182617 13.00041992 66.87182617 13.68041992 C67.48670898 13.70620117 68.1015918 13.73198242 68.73510742 13.75854492 C75.3046179 14.2195632 75.3046179 14.2195632 77.87182617 16.30541992 C80.15012491 21.71637943 79.9568937 26.78051383 78.91088867 32.45385742 C78.57444336 34.30817383 78.57444336 34.30817383 78.23120117 36.19995117 C77.98885742 37.47225586 77.74651367 38.74456055 77.49682617 40.05541992 C77.2622168 41.35092773 77.02760742 42.64643555 76.78588867 43.98120117 C75.0224556 53.5297905 75.0224556 53.5297905 73.87182617 54.68041992 C73.51885387 56.67367525 73.21507743 58.67571671 72.93432617 60.68041992 C72.3482992 64.6776487 71.72179247 68.61955784 70.80932617 72.55541992 C68.84845079 80.11878796 68.84845079 80.11878796 69.87182617 87.68041992 C69.21182617 87.68041992 68.55182617 87.68041992 67.87182617 87.68041992 C65.55904689 98.31246837 63.34361053 108.89378985 61.87182617 119.68041992 C61.21182617 119.68041992 60.55182617 119.68041992 59.87182617 119.68041992 C59.84604492 120.44741211 59.82026367 121.2144043 59.79370117 122.00463867 C59.39447386 129.8167912 58.33948424 137.31518463 56.87182617 144.99291992 C56.69361328 145.93031006 56.51540039 146.8677002 56.33178711 147.83349609 C55.00747917 154.54476692 55.00747917 154.54476692 53.87182617 155.68041992 C53.59951634 157.05779023 53.38142986 158.44599514 53.18823242 159.83666992 C53.06512695 160.69518555 52.94202148 161.55370117 52.81518555 162.43823242 C52.68950195 163.3431543 52.56381836 164.24807617 52.43432617 165.18041992 C50.29575859 180.52379366 50.29575859 180.52379366 47.80932617 187.78198242 C46.70197119 191.2055549 46.28431851 194.48294163 45.87182617 198.05541992 C44.89275917 206.07930138 44.89275917 206.07930138 43.87182617 209.86791992 C42.71111609 214.29312709 42.02117448 218.71902076 41.33666992 223.23901367 C40.87182617 225.68041992 40.87182617 225.68041992 39.87182617 226.68041992 C39.51934188 229.05598633 39.20965897 231.42071935 38.93432617 233.80541992 C38.3261053 238.9676307 37.35576224 243.70205376 35.87182617 248.68041992 C35.53322658 251.01299487 35.19862228 253.34616204 34.87182617 255.68041992 C34.54182617 256.01041992 34.21182617 256.34041992 33.87182617 256.68041992 C33.61175957 258.10539143 33.40526029 259.54024894 33.22338867 260.97729492 C33.10479492 261.85385742 32.98620117 262.73041992 32.86401367 263.63354492 C32.62136981 265.48176839 32.38428723 267.33073144 32.15307617 269.18041992 C30.95185757 277.92120212 30.95185757 277.92120212 27.87182617 281.68041992 C27.21182617 281.68041992 26.55182617 281.68041992 25.87182617 281.68041992 C25.87182617 282.34041992 25.87182617 283.00041992 25.87182617 283.68041992 C23.34070053 284.94598274 21.51185806 284.8484197 18.68432617 284.86791992 C17.76264648 284.88209961 16.8409668 284.8962793 15.89135742 284.91088867 C12.34893277 284.64050956 9.27863577 283.67896756 5.87182617 282.68041992 C3.27565724 282.23513919 0.67054743 281.83917359 -1.94067383 281.49291992 C-3.24649414 281.31374023 -4.55231445 281.13456055 -5.89770508 280.94995117 C-9.0163183 280.40781198 -9.0163183 280.40781198 -11.12817383 281.68041992 C-11.12817383 281.02041992 -11.12817383 280.36041992 -11.12817383 279.68041992 C-11.95381836 279.5334668 -11.95381836 279.5334668 -12.79614258 279.38354492 C-19.49555695 278.178689 -26.18788011 276.93481363 -32.87817383 275.68041992 C-33.77689209 275.51445312 -34.67561035 275.34848633 -35.6015625 275.17749023 C-40.54058879 274.2461336 -45.32044863 273.14604023 -50.12817383 271.68041992 C-51.20067383 271.37104492 -52.27317383 271.06166992 -53.37817383 270.74291992 C-56.09087979 269.69482898 -57.3887446 268.96914259 -59.12817383 266.68041992 C-60.30116685 263.16144086 -60.05558866 260.74161156 -59.75317383 257.05541992 C-59.66293945 255.8875293 -59.57270508 254.71963867 -59.47973633 253.51635742 C-59.12817383 250.68041992 -59.12817383 250.68041992 -58.12817383 249.68041992 C-57.85538128 248.2062587 -57.63752761 246.72182808 -57.44458008 245.23510742 C-57.32147461 244.32245117 -57.19836914 243.40979492 -57.0715332 242.46948242 C-56.8207043 240.55031974 -56.57068366 238.63105122 -56.3215332 236.71166992 C-55.61967772 231.51866668 -54.57594285 226.72357105 -53.12817383 221.68041992 C-52.21745976 217.06897312 -51.42517697 212.43769879 -50.62817383 207.80541992 C-48.17833122 193.65572294 -48.17833122 193.65572294 -46.61499023 186.87915039 C-45.43513683 181.55028391 -44.51746869 176.16277233 -43.5402832 170.79370117 C-43.37206055 169.89006836 -43.20383789 168.98643555 -43.03051758 168.05541992 C-42.88090576 167.2381543 -42.73129395 166.42088867 -42.57714844 165.57885742 C-42.12817383 163.68041992 -42.12817383 163.68041992 -41.12817383 162.68041992 C-40.855864 161.30304961 -40.63777752 159.91484471 -40.44458008 158.52416992 C-40.32147461 157.6656543 -40.19836914 156.80713867 -40.0715332 155.92260742 C-39.94584961 155.01768555 -39.82016602 154.11276367 -39.69067383 153.18041992 C-38.5983958 145.34375855 -37.31191164 137.68423899 -35.06567383 130.08666992 C-34.06293897 126.44339992 -33.56224933 122.93207251 -33.12817383 119.18041992 C-32.54472926 114.1377919 -31.55437291 109.5472549 -30.12817383 104.68041992 C-29.74090722 102.58209298 -29.38468793 100.47770223 -29.06567383 98.36791992 C-28.23448013 92.89303253 -28.23448013 92.89303253 -27.12817383 90.68041992 C-26.78403817 88.47679495 -26.4772198 86.26727068 -26.19067383 84.05541992 C-25.31305165 77.69103391 -24.10626084 71.7651559 -22.16333008 65.63745117 C-20.77332074 60.78014793 -20.21467638 55.80514328 -19.56567383 50.80541992 C-19.31816899 48.91169059 -19.06706743 47.01842664 -18.81176758 45.12573242 C-18.70405029 44.2957373 -18.59633301 43.46574219 -18.48535156 42.6105957 C-18.12817383 40.68041992 -18.12817383 40.68041992 -17.12817383 39.68041992 C-16.73151156 37.50022513 -16.38502146 35.31077363 -16.06567383 33.11791992 C-15.88907227 31.92038086 -15.7124707 30.7228418 -15.53051758 29.48901367 C-15.39774414 28.56217773 -15.2649707 27.6353418 -15.12817383 26.68041992 C-14.46817383 26.68041992 -13.80817383 26.68041992 -13.12817383 26.68041992 C-13.16942383 25.42229492 -13.21067383 24.16416992 -13.25317383 22.86791992 C-13.22012595 15.88380258 -12.82346147 9.4006153 -9.07348633 3.38354492 C-5.89843241 0.46956971 -4.2632287 -0.02134223 0 0 Z " fill="#A024E2" transform="translate(272.128173828125,107.319580078125)"/>
<path d="M0 0 C1.17366875 -0.01511375 1.17366875 -0.01511375 2.37104797 -0.03053284 C4.9605636 -0.05905575 7.54949717 -0.06489161 10.13916016 -0.06811523 C11.93893678 -0.07775386 13.73871102 -0.08784615 15.53848267 -0.09837341 C19.31298267 -0.11634596 23.08727662 -0.12189335 26.86181641 -0.12011719 C31.69666844 -0.11981239 36.53019797 -0.16075779 41.36473656 -0.21243382 C45.0828558 -0.24580611 48.80065577 -0.25187451 52.51890945 -0.25028801 C54.30111879 -0.253827 56.08333649 -0.26709069 57.86539841 -0.29028511 C60.36042311 -0.31971679 62.85258448 -0.31104817 65.34765625 -0.29296875 C66.08237656 -0.30982727 66.81709686 -0.32668579 67.57408142 -0.34405518 C71.40735025 -0.27354368 73.09833595 0.25496603 75.99331188 2.80995846 C79.39094718 7.1941451 78.98766373 11.85219314 78.91795349 17.19082642 C78.92363675 18.27527208 78.92932 19.35971774 78.93517548 20.47702539 C78.94809663 24.11161992 78.92527137 27.74510487 78.90258789 31.37963867 C78.90445159 33.98484023 78.90848746 36.590041 78.91453552 39.19523621 C78.92520145 45.53660755 78.90927022 51.87764652 78.88439726 58.21896721 C78.85645902 65.6028348 78.85512424 72.98663519 78.85495425 80.37054686 C78.85376717 93.54340773 78.82880144 106.71611596 78.7902832 119.88891602 C78.75292353 132.67376537 78.73168657 145.45850373 78.72875977 158.2434082 C78.72857695 159.03112408 78.72839414 159.81883995 78.72820579 160.630426 C78.72802682 161.41677554 78.72784785 162.20312508 78.72766346 163.0133034 C78.72729804 164.59653894 78.72692567 166.17977448 78.72654629 167.76301003 C78.72636077 168.54379059 78.72617526 169.32457115 78.72598412 170.12901173 C78.72241478 182.31077823 78.70396534 194.49252757 78.68405304 206.67427666 C78.67702926 211.0905839 78.67224725 215.50688709 78.66909169 219.92319871 C78.66357315 227.58109953 78.64791782 235.23888192 78.62090492 242.89673805 C78.61344892 245.44289573 78.60939197 247.9890659 78.60892487 250.53523445 C78.60767208 254.0018336 78.59416526 257.46816929 78.57737732 260.9347229 C78.5797924 261.95008011 78.58220749 262.96543733 78.58469576 264.01156294 C78.57409737 265.40260869 78.57409737 265.40260869 78.56328487 266.82175636 C78.56133395 267.62199215 78.55938303 268.42222793 78.55737299 269.24671328 C78.27445478 271.68357793 77.51838342 273.32152913 76.30322266 275.43579102 C75.64322266 275.43579102 74.98322266 275.43579102 74.30322266 275.43579102 C74.30322266 276.09579102 74.30322266 276.75579102 74.30322266 277.43579102 C70.77952629 278.61035647 67.60722739 278.57571698 63.94189453 278.56518555 C63.1952504 278.56693787 62.44860626 278.56869019 61.67933655 278.57049561 C59.21019164 278.57489843 56.7411183 278.57198164 54.27197266 278.56860352 C52.55708808 278.56927701 50.84220359 278.57024741 49.12731934 278.57150269 C45.53278698 278.57297753 41.93827947 278.57083193 38.34375 278.56616211 C33.73342664 278.56046495 29.12316149 278.56374509 24.51284027 278.56973457 C20.97157349 278.57334592 17.43032054 278.57219895 13.88905334 278.56960678 C12.18896986 278.5689391 10.48888513 278.56976039 8.7888031 278.57208633 C6.41401843 278.57462223 4.03932839 278.57075898 1.66455078 278.56518555 C0.96004288 278.56720978 0.25553497 278.56923401 -0.47032166 278.57131958 C-3.49590725 278.55814696 -5.80077597 278.40112481 -8.69677734 277.43579102 C-8.69677734 276.77579102 -8.69677734 276.11579102 -8.69677734 275.43579102 C-9.68677734 275.10579102 -10.67677734 274.77579102 -11.69677734 274.43579102 C-14.56301364 269.76024188 -13.97762446 264.29873706 -13.95747375 259.00428772 C-13.9612993 257.94252538 -13.96512485 256.88076303 -13.96906632 255.78682607 C-13.97939857 252.22323106 -13.97540369 248.6597971 -13.97143555 245.09619141 C-13.97578187 242.5436437 -13.98096475 239.99109731 -13.98692322 237.43855286 C-13.99893932 231.22148059 -14.00146363 225.00446787 -13.99912295 218.78738625 C-13.99733996 213.73415732 -13.99908903 208.68094151 -14.0033474 203.62771416 C-14.00424018 202.54893795 -14.00424018 202.54893795 -14.005151 201.44836829 C-14.00636275 199.98735035 -14.00757688 198.5263324 -14.00879338 197.06531446 C-14.01966974 183.36396682 -14.01750592 169.66264379 -14.01140853 155.96129476 C-14.00623883 143.42704021 -14.01749603 130.89286335 -14.03650675 118.35862417 C-14.05587861 105.4875883 -14.06414233 92.6165892 -14.0603835 79.74553865 C-14.05847052 72.51976142 -14.06096844 65.29405033 -14.07509804 58.06828499 C-14.08824835 51.2745809 -14.08576071 44.48105773 -14.07268715 37.6873455 C-14.07031531 35.19200972 -14.07307766 32.69666306 -14.08131027 30.20133972 C-14.09172774 26.79880342 -14.08371682 23.39679498 -14.07099915 19.99427795 C-14.07837343 19.00351904 -14.08574772 18.01276013 -14.09334546 16.99197823 C-14.044351 10.77434074 -12.92828353 6.85349573 -9.49032593 1.58802795 C-6.55457847 -0.2979966 -3.38031384 -0.0062208 0 0 Z M-8.60682678 3.70806885 C-10.65315779 6.95178611 -10.82205164 10.22855239 -10.8254118 13.99294281 C-10.82863624 14.90760645 -10.83186069 15.8222701 -10.83518285 16.76465082 C-10.83363424 17.76580848 -10.83208564 18.76696614 -10.83049011 19.79846191 C-10.83275567 20.86486452 -10.83502123 21.93126712 -10.83735543 23.02998495 C-10.84370233 26.61513434 -10.84286563 30.20024599 -10.84204102 33.78540039 C-10.84503203 36.3508967 -10.84843442 38.91639256 -10.85221863 41.48188782 C-10.86014791 47.73383917 -10.86327347 53.98577662 -10.86383101 60.23773253 C-10.86430605 65.31817295 -10.86636019 70.39861025 -10.86953163 75.47904968 C-10.87833758 89.87825093 -10.88295098 104.27744472 -10.88220116 118.67664868 C-10.8821612 119.45294202 -10.88212125 120.22923535 -10.88208008 121.02905273 C-10.8820392 121.80629194 -10.88199832 122.58353115 -10.8819562 123.38432306 C-10.88154952 135.98787265 -10.89112465 148.5913924 -10.90521844 161.19493335 C-10.91957068 174.1314634 -10.9264893 187.06797887 -10.92562467 200.00451708 C-10.92529235 207.2693562 -10.92805488 214.53416401 -10.93880272 221.79899597 C-10.9488409 228.62793975 -10.94858422 235.45680629 -10.94128609 242.28575706 C-10.94023646 244.79644555 -10.94262538 247.30713811 -10.94864655 249.8178196 C-10.95631594 253.23633217 -10.95175526 256.65461286 -10.9440155 260.07312012 C-10.94915907 261.07427778 -10.95430263 262.07543544 -10.95960206 263.10693121 C-10.95500326 264.02159485 -10.95040447 264.9362585 -10.94566631 265.87863922 C-10.94588368 266.6678081 -10.94610105 267.45697698 -10.946325 268.27006006 C-10.66158884 270.74117886 -10.01159062 272.33186812 -8.69677734 274.43579102 C-4.68669023 276.71594153 -0.95906396 276.68896884 3.58447266 276.69458008 C4.29893555 276.69808472 5.01339844 276.70158936 5.74951172 276.7052002 C8.10084882 276.71397102 10.45188272 276.70818493 12.80322266 276.70141602 C14.4431972 276.702764 16.08317135 276.70470566 17.72314453 276.70721436 C21.15612604 276.71015932 24.58900329 276.7058882 28.02197266 276.6965332 C32.41687316 276.68513902 36.81152935 276.69170185 41.2064209 276.70367813 C44.59165275 276.7109137 47.97682693 276.70860101 51.36206055 276.70342255 C52.98234079 276.70209075 54.60262631 276.7037173 56.22290039 276.70838165 C58.48939844 276.71347482 60.75550377 276.70569774 63.02197266 276.69458008 C64.31039062 276.69298889 65.59880859 276.69139771 66.92626953 276.6897583 C70.2259423 276.44160297 72.44989749 276.10631836 75.30322266 274.43579102 C76.30477356 271.56070567 76.42917665 268.87345117 76.43185711 265.84740448 C76.43669378 264.46495883 76.43669378 264.46495883 76.44162816 263.05458498 C76.44007956 262.04564542 76.43853095 261.03670587 76.43693542 259.99719238 C76.44033376 258.38533782 76.44033376 258.38533782 76.44380075 256.74092054 C76.4501479 253.12813217 76.44931093 249.51538124 76.44848633 245.90258789 C76.45147733 243.3173874 76.45487972 240.73218736 76.45866394 238.14698792 C76.46697113 231.8469113 76.46971879 225.54684403 76.47027632 219.24676239 C76.47075135 214.12722969 76.47280546 209.00770007 76.47597694 203.88816833 C76.48478293 189.37829204 76.48939629 174.86842315 76.48864647 160.35854417 C76.48858654 159.18514318 76.48858654 159.18514318 76.48852539 157.98803711 C76.48846407 156.81320645 76.48846407 156.81320645 76.48840151 155.61464185 C76.48799483 142.91409445 76.49756996 130.21357668 76.51166376 117.51303786 C76.52601588 104.47706674 76.53293462 91.44111008 76.53206998 78.40513086 C76.53173766 71.08440049 76.53450038 63.76370118 76.54524803 56.44297791 C76.55528602 49.56150669 76.55502965 42.68010225 76.5477314 35.79862785 C76.54668175 33.26858868 76.54907083 30.73854548 76.55509186 28.20851326 C76.56276094 24.76372692 76.55820078 21.31917071 76.55046082 17.87438965 C76.55560438 16.86545009 76.56074794 15.85651053 76.56604737 14.81699705 C76.56144857 13.89536662 76.55684978 12.97373618 76.55211163 12.02417755 C76.55232899 11.22893315 76.55254636 10.43368875 76.55277032 9.61434603 C76.26943765 7.14084735 75.61876064 5.54138072 74.30322266 3.43579102 C71.28993163 1.9291455 68.1774759 2.27974244 64.87182617 2.2746582 C64.10582092 2.2696933 63.33981567 2.26472839 62.55059814 2.25961304 C60.01109934 2.24498164 57.47166297 2.23818834 54.93212891 2.23266602 C53.17097471 2.22691604 51.40982053 2.22115828 49.64866638 2.21539307 C45.95400704 2.20488076 42.25936947 2.19903938 38.56469727 2.19555664 C33.82532443 2.19006678 29.08623815 2.16602935 24.3469553 2.13758469 C20.70874687 2.1189834 17.07060786 2.11375409 13.43235588 2.11222076 C11.68480802 2.10918878 9.93726155 2.10114195 8.18976021 2.08803558 C5.74762113 2.07102471 3.30618757 2.07284272 0.86401367 2.0793457 C0.13923325 2.07013092 -0.58554718 2.06091614 -1.33229065 2.05142212 C-4.17747204 2.07521551 -6.20023218 2.10504387 -8.60682678 3.70806885 Z " fill="#CFA5EC" transform="translate(371.69677734375,110.564208984375)"/>
<path d="M0 0 C0.66 0 1.32 0 2 0 C1.99962028 0.55709711 1.99924056 1.11419422 1.99884933 1.68817306 C1.97648244 34.68940006 1.9593191 67.69062516 1.94893467 100.69185804 C1.94768393 104.65231943 1.94638961 108.61278081 1.94506836 112.57324219 C1.94480605 113.36171525 1.94454374 114.1501883 1.94427348 114.96255448 C1.93991944 127.73771088 1.93203335 140.51286279 1.9228472 153.28801653 C1.91350328 166.39165936 1.90794282 179.49529983 1.90591151 192.59894586 C1.90453782 200.68781294 1.90019553 208.77666734 1.89208353 216.86553052 C1.88618418 223.06288551 1.88554292 229.26023078 1.88689232 235.4575882 C1.88661635 238.00374937 1.88461596 240.54991101 1.88079453 243.09606934 C1.87584486 246.5629045 1.87700649 250.02968465 1.87974548 253.496521 C1.87683264 254.51207998 1.8739198 255.52763896 1.87091869 256.57397246 C1.87290974 257.50155309 1.87490079 258.42913372 1.87695217 259.38482285 C1.87657245 260.1852733 1.87619273 260.98572376 1.8758015 261.81043029 C1.99962738 263.99343088 2.39684295 265.90307868 3 268 C7.25539882 269.03990671 11.37398903 269.13552919 15.7277832 269.11352539 C16.48929184 269.11367142 17.25080048 269.11381744 18.03538513 269.1139679 C20.54054662 269.11327387 23.04563282 269.1055054 25.55078125 269.09765625 C27.29241393 269.09579026 29.03404714 269.09436721 30.77568054 269.09336853 C35.35085509 269.08955762 39.9259977 269.07973953 44.50115967 269.06866455 C49.17329476 269.05841975 53.84543503 269.05386434 58.51757812 269.04882812 C67.67839942 269.03811596 76.83919705 269.02105668 86 269 C86 269.66 86 270.32 86 271 C82.47630364 272.17456545 79.30400473 272.13992597 75.63867188 272.12939453 C74.89202774 272.13114685 74.14538361 272.13289917 73.37611389 272.13470459 C70.90696898 272.13910741 68.43789565 272.13619062 65.96875 272.1328125 C64.25386542 272.13348599 62.53898093 272.13445639 60.82409668 272.13571167 C57.22956432 272.13718651 53.63505681 272.13504091 50.04052734 272.13037109 C45.43020398 272.12467394 40.81993884 272.12795408 36.20961761 272.13394356 C32.66835083 272.13755491 29.12709788 272.13640793 25.58583069 272.13381577 C23.8857472 272.13314809 22.18566247 272.13396938 20.48558044 272.13629532 C18.11079577 272.13883122 15.73610574 272.13496796 13.36132812 272.12939453 C12.65682022 272.13141876 11.95231232 272.13344299 11.22645569 272.13552856 C8.20087009 272.12235595 5.89600137 271.96533379 3 271 C3 270.34 3 269.68 3 269 C2.01 268.67 1.02 268.34 0 268 C0 179.56 0 91.12 0 0 Z " fill="#7B25BB" transform="translate(360,117)"/>
<path d="M0 0 C0.66 0 1.32 0 2 0 C2.33 0.99 2.66 1.98 3 3 C3.66 3.33 4.32 3.66 5 4 C4.690625 4.495 4.38125 4.99 4.0625 5.5 C2.8557875 8.33932354 2.5969178 11.01253008 2.27734375 14.0625 C1.91812181 16.5719941 0.96942992 18.66196314 0 21 C-1.97343672 28.27883544 -4.15332371 36.58299611 -2 44 C-1.34 44 -0.68 44 0 44 C0 44.66 0 45.32 0 46 C2.97 46.66 5.94 47.32 9 48 C9 48.66 9 49.32 9 50 C0.0666897 49.65307533 0.0666897 49.65307533 -4.0625 47.125 C-6.61360179 44.32701739 -7.01853875 42.66908027 -6.9140625 38.8984375 C-6.81867188 37.73570312 -6.72328125 36.57296875 -6.625 35.375 C-6.53476563 34.20710938 -6.44453125 33.03921875 -6.3515625 31.8359375 C-6 29 -6 29 -5 28 C-4.72720745 26.52583878 -4.50935379 25.04140816 -4.31640625 23.5546875 C-4.19330078 22.64203125 -4.07019531 21.729375 -3.94335938 20.7890625 C-3.69253047 18.86989982 -3.44250983 16.9506313 -3.19335938 15.03125 C-2.49299867 9.84930658 -1.59422548 4.98281731 0 0 Z " fill="#C244EB" transform="translate(219,329)"/>
<path d="M0 0 C0.66 0 1.32 0 2 0 C2.33 1.32 2.66 2.64 3 4 C7.25539882 5.03990671 11.37398903 5.13552919 15.7277832 5.11352539 C16.48929184 5.11367142 17.25080048 5.11381744 18.03538513 5.1139679 C20.54054662 5.11327387 23.04563282 5.1055054 25.55078125 5.09765625 C27.29241393 5.09579026 29.03404714 5.09436721 30.77568054 5.09336853 C35.35085509 5.08955762 39.9259977 5.07973953 44.50115967 5.06866455 C49.17329476 5.05841975 53.84543503 5.05386434 58.51757812 5.04882812 C67.67839942 5.03811596 76.83919705 5.02105668 86 5 C86 5.66 86 6.32 86 7 C82.47630364 8.17456545 79.30400473 8.13992597 75.63867188 8.12939453 C74.89202774 8.13114685 74.14538361 8.13289917 73.37611389 8.13470459 C70.90696898 8.13910741 68.43789565 8.13619062 65.96875 8.1328125 C64.25386542 8.13348599 62.53898093 8.13445639 60.82409668 8.13571167 C57.22956432 8.13718651 53.63505681 8.13504091 50.04052734 8.13037109 C45.43020398 8.12467394 40.81993884 8.12795408 36.20961761 8.13394356 C32.66835083 8.13755491 29.12709788 8.13640793 25.58583069 8.13381577 C23.8857472 8.13314809 22.18566247 8.13396938 20.48558044 8.13629532 C18.11079577 8.13883122 15.73610574 8.13496796 13.36132812 8.12939453 C12.65682022 8.13141876 11.95231232 8.13344299 11.22645569 8.13552856 C8.20087009 8.12235595 5.89600137 7.96533379 3 7 C3 6.34 3 5.68 3 5 C2.01 4.67 1.02 4.34 0 4 C0 2.68 0 1.36 0 0 Z " fill="#BF83EF" transform="translate(360,381)"/>
<path d="M0 0 C1.11590263 0.00135956 1.11590263 0.00135956 2.25434875 0.00274658 C3.03825485 -0.00397064 3.82216095 -0.01068787 4.62982178 -0.01760864 C7.22950016 -0.03665588 9.82892128 -0.04051631 12.42866516 -0.04266357 C14.2322653 -0.04908726 16.03586437 -0.05581529 17.83946228 -0.06283569 C21.62410396 -0.07482558 25.40865426 -0.07851481 29.1933136 -0.07733154 C34.0448042 -0.07712835 38.89570901 -0.10442281 43.74706078 -0.13887596 C47.47368565 -0.16110692 51.20016877 -0.16517024 54.92685318 -0.16411209 C56.71544538 -0.16647409 58.50404114 -0.17533122 60.29256821 -0.19077682 C62.79456894 -0.21035875 65.29529656 -0.20463002 67.7973175 -0.19256592 C68.53720413 -0.20380493 69.27709076 -0.21504395 70.03939819 -0.22662354 C73.52148976 -0.18392679 75.34373947 0.05502814 78.14634705 2.19863892 C79.65522766 4.29327393 79.65522766 4.29327393 79.65522766 6.29327393 C78.99522766 6.29327393 78.33522766 6.29327393 77.65522766 6.29327393 C77.2793602 5.80529831 76.90349274 5.31732269 76.51623535 4.81455994 C73.6154848 2.44333318 70.46061862 2.90095874 66.87910461 2.95269775 C66.08862732 2.95225967 65.29815002 2.95182159 64.48371887 2.95137024 C61.87006458 2.95346082 59.25705119 2.97680416 56.64350891 3.00030518 C54.83176016 3.00590018 53.02000687 3.01017073 51.20825195 3.01316833 C46.43894426 3.02462464 41.6699105 3.05409855 36.90071106 3.08728027 C32.03441575 3.11796424 27.16807619 3.13167009 22.30171204 3.14678955 C12.75276353 3.17896751 3.20401837 3.23017335 -6.34477234 3.29327393 C-6.67477234 4.28327393 -7.00477234 5.27327393 -7.34477234 6.29327393 C-8.00477234 6.29327393 -8.66477234 6.29327393 -9.34477234 6.29327393 C-7.01860203 1.30862327 -5.63442123 0.07083325 0 0 Z " fill="#A456E9" transform="translate(369.3447723388672,110.70672607421875)"/>
<path d="M0 0 C0.66 0 1.32 0 2 0 C1.59814412 8.89625768 0.74747489 17.67433657 -0.4375 26.5 C-0.55971924 27.43086426 -0.68193848 28.36172852 -0.80786133 29.32080078 C-1.50986607 34.38490516 -2.49674722 39.11598784 -4 44 C-4.36270588 45.99488234 -4.70640699 47.9937811 -5 50 C-5.99 50 -6.98 50 -8 50 C-7.979375 51.051875 -7.95875 52.10375 -7.9375 53.1875 C-7.98896802 56.32704904 -8.26517187 58.96883396 -9 62 C-9.66 62 -10.32 62 -11 62 C-10.47925879 53.90110382 -9.8459603 46.01893623 -7.02734375 38.35546875 C-5.69724716 34.01116087 -5.11081756 29.68137204 -4.5 25.1875 C-3.69987072 19.37996827 -2.78644809 13.66836935 -1.44580078 7.95849609 C-0.84607588 5.32377915 -0.41075331 2.6698965 0 0 Z " fill="#CE6AEE" transform="translate(237,235)"/>
<path d="M0 0 C0.66 0 1.32 0 2 0 C1.46494216 4.31193671 0.47839126 7.42987762 -1.6875 11.1875 C-2.48994141 12.60482422 -2.48994141 12.60482422 -3.30859375 14.05078125 C-3.86675781 15.02402344 -4.42492187 15.99726563 -5 17 C-6.08904785 18.9551612 -7.17257991 20.91340715 -8.25 22.875 C-8.72953125 23.73867188 -9.2090625 24.60234375 -9.703125 25.4921875 C-10.97445423 27.95060125 -11.99616214 30.42292046 -13 33 C-13.98482022 35.00751815 -14.98152514 37.00934459 -16 39 C-16.66 39 -17.32 39 -18 39 C-18.09152344 39.83789062 -18.18304688 40.67578125 -18.27734375 41.5390625 C-19.10804213 45.5174342 -20.68464343 48.8126503 -22.5625 52.375 C-22.89185547 53.01566406 -23.22121094 53.65632813 -23.56054688 54.31640625 C-24.36639482 55.88138632 -25.18218493 57.44124021 -26 59 C-26.66 59 -27.32 59 -28 59 C-27.505 56.03 -27.505 56.03 -27 53 C-26.34 53 -25.68 53 -25 53 C-24.87882813 52.41992188 -24.75765625 51.83984375 -24.6328125 51.2421875 C-23.66264526 46.71971558 -22.56602217 42.36249034 -21 38 C-20.34 38 -19.68 38 -19 38 C-19 37.34 -19 36.68 -19 36 C-18.34 36 -17.68 36 -17 36 C-17 35.01 -17 34.02 -17 33 C-16.34 33 -15.68 33 -15 33 C-14.34 30.03 -13.68 27.06 -13 24 C-12.34 24 -11.68 24 -11 24 C-10.67 22.35 -10.34 20.7 -10 19 C-9.34 19 -8.68 19 -8 19 C-7.896875 17.80375 -7.79375 16.6075 -7.6875 15.375 C-7.21108648 11.4375824 -5.98869284 8.45859625 -4 5 C-3.34 5 -2.68 5 -2 5 C-1.34 3.35 -0.68 1.7 0 0 Z " fill="#E676F6" transform="translate(202,239)"/>
<path d="M0 0 C0 0.66 0 1.32 0 2 C-0.66 2 -1.32 2 -2 2 C-2.2475 2.94875 -2.495 3.8975 -2.75 4.875 C-4.63818124 11.45015595 -6.86482796 17.52867209 -11 23 C-11.165 23.825 -11.33 24.65 -11.5 25.5 C-12.07253016 28.36265078 -13.20994456 29.74297358 -15 32 C-15 32.66 -15 33.32 -15 34 C-15.99 34 -16.98 34 -18 34 C-18 34.66 -18 35.32 -18 36 C-18.66 36 -19.32 36 -20 36 C-20.495 38.475 -20.495 38.475 -21 41 C-21.66 41 -22.32 41 -23 41 C-23.495 43.475 -23.495 43.475 -24 46 C-24.66 46 -25.32 46 -26 46 C-25.3835721 41.823701 -23.94564843 38.60727751 -22 34.875 C-20.4616925 31.90932064 -19.05677648 29.17032944 -18 26 C-17.34 26 -16.68 26 -16 26 C-15.87625 25.29875 -15.7525 24.5975 -15.625 23.875 C-13.88010941 15.84850327 -13.88010941 15.84850327 -11.5859375 13.63671875 C-9.00387191 10.97197618 -7.81285518 7.6203666 -6.28125 4.27734375 C-4.72452319 1.51035676 -3.31524174 0 0 0 Z " fill="#CB46ED" transform="translate(171,109)"/>
<path d="M0 0 C0.33 0 0.66 0 1 0 C1.3666174 6.23249578 0.29419618 11.54796258 -1.203125 17.59375 C-2.22096652 21.94452356 -2.91118849 26.31708779 -3.5703125 30.734375 C-4 33 -4 33 -5 34 C-5.35248429 36.37556641 -5.66216721 38.74029943 -5.9375 41.125 C-6.5457698 46.28762607 -7.52157701 51.02004888 -9 56 C-9.165 57.27875 -9.33 58.5575 -9.5 59.875 C-9.665 60.90625 -9.83 61.9375 -10 63 C-10.99 63.495 -10.99 63.495 -12 64 C-12 56.08 -12 48.16 -12 40 C-11.01 40 -10.02 40 -9 40 C-8.87882812 39.14277344 -8.75765625 38.28554688 -8.6328125 37.40234375 C-7.75897813 31.44010465 -6.70189011 25.78642638 -5 20 C-4.57811011 17.33593126 -4.28252968 14.68403196 -4 12 C-3.34 12 -2.68 12 -2 12 C-1.93941406 11.21753906 -1.87882812 10.43507813 -1.81640625 9.62890625 C-1.73261719 8.61699219 -1.64882813 7.60507812 -1.5625 6.5625 C-1.48128906 5.55316406 -1.40007812 4.54382813 -1.31640625 3.50390625 C-1 1 -1 1 0 0 Z " fill="#CC81F4" transform="translate(317,300)"/>
<path d="M0 0 C0.66 0 1.32 0 2 0 C1.67 2.31 1.34 4.62 1 7 C0.34 7 -0.32 7 -1 7 C-0.7525 7.5775 -0.505 8.155 -0.25 8.75 C-0.12625 9.86375 -0.12625 9.86375 0 11 C-0.92425781 11.88751953 -0.92425781 11.88751953 -1.8671875 12.79296875 C-4.33727714 15.34901389 -4.92499446 17.16509922 -5.875 20.5625 C-7.81467548 26.87032467 -10.65348045 32.3332269 -14 38 C-14.66 38 -15.32 38 -16 38 C-16 38.99 -16 39.98 -16 41 C-16.66 41 -17.32 41 -18 41 C-18.495 43.475 -18.495 43.475 -19 46 C-19.66 46 -20.32 46 -21 46 C-20.4943443 40.32040294 -18.22155371 36.19528755 -15.5 31.3125 C-14.67515617 29.80964987 -13.85216036 28.30578358 -13.03125 26.80078125 C-12.66580078 26.14247314 -12.30035156 25.48416504 -11.92382812 24.8059082 C-10.86687959 22.85151695 -10.86687959 22.85151695 -10 20 C-9.34 20 -8.68 20 -8 20 C-7.7834375 18.8553125 -7.7834375 18.8553125 -7.5625 17.6875 C-7 15 -7 15 -6 12 C-5.34 12 -4.68 12 -4 12 C-3.67 10.02 -3.34 8.04 -3 6 C-2.34 6 -1.68 6 -1 6 C-0.67 4.02 -0.34 2.04 0 0 Z " fill="#F41AF5" transform="translate(82,277)"/>
<path d="M0 0 C0.66 0 1.32 0 2 0 C1.91621094 0.96421875 1.83242188 1.9284375 1.74609375 2.921875 C1.64425781 4.18515625 1.54242188 5.4484375 1.4375 6.75 C1.33308594 8.00296875 1.22867187 9.2559375 1.12109375 10.546875 C1.02123277 13.39452364 1.09415705 15.34286067 2 18 C1.34 18 0.68 18 0 18 C-2.31277928 28.63204844 -4.52821565 39.21336993 -6 50 C-6.66 50 -7.32 50 -8 50 C-7.85970581 47.8537974 -7.71261836 45.70803782 -7.5625 43.5625 C-7.48128906 42.36753906 -7.40007812 41.17257813 -7.31640625 39.94140625 C-7 37 -7 37 -6 36 C-5.97951095 34.58332831 -6.00858732 33.16579373 -6.0625 31.75 C-6.11660825 27.93236207 -5.44970123 25.53364674 -4 22 C-3.89574537 19.96911977 -3.93835822 17.96979057 -3.99609375 15.9375 C-4.00094161 13.53296235 -3.58187008 11.32748031 -3 9 C-2.34 9 -1.68 9 -1 9 C-0.67 6.03 -0.34 3.06 0 0 Z " fill="#C485ED" transform="translate(340,177)"/>
<path d="M0 0 C2.20826378 -0.02722517 4.41662638 -0.04649729 6.625 -0.0625 C7.85476562 -0.07410156 9.08453125 -0.08570313 10.3515625 -0.09765625 C13.67723791 -0.00863924 16.74047588 0.36313913 20 1 C20 1.99 20 2.98 20 4 C21.299375 3.979375 22.59875 3.95875 23.9375 3.9375 C25.29165633 3.91600546 26.64756083 3.92851801 28 4 C28.33 4.33 28.66 4.66 29 5 C30.55587743 5.29643736 32.12235187 5.53780894 33.69140625 5.75390625 C34.63564453 5.88603516 35.57988281 6.01816406 36.55273438 6.15429688 C38.04256836 6.35635742 38.04256836 6.35635742 39.5625 6.5625 C40.55958984 6.70107422 41.55667969 6.83964844 42.58398438 6.98242188 C45.05549716 7.32535906 47.52748545 7.66437454 50 8 C50 8.66 50 9.32 50 10 C44.8437104 10.10312579 40.09645378 9.87012625 35 9 C34.34 9.33 33.68 9.66 33 10 C33 9.34 33 8.68 33 8 C32.44957031 7.90203125 31.89914062 7.8040625 31.33203125 7.703125 C29.500586 7.3737488 27.66995974 7.03980862 25.83984375 6.703125 C23.70545707 6.31229122 21.57061512 5.92384649 19.43408203 5.54492188 C16.57952546 5.03810765 13.72725441 4.51959954 10.875 4 C9.9260083 3.8340332 8.9770166 3.66806641 7.99926758 3.49707031 C7.11005615 3.33303711 6.22084473 3.16900391 5.3046875 3 C4.0978833 2.7834375 4.0978833 2.7834375 2.86669922 2.5625 C2.25068848 2.376875 1.63467773 2.19125 1 2 C0.67 1.34 0.34 0.68 0 0 Z " fill="#E5A0F9" transform="translate(228,379)"/>
<path d="M0 0 C-0.65551312 3.04841651 -1.68246755 5.61618161 -3.06640625 8.40625 C-3.46923828 9.23253906 -3.87207031 10.05882812 -4.28710938 10.91015625 C-5.13813363 12.63826981 -5.99230876 14.36483522 -6.84960938 16.08984375 C-7.25115234 16.91613281 -7.65269531 17.74242187 -8.06640625 18.59375 C-8.43709229 19.34333984 -8.80777832 20.09292969 -9.18969727 20.86523438 C-10.23658012 23.24271407 -10.23658012 23.24271407 -10 27 C-10.99 27.33 -11.98 27.66 -13 28 C-14.70855022 31.00007271 -14.70855022 31.00007271 -16 34 C-16.33 34 -16.66 34 -17 34 C-17.125 27.375 -17.125 27.375 -16 24 C-15.01 24 -14.02 24 -13 24 C-12.7834375 22.081875 -12.7834375 22.081875 -12.5625 20.125 C-12.29357254 17.74307106 -12.07773654 16.15547309 -11 14 C-10.34 14 -9.68 14 -9 14 C-8.67 11.69 -8.34 9.38 -8 7 C-7.01 7 -6.02 7 -5 7 C-4.87625 6.030625 -4.7525 5.06125 -4.625 4.0625 C-4.41875 3.051875 -4.2125 2.04125 -4 1 C-2 0 -2 0 0 0 Z " fill="#B546E4" transform="translate(244,160)"/>
<path d="M0 0 C0.66 0 1.32 0 2 0 C1.45004537 4.65721071 0.14724436 8.06577825 -2.0625 12.1875 C-4.40531715 16.36821493 -4.40531715 16.36821493 -5 21 C-5.66 21 -6.32 21 -7 21 C-7.6509259 22.24735567 -8.29551669 23.49801832 -8.9375 24.75 C-9.29714844 25.44609375 -9.65679687 26.1421875 -10.02734375 26.859375 C-11.0779323 28.95670231 -11.0779323 28.95670231 -11.44140625 31.203125 C-11.71791016 32.09257812 -11.71791016 32.09257812 -12 33 C-13.485 33.495 -13.485 33.495 -15 34 C-14.34 31.03 -13.68 28.06 -13 25 C-12.34 25 -11.68 25 -11 25 C-11.103125 24.21625 -11.20625 23.4325 -11.3125 22.625 C-10.69540494 15.46669729 -6.31612485 8.65561187 -2 3 C-1.34 3 -0.68 3 0 3 C0 2.01 0 1.02 0 0 Z " fill="#F534F6" transform="translate(155,332)"/>
<path d="M0 0 C0.33 0 0.66 0 1 0 C2.18893537 6.76117465 1.95605907 12.80529161 0.6875 19.5 C0.49256958 20.54124023 0.49256958 20.54124023 0.29370117 21.60351562 C-0.39113408 24.952512 -1.07962303 27.11943455 -3 30 C-3.66 30 -4.32 30 -5 30 C-5.33 31.32 -5.66 32.64 -6 34 C-6.23620492 28.21297941 -5.75551915 23.57635495 -4 18 C-3.63049535 15.67212073 -3.28647533 13.33954855 -3 11 C-2.34 11 -1.68 11 -1 11 C-1.33 9.35 -1.66 7.7 -2 6 C-1.34 6 -0.68 6 0 6 C0 4.02 0 2.04 0 0 Z " fill="#7815CB" transform="translate(348,134)"/>
<path d="M0 0 C1.14900787 -0.00503792 1.14900787 -0.00503792 2.32122803 -0.01017761 C4.86073414 -0.01969915 7.4001744 -0.0216313 9.93969727 -0.02270508 C11.70085172 -0.02591672 13.4620059 -0.02928072 15.22315979 -0.03279114 C18.91782246 -0.03878535 22.61246172 -0.04063073 26.30712891 -0.04003906 C31.04643796 -0.0399374 35.78559732 -0.05359252 40.52487087 -0.07081127 C44.16307772 -0.08191768 47.80124822 -0.08395869 51.43947029 -0.08342934 C53.18700743 -0.0846114 54.93454546 -0.08904577 56.68206596 -0.0967617 C59.12408882 -0.10653465 61.56578463 -0.10369437 64.0078125 -0.09765625 C64.73259293 -0.10327576 65.45737335 -0.10889526 66.20411682 -0.11468506 C69.88706247 -0.09148808 71.41662865 0.0439471 74.56860352 2.14526367 C74.23860352 2.80526367 73.90860352 3.46526367 73.56860352 4.14526367 C72.24860352 3.81526367 70.92860352 3.48526367 69.56860352 3.14526367 C69.56860352 2.48526367 69.56860352 1.82526367 69.56860352 1.14526367 C44.48860352 1.14526367 19.40860352 1.14526367 -6.43139648 1.14526367 C-6.76139648 2.13526367 -7.09139648 3.12526367 -7.43139648 4.14526367 C-8.42139648 4.47526367 -9.41139648 4.80526367 -10.43139648 5.14526367 C-10.05639648 3.20776367 -10.05639648 3.20776367 -9.43139648 1.14526367 C-6.41723172 -0.36181871 -3.30606032 -0.00206143 0 0 Z " fill="#6504C0" transform="translate(372.431396484375,112.854736328125)"/>
<path d="M0 0 C0.33 0.99 0.66 1.98 1 3 C1.99 3.33 2.98 3.66 4 4 C2.625 5.5 2.625 5.5 1 7 C0.34 7 -0.32 7 -1 7 C-0.896875 7.825 -0.79375 8.65 -0.6875 9.5 C-1.10379498 14.16250375 -2.96746568 17.45672305 -6 21 C-8.171875 22.234375 -8.171875 22.234375 -10 23 C-10 23.99 -10 24.98 -10 26 C-10.66 26 -11.32 26 -12 26 C-11.67 24.02 -11.34 22.04 -11 20 C-10.34 20 -9.68 20 -9 20 C-8.91878906 19.33613281 -8.83757812 18.67226562 -8.75390625 17.98828125 C-7.75192188 14.01668518 -5.91366546 10.75415441 -3.9375 7.1875 C-3.37192383 6.14819336 -3.37192383 6.14819336 -2.79492188 5.08789062 C-1.86916148 3.38871015 -0.93537688 1.69390575 0 0 Z " fill="#DB52F1" transform="translate(144,155)"/>
<path d="M0 0 C0.33 0 0.66 0 1 0 C1.06058594 0.73605469 1.12117187 1.47210938 1.18359375 2.23046875 C1.26738281 3.20628906 1.35117188 4.18210937 1.4375 5.1875 C1.51871094 6.15042969 1.59992188 7.11335938 1.68359375 8.10546875 C1.97666151 10.78649602 2.42703754 13.3662986 3 16 C3.66 16 4.32 16 5 16 C5 16.66 5 17.32 5 18 C9.455 18.99 9.455 18.99 14 20 C14 20.66 14 21.32 14 22 C5.0666897 21.65307533 5.0666897 21.65307533 0.9375 19.125 C-1.61360179 16.32701739 -2.01853875 14.66908027 -1.9140625 10.8984375 C-1.81867188 9.73570312 -1.72328125 8.57296875 -1.625 7.375 C-1.53476563 6.20710938 -1.44453125 5.03921875 -1.3515625 3.8359375 C-1 1 -1 1 0 0 Z " fill="#D671F3" transform="translate(214,357)"/>
<path d="M0 0 C4.85963179 0.60745397 8.7405518 2.72758967 13 5 C13 5.66 13 6.32 13 7 C15.31 7.33 17.62 7.66 20 8 C20 8.66 20 9.32 20 10 C21.1446875 10.1546875 21.1446875 10.1546875 22.3125 10.3125 C25.22636046 11.05790616 26.02950397 11.84458939 28 14 C19.86304398 13.72876813 14.06820635 10.91083499 7 7 C7 6.34 7 5.68 7 5 C6.01 5 5.02 5 4 5 C4 4.34 4 3.68 4 3 C2.68 2.67 1.36 2.34 0 2 C0 1.34 0 0.68 0 0 Z " fill="#C866EB" transform="translate(201,121)"/>
<path d="M0 0 C0.66 0.33 1.32 0.66 2 1 C1.67 2.98 1.34 4.96 1 7 C0.34 7 -0.32 7 -1 7 C-1.061875 7.804375 -1.12375 8.60875 -1.1875 9.4375 C-2.25031364 14.09752905 -4.14511025 18.15243969 -7 22 C-9.16796875 23.265625 -9.16796875 23.265625 -11 24 C-10.505 22.515 -10.505 22.515 -10 21 C-9.34 21 -8.68 21 -8 21 C-7.89042969 20.20335937 -7.78085938 19.40671875 -7.66796875 18.5859375 C-6.81008432 12.8527586 -6.03978343 7.97419107 -3 3 C-2.34 3 -1.68 3 -1 3 C-0.67 2.01 -0.34 1.02 0 0 Z " fill="#FB43FA" transform="translate(138,365)"/>
<path d="M0 0 C0.66 0.33 1.32 0.66 2 1 C1.67 2.98 1.34 4.96 1 7 C0.34 7 -0.32 7 -1 7 C-1.08636719 7.68964844 -1.17273438 8.37929688 -1.26171875 9.08984375 C-2.23905423 15.62633519 -3.64462147 21.82648407 -8 27 C-10.1640625 27.7421875 -10.1640625 27.7421875 -12 28 C-12.33 27.34 -12.66 26.68 -13 26 C-12.34 26 -11.68 26 -11 26 C-10.67 24.35 -10.34 22.7 -10 21 C-9.34 21 -8.68 21 -8 21 C-7.67 19.02 -7.34 17.04 -7 15 C-6.34 15 -5.68 15 -5 15 C-4.87753906 14.28457031 -4.75507812 13.56914062 -4.62890625 12.83203125 C-3.98864625 9.94887287 -3.06448444 7.41407527 -1.9375 4.6875 C-1.39416016 3.36298828 -1.39416016 3.36298828 -0.83984375 2.01171875 C-0.56269531 1.34785156 -0.28554687 0.68398437 0 0 Z " fill="#FB7FFB" transform="translate(96,248)"/>
<path d="M0 0 C0.66 0 1.32 0 2 0 C2.34644969 6.00512792 1.36741244 10.89585003 -0.20703125 16.68359375 C-1.35752898 21.49528132 -1.90915936 26.35124585 -2.47265625 31.26171875 C-2.64667969 32.16535156 -2.82070312 33.06898438 -3 34 C-3.99 34.495 -3.99 34.495 -5 35 C-5.27952904 27.87200947 -4.40663207 20.99209079 -3 14 C-2.67 13.67 -2.34 13.34 -2 13 C-1.60333773 10.81980521 -1.25684763 8.6303537 -0.9375 6.4375 C-0.76089844 5.23996094 -0.58429688 4.04242188 -0.40234375 2.80859375 C-0.26957031 1.88175781 -0.13679688 0.95492187 0 0 Z " fill="#DE9EF4" transform="translate(257,134)"/>
<path d="M0 0 C0.66 0 1.32 0 2 0 C1.69476323 8.22613084 0.56493744 16.16718869 -0.9375 24.25 C-1.10733398 25.19125732 -1.27716797 26.13251465 -1.45214844 27.10229492 C-1.62133789 27.98119385 -1.79052734 28.86009277 -1.96484375 29.765625 C-2.1155835 30.55743164 -2.26632324 31.34923828 -2.42163086 32.16503906 C-2.70792358 33.07334473 -2.70792358 33.07334473 -3 34 C-3.99 34.495 -3.99 34.495 -5 35 C-5.09038099 29.84828377 -4.84681133 25.08086796 -4 20 C-3.34 20 -2.68 20 -2 20 C-1.93941406 18.89140625 -1.87882812 17.7828125 -1.81640625 16.640625 C-1.73197049 15.1770718 -1.64732401 13.71353075 -1.5625 12.25 C-1.50352539 11.15558594 -1.50352539 11.15558594 -1.44335938 10.0390625 C-1.23852902 6.5727027 -0.9147998 3.34666974 0 0 Z " fill="#D396F3" transform="translate(330,228)"/>
<path d="M0 0 C0.66 0 1.32 0 2 0 C1.28455976 17.34325819 1.28455976 17.34325819 -2 23 C-2.99 23.33 -3.98 23.66 -5 24 C-4.34 19.71 -3.68 15.42 -3 11 C-2.34 11 -1.68 11 -1 11 C-0.67 7.37 -0.34 3.74 0 0 Z " fill="#DC80F4" transform="translate(303,365)"/>
<path d="M0 0 C0 0.66 0 1.32 0 2 C-0.99 2.495 -0.99 2.495 -2 3 C-2.68931344 5.34907875 -2.68931344 5.34907875 -3.125 8.0625 C-3.29257812 8.98160156 -3.46015625 9.90070313 -3.6328125 10.84765625 C-3.75398438 11.55792969 -3.87515625 12.26820312 -4 13 C-4.66 13 -5.32 13 -6 13 C-6.33 16.63 -6.66 20.26 -7 24 C-7.66 24 -8.32 24 -9 24 C-8.32097396 7.11800771 -8.32097396 7.11800771 -3.4375 1.0625 C-2 0 -2 0 0 0 Z " fill="#BC68ED" transform="translate(268,108)"/>
<path d="M0 0 C0.33 0 0.66 0 1 0 C1.29894685 8.66945853 1.50173174 19.33949011 -3 27 C-3.66 27 -4.32 27 -5 27 C-4.24115888 21.54947775 -3.3939256 16.11743421 -2.5 10.6875 C-2.36980469 9.87732422 -2.23960937 9.06714844 -2.10546875 8.23242188 C-1.11633346 2.23266693 -1.11633346 2.23266693 0 0 Z " fill="#E796F9" transform="translate(225,299)"/>
<path d="M0 0 C0.33 0 0.66 0 1 0 C0.67 5.28 0.34 10.56 0 16 C-0.66 16 -1.32 16 -2 16 C-2.04898438 16.78246094 -2.09796875 17.56492188 -2.1484375 18.37109375 C-2.22320312 19.38300781 -2.29796875 20.39492187 -2.375 21.4375 C-2.44460937 22.44683594 -2.51421875 23.45617187 -2.5859375 24.49609375 C-2.72257813 25.32238281 -2.85921875 26.14867187 -3 27 C-3.66 27.33 -4.32 27.66 -5 28 C-5.56718536 18.35784882 -2.77013765 9.16276299 0 0 Z " fill="#CC7DF1" transform="translate(251,169)"/>
<path d="M0 0 C0.99 0.33 1.98 0.66 3 1 C2.05644119 5.3363554 1.10236385 9.65465472 -0.0625 13.9375 C-1.099802 17.92588598 -1.40553305 21.89060376 -1.65625 25.99609375 C-1.7696875 26.65738281 -1.883125 27.31867188 -2 28 C-2.66 28.33 -3.32 28.66 -4 29 C-3.67 23.39 -3.34 17.78 -3 12 C-2.34 12 -1.68 12 -1 12 C-0.67 8.04 -0.34 4.08 0 0 Z " fill="#C03BE9" transform="translate(229,285)"/>
<path d="M0 0 C0.33 0 0.66 0 1 0 C1.09038099 5.15171623 0.84681133 9.91913204 0 15 C-0.66 15 -1.32 15 -2 15 C-1.979375 16.051875 -1.95875 17.10375 -1.9375 18.1875 C-1.98896802 21.32704904 -2.26517187 23.96883396 -3 27 C-3.66 27 -4.32 27 -5 27 C-4.39390327 17.5736008 -3.20007917 8.91450626 0 0 Z " fill="#E998FC" transform="translate(231,270)"/>
<path d="M0 0 C0 0.66 0 1.32 0 2 C-0.66 2 -1.32 2 -2 2 C-2.2475 2.94875 -2.495 3.8975 -2.75 4.875 C-3.67342413 8.07751347 -4.75678672 11.19559791 -5.9375 14.3125 C-6.41509766 15.57513672 -6.41509766 15.57513672 -6.90234375 16.86328125 C-8 19 -8 19 -11 21 C-10.10682836 13.84287459 -9.25469433 7.93078604 -5 2 C-2 0 -2 0 0 0 Z " fill="#D060EF" transform="translate(171,109)"/>
<path d="M0 0 C0.66 0 1.32 0 2 0 C0.71882993 3.27381995 -0.65271307 6.47069744 -2.1640625 9.64453125 C-2.56367188 10.48564453 -2.96328125 11.32675781 -3.375 12.19335938 C-3.7875 13.05767578 -4.2 13.92199219 -4.625 14.8125 C-5.04523438 15.69615234 -5.46546875 16.57980469 -5.8984375 17.49023438 C-6.93092761 19.66081018 -7.9648212 21.83070552 -9 24 C-9.66 24 -10.32 24 -11 24 C-10.67 22.02 -10.34 20.04 -10 18 C-9.34 18 -8.68 18 -8 18 C-7.7834375 16.576875 -7.7834375 16.576875 -7.5625 15.125 C-7 12 -7 12 -6 10 C-5.34 10 -4.68 10 -4 10 C-3.67 8.02 -3.34 6.04 -3 4 C-2.34 4 -1.68 4 -1 4 C-0.67 2.68 -0.34 1.36 0 0 Z " fill="#FA75FC" transform="translate(168,308)"/>
<path d="M0 0 C1.32 0 2.64 0 4 0 C3.72362039 3.81377203 3.42635166 7.62562635 3.125 11.4375 C3.04636719 12.52611328 2.96773438 13.61472656 2.88671875 14.73632812 C2.80292969 15.77080078 2.71914063 16.80527344 2.6328125 17.87109375 C2.55949707 18.82943115 2.48618164 19.78776855 2.41064453 20.77514648 C2.20737549 21.87644897 2.20737549 21.87644897 2 23 C1.34 23.33 0.68 23.66 0 24 C0 16.08 0 8.16 0 0 Z " fill="#B241E7" transform="translate(305,340)"/>
<path d="M0 0 C1.81293089 0.14037521 3.6253443 0.28744889 5.4375 0.4375 C6.95150391 0.55931641 6.95150391 0.55931641 8.49609375 0.68359375 C11 1 11 1 12 2 C15.09590427 2.53548344 18.20121132 2.96573602 21.3125 3.40234375 C22.199375 3.59957031 23.08625 3.79679687 24 4 C24.33 4.66 24.66 5.32 25 6 C19.67628599 6.18357635 16.05094204 5.78268543 11 4 C7.34722781 3.25019378 3.67763081 2.61511974 0 2 C0 1.34 0 0.68 0 0 Z " fill="#CF8DF1" transform="translate(279,108)"/>
<path d="M0 0 C6.75 0.75 6.75 0.75 9 3 C9.680625 3.165 10.36125 3.33 11.0625 3.5 C12.0215625 3.7475 12.0215625 3.7475 13 4 C13.33 4.66 13.66 5.32 14 6 C16.3140622 6.73075648 18.64828869 7.40138258 21 8 C21 8.66 21 9.32 21 10 C21.66 10 22.32 10 23 10 C23 10.66 23 11.32 23 12 C22.01 12 21.02 12 20 12 C20 11.34 20 10.68 20 10 C19.278125 9.88527344 18.55625 9.77054687 17.8125 9.65234375 C14.88824106 8.97407813 12.65008491 7.95793534 10 6.5625 C6.71916928 4.84519017 3.45841892 3.32778584 0 2 C0 1.34 0 0.68 0 0 Z " fill="#FD7AFC" transform="translate(77,369)"/>
<path d="M0 0 C0.66 0 1.32 0 2 0 C2 2.31 2 4.62 2 7 C1.34 7 0.68 7 0 7 C-0.04898438 7.85722656 -0.09796875 8.71445312 -0.1484375 9.59765625 C-0.54534244 15.66756456 -0.99208399 21.24397411 -3 27 C-3.33 27 -3.66 27 -4 27 C-4.35517694 17.76539951 -2.79774958 8.79292724 0 0 Z " fill="#E787FB" transform="translate(219,329)"/>
<path d="M0 0 C0.66 0 1.32 0 2 0 C1.67 2.31 1.34 4.62 1 7 C0.34 7 -0.32 7 -1 7 C-0.7525 7.5775 -0.505 8.155 -0.25 8.75 C-0.1675 9.4925 -0.085 10.235 0 11 C-1.8125 13 -1.8125 13 -4 15 C-5.23512079 17.13309192 -5.23512079 17.13309192 -6 19 C-6.66 19 -7.32 19 -8 19 C-7.01 15.535 -7.01 15.535 -6 12 C-5.34 12 -4.68 12 -4 12 C-3.67 10.02 -3.34 8.04 -3 6 C-2.34 6 -1.68 6 -1 6 C-0.67 4.02 -0.34 2.04 0 0 Z " fill="#FC69FB" transform="translate(82,277)"/>
<path d="M0 0 C0.66 0 1.32 0 2 0 C1.59422121 5.41038391 -0.42458314 9.92857155 -4 14 C-4.99 14 -5.98 14 -7 14 C-6.30058404 10.85262818 -5.23921302 7.97411124 -4 5 C-3.34 5 -2.68 5 -2 5 C-1.34 3.35 -0.68 1.7 0 0 Z " fill="#D64EEF" transform="translate(202,239)"/>
<path d="M0 0 C2.93364327 1.01160113 3.99671209 1.99535158 5.8125 4.5625 C7.3090357 8.89457703 7.3250985 12.59698284 6 17 C4.4453125 18.76953125 4.4453125 18.76953125 3 20 C3.03480469 18.95199219 3.06960937 17.90398437 3.10546875 16.82421875 C3.13360937 15.44532853 3.16090924 14.06642098 3.1875 12.6875 C3.21263672 11.99720703 3.23777344 11.30691406 3.26367188 10.59570312 C3.38697888 6.55857699 3.38697888 6.55857699 1.48828125 3.14453125 C0.99714844 2.76683594 0.50601563 2.38914063 0 2 C0 1.34 0 0.68 0 0 Z " fill="#D07DF2" transform="translate(241,140)"/>
<path d="M0 0 C2.20826378 -0.02722517 4.41662638 -0.04649729 6.625 -0.0625 C7.85476562 -0.07410156 9.08453125 -0.08570313 10.3515625 -0.09765625 C13.67723791 -0.00863924 16.74047588 0.36313913 20 1 C20 1.66 20 2.32 20 3 C6.3667426 3.3690205 6.3667426 3.3690205 0 1 C0 0.67 0 0.34 0 0 Z " fill="#C558EC" transform="translate(228,379)"/>
<path d="M0 0 C0.66 0 1.32 0 2 0 C1.43174347 5.54050113 -0.62886517 10.03715966 -3 15 C-3.66 15 -4.32 15 -5 15 C-5.33 16.65 -5.66 18.3 -6 20 C-6.66 20 -7.32 20 -8 20 C-7.35014905 15.28629244 -5.48438608 11.42313556 -3.4375 7.1875 C-2.9434668 6.14819336 -2.9434668 6.14819336 -2.43945312 5.08789062 C-1.63127749 3.38955052 -0.81631623 1.69444231 0 0 Z " fill="#FA79FC" transform="translate(106,229)"/>
<path d="M0 0 C0.66 0 1.32 0 2 0 C1.13920896 4.27427275 -0.89125157 7.75258082 -2.94140625 11.5625 C-4.26556656 14.16858113 -4.26556656 14.16858113 -4 18 C-4.99 18 -5.98 18 -7 18 C-7.33 18.66 -7.66 19.32 -8 20 C-7.34 16.7 -6.68 13.4 -6 10 C-5.34 10 -4.68 10 -4 10 C-3.8453125 8.9171875 -3.8453125 8.9171875 -3.6875 7.8125 C-2.93206053 4.72206579 -1.84468685 2.58256159 0 0 Z " fill="#E190F8" transform="translate(225,194)"/>
<path d="M0 0 C0.886875 0.45375 1.77375 0.9075 2.6875 1.375 C2.6875 2.365 2.6875 3.355 2.6875 4.375 C-3.25784775 3.68368049 -7.28165311 1.83014656 -11.3125 -2.625 C-6.75652067 -4.14365978 -4.18592145 -2.0534709 0 0 Z " fill="#FC48FB" transform="translate(74.3125,364.625)"/>
<path d="M0 0 C0.66 0.33 1.32 0.66 2 1 C-0.51431409 7.40615131 -3.15444808 13.7337314 -6 20 C-6.66 20 -7.32 20 -8 20 C-7.51421457 16.87709365 -7.0013988 14.00419641 -6 11 C-5.34 11 -4.68 11 -4 11 C-3.8453125 9.6696875 -3.8453125 9.6696875 -3.6875 8.3125 C-2.98809298 4.9426298 -1.91257489 2.82728462 0 0 Z " fill="#FB79FB" transform="translate(58,326)"/>
<path d="M0 0 C0.66 0 1.32 0 2 0 C2 2.31 2 4.62 2 7 C1.01 7.33 0.02 7.66 -1 8 C-2.70855022 11.00007271 -2.70855022 11.00007271 -4 14 C-4.33 14 -4.66 14 -5 14 C-5.125 7.375 -5.125 7.375 -4 4 C-3.01 4 -2.02 4 -1 4 C-0.67 2.68 -0.34 1.36 0 0 Z " fill="#C95CEF" transform="translate(232,180)"/>
<path d="M0 0 C0.66 0 1.32 0 2 0 C1.51358785 6.84817102 0.64006048 13.33042073 -1 20 C-1.66 20 -2.32 20 -3 20 C-3 17.36 -3 14.72 -3 12 C-2.34 12 -1.68 12 -1 12 C-1.020625 10.948125 -1.04125 9.89625 -1.0625 8.8125 C-1.01103198 5.67295096 -0.73482813 3.03116604 0 0 Z " fill="#DC96FB" transform="translate(322,272)"/>
<path d="M0 0 C0.33 0 0.66 0 1 0 C0.85879984 2.58366245 0.71221667 5.16682885 0.5625 7.75 C0.52318359 8.47960937 0.48386719 9.20921875 0.44335938 9.9609375 C0.23852902 13.4272973 -0.0852002 16.65333026 -1 20 C-1.66 20 -2.32 20 -3 20 C-2.22095672 6.3667426 -2.22095672 6.3667426 0 0 Z " fill="#DA93F3" transform="translate(245,198)"/>
<path d="M0 0 C2.97 0.33 5.94 0.66 9 1 C9 1.66 9 2.32 9 3 C9.928125 3.103125 10.85625 3.20625 11.8125 3.3125 C15.14965236 4.03227796 15.83186532 4.57142872 18 7 C16.20767663 6.69128878 14.41615679 6.37790936 12.625 6.0625 C11.62726563 5.88847656 10.62953125 5.71445313 9.6015625 5.53515625 C7 5 7 5 5 4 C5 3.34 5 2.68 5 2 C3.35 1.67 1.7 1.34 0 1 C0 0.67 0 0.34 0 0 Z " fill="#E393F5" transform="translate(172,108)"/>
<path d="M0 0 C1.15477893 3.46433679 0.80148365 4.68112799 -0.1875 8.125 C-0.54908203 9.45917969 -0.54908203 9.45917969 -0.91796875 10.8203125 C-2 13 -2 13 -4.11328125 13.8046875 C-4.73589844 13.86914062 -5.35851562 13.93359375 -6 14 C-4.125 3.375 -4.125 3.375 0 0 Z " fill="#DF87F4" transform="translate(161,121)"/>
<path d="M0 0 C2.3431213 0.25561323 4.67843403 0.59270772 7 1 C7.33 1.66 7.66 2.32 8 3 C8.99 3.33 9.98 3.66 11 4 C11 4.66 11 5.32 11 6 C9.5629191 6.05422947 8.12524538 6.09289723 6.6875 6.125 C5.88699219 6.14820312 5.08648437 6.17140625 4.26171875 6.1953125 C2 6 2 6 -1 4 C-0.67 2.68 -0.34 1.36 0 0 Z " fill="#D371F1" transform="translate(190,115)"/>
<path d="M0 0 C0.33 0.99 0.66 1.98 1 3 C1.99 3.33 2.98 3.66 4 4 C2.625 5.5 2.625 5.5 1 7 C0.34 7 -0.32 7 -1 7 C-1 7.99 -1 8.98 -1 10 C-1.66 10 -2.32 10 -3 10 C-3 10.66 -3 11.32 -3 12 C-3.66 12 -4.32 12 -5 12 C-5.33 12.66 -5.66 13.32 -6 14 C-5.41892368 10.2397015 -4.34800504 7.46964968 -2.4375 4.1875 C-1.98246094 3.39730469 -1.52742187 2.60710937 -1.05859375 1.79296875 C-0.53458984 0.90544922 -0.53458984 0.90544922 0 0 Z " fill="#DE74F5" transform="translate(144,155)"/>
<path d="M0 0 C0.66 0.66 1.32 1.32 2 2 C1.70486706 4.76539562 1.3017677 7.34846313 0.75 10.0625 C0.61464844 10.80822266 0.47929687 11.55394531 0.33984375 12.32226562 C-0.03117468 14.23110346 -0.5083022 16.11863087 -1 18 C-1.66 18.33 -2.32 18.66 -3 19 C-3.09038099 13.84828377 -2.84681133 9.08086796 -2 4 C-1.34 4 -0.68 4 0 4 C0 2.68 0 1.36 0 0 Z " fill="#CF96F5" transform="translate(348,143)"/>
<path d="M0 0 C0.66 0 1.32 0 2 0 C1.33655971 4.75465544 0.14187901 8.71624198 -2 13 C-2.99 13.33 -3.98 13.66 -5 14 C-4.34 11.03 -3.68 8.06 -3 5 C-2.34 5 -1.68 5 -1 5 C-0.67 3.35 -0.34 1.7 0 0 Z " fill="#FC74FC" transform="translate(145,352)"/>
<path d="M0 0 C1 3 1 3 0.14453125 5.2265625 C-0.29503906 6.01804687 -0.73460938 6.80953125 -1.1875 7.625 C-1.61417969 8.42164063 -2.04085937 9.21828125 -2.48046875 10.0390625 C-4 12 -4 12 -6.17578125 12.7734375 C-7.07876953 12.88558594 -7.07876953 12.88558594 -8 13 C-8.33 12.34 -8.66 11.68 -9 11 C-8.34 11 -7.68 11 -7 11 C-6.67 9.35 -6.34 7.7 -6 6 C-4.68 6 -3.36 6 -2 6 C-1.855625 5.195625 -1.71125 4.39125 -1.5625 3.5625 C-1 1 -1 1 0 0 Z " fill="#F343F6" transform="translate(92,263)"/>
<path d="M0 0 C-0.68886787 3.38891322 -1.98716486 6.18011613 -3.5625 9.25 C-4.01753906 10.14203125 -4.47257813 11.0340625 -4.94140625 11.953125 C-5.29074219 12.62859375 -5.64007813 13.3040625 -6 14 C-7.16835309 10.49494073 -6.75193262 9.33566718 -5.6875 5.875 C-5.42324219 4.98554688 -5.15898437 4.09609375 -4.88671875 3.1796875 C-3.75655889 0.40158529 -2.96956659 0 0 0 Z " fill="#D37CF4" transform="translate(244,160)"/>
<path d="M0 0 C0.66 0 1.32 0 2 0 C1.88556397 2.0839403 1.75804453 4.16716493 1.625 6.25 C1.55539062 7.41015625 1.48578125 8.5703125 1.4140625 9.765625 C1.03751692 12.70694334 0.5225877 14.49949011 -1 17 C-2.3357457 13.22628488 -1.72408671 10.14168653 -1.0625 6.25 C-0.86785156 5.07953125 -0.67320312 3.9090625 -0.47265625 2.703125 C-0.31667969 1.81109375 -0.16070312 0.9190625 0 0 Z " fill="#BC70ED" transform="translate(330,228)"/>
<path d="M0 0 C1.31223496 3.93670488 0.24296256 6.12488144 -1 10 C-1.66 10 -2.32 10 -3 10 C-3.33 11.65 -3.66 13.3 -4 15 C-4.66 15 -5.32 15 -6 15 C-5.54979057 9.14727744 -2.96160773 4.91779881 0 0 Z " fill="#FC72FC" transform="translate(67,308)"/>
<path d="M0 0 C0.66 0 1.32 0 2 0 C1.55009006 4.67906334 1.00028985 7.39965218 -2 11 C-2.71162443 12.64797236 -3.39031953 14.31165408 -4 16 C-5.46726798 12.18510326 -4.43336419 9.70988378 -3 6 C-2.34 6 -1.68 6 -1 6 C-0.67 4.02 -0.34 2.04 0 0 Z " fill="#EC12F2" transform="translate(98,249)"/>
<path d="M0 0 C0.66 0 1.32 0 2 0 C1.34 2.97 0.68 5.94 0 9 C-0.66 9 -1.32 9 -2 9 C-2.33 10.65 -2.66 12.3 -3 14 C-3.66 14 -4.32 14 -5 14 C-5 11.69 -5 9.38 -5 7 C-4.34 7 -3.68 7 -3 7 C-2.01 4.69 -1.02 2.38 0 0 Z " fill="#F88EFC" transform="translate(113,215)"/>
<path d="M0 0 C0.33 0 0.66 0 1 0 C0.91320858 2.46008778 0.80639045 4.91643517 0.6875 7.375 C0.66494141 8.07367188 0.64238281 8.77234375 0.61914062 9.4921875 C0.51171875 11.5234375 0.51171875 11.5234375 0 15 C-0.99 15.66 -1.98 16.32 -3 17 C-2.54775239 11.08507728 -1.8417395 5.64800112 0 0 Z " fill="#881CD2" transform="translate(325,248)"/>
<path d="M0 0 C0.66 0 1.32 0 2 0 C2.19392201 5.52677733 1.7479503 9.75614911 0 15 C-0.33 15 -0.66 15 -1 15 C-1.10251672 9.87416389 -1.03590199 5.05002222 0 0 Z " fill="#C674EC" transform="translate(257,134)"/>
<path d="M0 0 C0.66 0 1.32 0 2 0 C1.67 4.62 1.34 9.24 1 14 C0.34 14 -0.32 14 -1 14 C-1.18451025 4.58997722 -1.18451025 4.58997722 0 0 Z " fill="#E196F9" transform="translate(303,365)"/>
<path d="M0 0 C0.66 0.33 1.32 0.66 2 1 C0.02 4.96 -1.96 8.92 -4 13 C-4.66 13 -5.32 13 -6 13 C-5.67 11.02 -5.34 9.04 -5 7 C-4.34 7 -3.68 7 -3 7 C-2.87625 6.030625 -2.7525 5.06125 -2.625 4.0625 C-2.41875 3.051875 -2.2125 2.04125 -2 1 C-1.34 0.67 -0.68 0.34 0 0 Z " fill="#F47CFB" transform="translate(180,285)"/>
<path d="M0 0 C0.33 0 0.66 0 1 0 C1.49230769 6.4 1.49230769 6.4 -1 9.4375 C-1.99 10.2109375 -1.99 10.2109375 -3 11 C-4.25541557 7.23375329 -3.37061958 5.62811066 -2 2 C-1.34 2 -0.68 2 0 2 C0 1.34 0 0.68 0 0 Z " fill="#E252F3" transform="translate(183,275)"/>
<path d="M0 0 C0.33 0 0.66 0 1 0 C1.19392201 5.52677733 0.7479503 9.75614911 -1 15 C-1.33 15 -1.66 15 -2 15 C-2.21755666 9.5610835 -2.10428384 5.12919186 0 0 Z " fill="#DF9EF6" transform="translate(317,300)"/>
<path d="M0 0 C0.66 0 1.32 0 2 0 C2 1.98 2 3.96 2 6 C1.34 6 0.68 6 0 6 C-0.1546875 6.8971875 -0.1546875 6.8971875 -0.3125 7.8125 C-1.08876455 10.28243264 -2.07088921 11.32251235 -4 13 C-3.43786534 9.62719205 -2.56079776 7.02404566 -1 4 C-0.63215869 2.6757713 -0.28797019 1.34386088 0 0 Z " fill="#AE29E0" transform="translate(225,188)"/>
<path d="M0 0 C1.25541557 3.76624671 0.37061958 5.37188934 -1 9 C-1.66 9 -2.32 9 -3 9 C-3.33 10.65 -3.66 12.3 -4 14 C-4.66 14 -5.32 14 -6 14 C-5.41892368 10.2397015 -4.34800504 7.46964968 -2.4375 4.1875 C-1.98246094 3.39730469 -1.52742187 2.60710937 -1.05859375 1.79296875 C-0.53458984 0.90544922 -0.53458984 0.90544922 0 0 Z " fill="#E993F8" transform="translate(151,141)"/>
<path d="M0 0 C0.66 0 1.32 0 2 0 C2.08333357 4.8333472 1.95261487 9.23692563 1 14 C0.34 14 -0.32 14 -1 14 C-0.67 9.38 -0.34 4.76 0 0 Z " fill="#CE8AF3" transform="translate(260,118)"/>
<path d="M0 0 C0.66 0 1.32 0 2 0 C1.88655624 2.1464753 1.75893655 4.29220592 1.625 6.4375 C1.52058594 8.22994141 1.52058594 8.22994141 1.4140625 10.05859375 C1.27742188 11.02925781 1.14078125 11.99992187 1 13 C0.01 13.495 0.01 13.495 -1 14 C-1.08333357 9.1666528 -0.95261487 4.76307437 0 0 Z " fill="#E0A1F7" transform="translate(309,336)"/>
<path d="M0 0 C1.25541557 3.76624671 0.37061958 5.37188934 -1 9 C-1.66 9 -2.32 9 -3 9 C-3.33 10.32 -3.66 11.64 -4 13 C-4.66 13 -5.32 13 -6 13 C-4.31326082 8.50202887 -2.18326108 4.27113698 0 0 Z " fill="#F281FC" transform="translate(124,195)"/>
<path d="M0 0 C0.33 0 0.66 0 1 0 C1.19392201 5.52677733 0.7479503 9.75614911 -1 15 C-1.33 15 -1.66 15 -2 15 C-2.19392201 9.47322267 -1.7479503 5.24385089 0 0 Z " fill="#E3A0F8" transform="translate(248,182)"/>
<path d="M0 0 C2.31 0.33 4.62 0.66 7 1 C7 1.66 7 2.32 7 3 C8.32 3.33 9.64 3.66 11 4 C11 4.66 11 5.32 11 6 C11.99 6.33 12.98 6.66 14 7 C12.68 7.33 11.36 7.66 10 8 C10 7.01 10 6.02 10 5 C8.906875 4.9175 7.81375 4.835 6.6875 4.75 C3 4 3 4 1.0625 1.9375 C0.711875 1.298125 0.36125 0.65875 0 0 Z " fill="#AA1FDF" transform="translate(194,120)"/>
<path d="M0 0 C2.1464753 0.11344376 4.29220592 0.24106345 6.4375 0.375 C8.22994141 0.47941406 8.22994141 0.47941406 10.05859375 0.5859375 C11.02925781 0.72257812 11.99992187 0.85921875 13 1 C13.33 1.66 13.66 2.32 14 3 C9.1666528 3.08333357 4.76307437 2.95261487 0 2 C0 1.34 0 0.68 0 0 Z " fill="#D097F5" transform="translate(312,115)"/>
<path d="M0 0 C1 3 1 3 0.00390625 5.04296875 C-0.47175781 5.75066406 -0.94742188 6.45835937 -1.4375 7.1875 C-1.91058594 7.90292969 -2.38367187 8.61835938 -2.87109375 9.35546875 C-3.24363281 9.89816406 -3.61617187 10.44085938 -4 11 C-4.97591583 7.61682513 -4.85856655 5.4342662 -4 2 C-2.68 2 -1.36 2 0 2 C0 1.34 0 0.68 0 0 Z " fill="#FA2DFA" transform="translate(63,321)"/>
<path d="M0 0 C4.95 0 9.9 0 15 0 C14.67 1.32 14.34 2.64 14 4 C13.01 3.67 12.02 3.34 11 3 C8.96957011 3.00818722 6.96348238 3.12735151 4.9375 3.2578125 C3 3 3 3 0 0 Z " fill="#8518CE" transform="translate(290,113)"/>
<path d="M0 0 C0.66 0.33 1.32 0.66 2 1 C1.88648483 2.81325551 1.75887039 4.62563357 1.625 6.4375 C1.55539062 7.44683594 1.48578125 8.45617187 1.4140625 9.49609375 C1.27742188 10.32238281 1.14078125 11.14867187 1 12 C0.01 12.495 0.01 12.495 -1 13 C-1.0272415 11.58344207 -1.04650467 10.16672955 -1.0625 8.75 C-1.07410156 7.96109375 -1.08570313 7.1721875 -1.09765625 6.359375 C-1.00385306 4.09308998 -0.63241063 2.1711105 0 0 Z " fill="#E097F9" transform="translate(306,351)"/>
<path d="M0 0 C0.66 0 1.32 0 2 0 C1.5359375 1.051875 1.5359375 1.051875 1.0625 2.125 C-0.03302678 5.08936657 -0.56422992 7.87698108 -1 11 C-1.99 10.67 -2.98 10.34 -4 10 C-3.67 8.02 -3.34 6.04 -3 4 C-2.34 4 -1.68 4 -1 4 C-0.67 2.68 -0.34 1.36 0 0 Z " fill="#FB8AFC" transform="translate(151,342)"/>
<path d="M0 0 C0.66 0 1.32 0 2 0 C2.08159574 4.16138263 1.98248524 7.9472484 1 12 C0.34 12 -0.32 12 -1 12 C-0.67 8.04 -0.34 4.08 0 0 Z " fill="#8E1FD2" transform="translate(320,270)"/>
<path d="M0 0 C2.31 0 4.62 0 7 0 C7.103125 0.639375 7.20625 1.27875 7.3125 1.9375 C7.539375 2.618125 7.76625 3.29875 8 4 C8.99 4.33 9.98 4.66 11 5 C10.67 5.99 10.34 6.98 10 8 C9.4225 7.360625 8.845 6.72125 8.25 6.0625 C6.01937599 4.01776132 4.92563609 3.41794801 2 3 C2 2.34 2 1.68 2 1 C1.34 0.67 0.68 0.34 0 0 Z " fill="#9D24D8" transform="translate(234,140)"/>
<path d="M0 0 C4.12751449 0.60698743 7.3321148 2.03810791 11 4 C11 4.66 11 5.32 11 6 C8.03 5.505 8.03 5.505 5 5 C5 4.34 5 3.68 5 3 C3.35 2.67 1.7 2.34 0 2 C0 1.34 0 0.68 0 0 Z " fill="#D584F2" transform="translate(229,135)"/>
<path d="M0 0 C0.66 0.33 1.32 0.66 2 1 C1.23997083 2.31878578 0.46656347 3.6298684 -0.3125 4.9375 C-0.74175781 5.66839844 -1.17101562 6.39929688 -1.61328125 7.15234375 C-3 9 -3 9 -6 10 C-5.67 9.01 -5.34 8.02 -5 7 C-4.34 7 -3.68 7 -3 7 C-2.87625 6.030625 -2.7525 5.06125 -2.625 4.0625 C-2.41875 3.051875 -2.2125 2.04125 -2 1 C-1.34 0.67 -0.68 0.34 0 0 Z " fill="#FD89FD" transform="translate(133,379)"/>
<path d="M0 0 C2 2 2 2 2.25 4.4375 C2 7 2 7 0 10 C-0.66 10 -1.32 10 -2 10 C-1.85950482 8.52031676 -1.71245174 7.04125484 -1.5625 5.5625 C-1.48128906 4.73878906 -1.40007812 3.91507812 -1.31640625 3.06640625 C-1 1 -1 1 0 0 Z " fill="#C360EE" transform="translate(311,326)"/>
<path d="M0 0 C0.66 0 1.32 0 2 0 C1.67 1.98 1.34 3.96 1 6 C0.34 6 -0.32 6 -1 6 C-1.33 7.65 -1.66 9.3 -2 11 C-2.66 11 -3.32 11 -4 11 C-3.39301257 6.87248551 -1.96189209 3.6678852 0 0 Z " fill="#FC7EFC" transform="translate(72,297)"/>
<path d="M0 0 C0.66 0 1.32 0 2 0 C1.29445932 3.66881155 -0.27735506 6.70450534 -2 10 C-2.66 10 -3.32 10 -4 10 C-3.67 8.02 -3.34 6.04 -3 4 C-2.34 4 -1.68 4 -1 4 C-0.67 2.68 -0.34 1.36 0 0 Z " fill="#F087FA" transform="translate(188,268)"/>
<path d="M0 0 C0.33 0 0.66 0 1 0 C1.3690205 9.41002278 1.3690205 9.41002278 -1 14 C-1.33 14 -1.66 14 -2 14 C-1.85970581 11.8537974 -1.71261836 9.70803782 -1.5625 7.5625 C-1.48128906 6.36753906 -1.40007812 5.17257813 -1.31640625 3.94140625 C-1 1 -1 1 0 0 Z " fill="#E5ADF4" transform="translate(241,218)"/>
<path d="M0 0 C0.66 0 1.32 0 2 0 C2.21192221 5.19209404 1.5912689 9.126739 0 14 C-0.33 14 -0.66 14 -1 14 C-1.08333357 9.1666528 -0.95261487 4.76307437 0 0 Z " fill="#EDACFB" transform="translate(216,342)"/>
<path d="M0 0 C0.33 0 0.66 0 1 0 C1.28571429 7.42857143 1.28571429 7.42857143 -1 11 C-1.66 11 -2.32 11 -3 11 C-2.67 8.69 -2.34 6.38 -2 4 C-1.34 4 -0.68 4 0 4 C0 2.68 0 1.36 0 0 Z " fill="#DD8EF3" transform="translate(223,315)"/>
<path d="M0 0 C0.66 0.33 1.32 0.66 2 1 C2.19622241 5.21878192 1.80230168 8.17010894 0 12 C-0.33 12 -0.66 12 -1 12 C-1.08159574 7.83861737 -0.98248524 4.0527516 0 0 Z " fill="#931DD3" transform="translate(256,149)"/>
<path d="M0 0 C0.33 0 0.66 0 1 0 C1.2493357 1.60115576 1.47378648 3.20620159 1.6875 4.8125 C1.87892578 6.15248047 1.87892578 6.15248047 2.07421875 7.51953125 C2 10 2 10 0.51953125 11.82421875 C-0.23263672 12.40623047 -0.23263672 12.40623047 -1 13 C-1.33 10.69 -1.66 8.38 -2 6 C-1.34 6 -0.68 6 0 6 C0 4.02 0 2.04 0 0 Z " fill="#8632CD" transform="translate(348,134)"/>
<path d="M0 0 C2.97 0 5.94 0 9 0 C9 0.66 9 1.32 9 2 C9.99 2.33 10.98 2.66 12 3 C10.18674449 2.88648483 8.37436643 2.75887039 6.5625 2.625 C5.04849609 2.52058594 5.04849609 2.52058594 3.50390625 2.4140625 C2.67761719 2.27742188 1.85132813 2.14078125 1 2 C0.67 1.34 0.34 0.68 0 0 Z " fill="#7F1DCB" transform="translate(318,118)"/>
<path d="M0 0 C1.2065625 0.0309375 1.2065625 0.0309375 2.4375 0.0625 C2.1075 0.7225 1.7775 1.3825 1.4375 2.0625 C0.7775 2.0625 0.1175 2.0625 -0.5625 2.0625 C-0.85125 2.64 -1.14 3.2175 -1.4375 3.8125 C-2.47916667 5.89583333 -3.52083333 7.97916667 -4.5625 10.0625 C-4.42200482 8.58281676 -4.27495174 7.10375484 -4.125 5.625 C-4.04378906 4.80128906 -3.96257812 3.97757812 -3.87890625 3.12890625 C-3.4093501 0.06229881 -3.15462671 0.07694211 0 0 Z " fill="#8915D4" transform="translate(268.5625,109.9375)"/>
<path d="M0 0 C2.97 0.495 2.97 0.495 6 1 C3.42947929 3.01969485 0.91490045 4.54254977 -2 6 C-2.66 6.66 -3.32 7.32 -4 8 C-3.49396008 5.83125748 -3.00016187 4.00032373 -2 2 C-1.34 2 -0.68 2 0 2 C0 1.34 0 0.68 0 0 Z " fill="#B32BDE" transform="translate(171,109)"/>
<path d="M0 0 C3.63 0 7.26 0 11 0 C11 0.66 11 1.32 11 2 C6.98195309 2.84098656 3.98196457 3.05404945 0 2 C0 1.34 0 0.68 0 0 Z " fill="#983ED3" transform="translate(268,108)"/>
<path d="M0 0 C0.99 0.495 0.99 0.495 2 1 C2.6328125 3.28515625 2.6328125 3.28515625 3.125 6.0625 C3.29257813 6.98160156 3.46015625 7.90070313 3.6328125 8.84765625 C3.75398437 9.55792969 3.87515625 10.26820313 4 11 C3.01 10.67 2.02 10.34 1 10 C-0.1577506 6.52674819 -0.06866652 3.63932552 0 0 Z " fill="#E596F8" transform="translate(212,364)"/>
<path d="M0 0 C0.33 0 0.66 0 1 0 C1.125 6.75 1.125 6.75 0 9 C-0.66 9 -1.32 9 -2 9 C-2.125 5.625 -2.125 5.625 -2 2 C-1.34 1.34 -0.68 0.68 0 0 Z " fill="#B45FE4" transform="translate(324,263)"/>
<path d="M0 0 C8.03571429 -0.40178571 8.03571429 -0.40178571 12 3 C10.18674449 2.88648483 8.37436643 2.75887039 6.5625 2.625 C5.04849609 2.52058594 5.04849609 2.52058594 3.50390625 2.4140625 C2.67761719 2.27742188 1.85132813 2.14078125 1 2 C0.67 1.34 0.34 0.68 0 0 Z " fill="#F2AFFD" transform="translate(228,379)"/>
<path d="M0 0 C7.75 -0.125 7.75 -0.125 10 1 C10 1.66 10 2.32 10 3 C7.36 3 4.72 3 2 3 C2 2.34 2 1.68 2 1 C1.34 0.67 0.68 0.34 0 0 Z " fill="#C147ED" transform="translate(226,376)"/>
<path d="M0 0 C0.66 0 1.32 0 2 0 C1.67 2.31 1.34 4.62 1 7 C0.01 7.33 -0.98 7.66 -2 8 C-1.125 1.125 -1.125 1.125 0 0 Z " fill="#C230E6" transform="translate(206,227)"/>
<path d="M0 0 C0.33 0 0.66 0 1 0 C1 2.97 1 5.94 1 9 C0.34 9 -0.32 9 -1 9 C-1.33 10.32 -1.66 11.64 -2 13 C-3.18414294 9.44757118 -2.69535532 8.30169438 -1.5625 4.8125 C-1.27503906 3.91144531 -0.98757813 3.01039063 -0.69140625 2.08203125 C-0.46324219 1.39496094 -0.23507812 0.70789063 0 0 Z " fill="#801ACD" transform="translate(331,219)"/>
<path d="M0 0 C0.66 0 1.32 0 2 0 C1.67 2.64 1.34 5.28 1 8 C0.01 8 -0.98 8 -2 8 C-1.47731534 5.23723823 -0.89130413 2.6739124 0 0 Z " fill="#AA55E6" transform="translate(336,200)"/>
<path d="M0 0 C0.66 0 1.32 0 2 0 C2.103125 0.639375 2.20625 1.27875 2.3125 1.9375 C2.539375 2.618125 2.76625 3.29875 3 4 C3.99 4.33 4.98 4.66 6 5 C6 5.66 6 6.32 6 7 C5.01 7 4.02 7 3 7 C3 6.34 3 5.68 3 5 C2.01 4.67 1.02 4.34 0 4 C0 2.68 0 1.36 0 0 Z " fill="#C185EE" transform="translate(360,381)"/>
<path d="M0 0 C0.66 0 1.32 0 2 0 C1.57576756 1.46224799 1.13509755 2.91973412 0.6875 4.375 C0.44386719 5.18710938 0.20023438 5.99921875 -0.05078125 6.8359375 C-1 9 -1 9 -4 11 C-4 10.01 -4 9.02 -4 8 C-3.34 8 -2.68 8 -2 8 C-1.855625 6.865625 -1.71125 5.73125 -1.5625 4.5625 C-1 1 -1 1 0 0 Z " fill="#EA99F9" transform="translate(215,214)"/>
<path d="M0 0 C4.95 0.99 4.95 0.99 10 2 C10 2.66 10 3.32 10 4 C3.375 3.375 3.375 3.375 0 0 Z " fill="#B429E3" transform="translate(180,113)"/>
<path d="M0 0 C0.66 0 1.32 0 2 0 C2 2.31 2 4.62 2 7 C0.68 7.33 -0.64 7.66 -2 8 C-1.125 2.25 -1.125 2.25 0 0 Z " fill="#ECACFC" transform="translate(232,180)"/>
<path d="M0 0 C0.66 0 1.32 0 2 0 C1.4140625 6.15234375 1.4140625 6.15234375 1 8 C0.01 8.495 0.01 8.495 -1 9 C-1.09765625 2.84765625 -1.09765625 2.84765625 -1 1 C-0.67 0.67 -0.34 0.34 0 0 Z " fill="#C268EC" transform="translate(253,160)"/>
<path d="M0 0 C0.66 0.33 1.32 0.66 2 1 C2 2.32 2 3.64 2 5 C1.34 5 0.68 5 0 5 C-0.33 5.99 -0.66 6.98 -1 8 C-1.66 8 -2.32 8 -3 8 C-3 7.01 -3 6.02 -3 5 C-2.34 5 -1.68 5 -1 5 C-0.67 3.35 -0.34 1.7 0 0 Z " fill="#BF29E6" transform="translate(148,150)"/>
<path d="M0 0 C2.31 0 4.62 0 7 0 C6.67 0.99 6.34 1.98 6 3 C3.69 3 1.38 3 -1 3 C-0.67 2.01 -0.34 1.02 0 0 Z " fill="#770BC9" transform="translate(332,121)"/>
<path d="M0 0 C2.64 0.33 5.28 0.66 8 1 C8 1.99 8 2.98 8 4 C5.125 3.6875 5.125 3.6875 2 3 C1.34 2.01 0.68 1.02 0 0 Z " fill="#FB77FC" transform="translate(69,365)"/>
<path d="M0 0 C0.66 0.33 1.32 0.66 2 1 C2 2.98 2 4.96 2 7 C1.01 7.33 0.02 7.66 -1 8 C-1.33 6.02 -1.66 4.04 -2 2 C-1.34 2 -0.68 2 0 2 C0 1.34 0 0.68 0 0 Z " fill="#C34AE8" transform="translate(222,324)"/>
<path d="M0 0 C0.66 0 1.32 0 2 0 C1.50351065 4.46840411 1.31012244 5.68987756 -2 9 C-1.34 6.03 -0.68 3.06 0 0 Z " fill="#EF95FC" transform="translate(202,239)"/>
<path d="M0 0 C3.14737182 0.69941596 6.02588876 1.76078698 9 3 C6.21176345 4.0326802 5.1322726 4.04509293 2.25 3.0625 C1.5075 2.711875 0.765 2.36125 0 2 C0 1.34 0 0.68 0 0 Z " fill="#F81BF8" transform="translate(109,383)"/>
<path d="M0 0 C0.66 0 1.32 0 2 0 C1.50351065 4.46840411 1.31012244 5.68987756 -2 9 C-1.34 6.03 -0.68 3.06 0 0 Z " fill="#EA95FA" transform="translate(209,225)"/>
<path d="M0 0 C0.98120464 3.05263664 0.98120464 4.94736336 0 8 C-0.66 8 -1.32 8 -2 8 C-2.125 5.125 -2.125 5.125 -2 2 C-1.34 1.34 -0.68 0.68 0 0 Z " fill="#D179F4" transform="translate(244,210)"/>
<path d="M0 0 C0.33 0 0.66 0 1 0 C0.67 2.64 0.34 5.28 0 8 C-0.99 8.33 -1.98 8.66 -3 9 C-2.67 7.35 -2.34 5.7 -2 4 C-1.34 4 -0.68 4 0 4 C0 2.68 0 1.36 0 0 Z " fill="#9F26DA" transform="translate(244,152)"/>
<path d="M0 0 C3.82097239 0.53069061 6.06171403 1.49701566 9 4 C2.25 3.125 2.25 3.125 0 2 C0 1.34 0 0.68 0 0 Z " fill="#E293F9" transform="translate(201,121)"/>
<path d="M0 0 C0.66 0 1.32 0 2 0 C2 0.66 2 1.32 2 2 C1.34 2 0.68 2 0 2 C0 1.34 0 0.68 0 0 Z " fill="#FDF7FD" transform="translate(158,333)"/>
<path d="M0 0 C0.66 0 1.32 0 2 0 C2 0.66 2 1.32 2 2 C1.34 2 0.68 2 0 2 C0 1.34 0 0.68 0 0 Z " fill="#FEF9FF" transform="translate(316,316)"/>
<path d="M0 0 C0.66 0 1.32 0 2 0 C2 0.66 2 1.32 2 2 C1.34 2 0.68 2 0 2 C0 1.34 0 0.68 0 0 Z " fill="#FFFFFF" transform="translate(343,195)"/>
<path d="M0 0 C2 1 2 1 2 1 Z " fill="#FFF2FF" transform="translate(98,382)"/>
<path d="" fill="#FFF6FF" transform="translate(0,0)"/>
<path d="" fill="#FEFDFE" transform="translate(0,0)"/>
<path d="M0 0 C2 1 2 1 2 1 Z " fill="#FEF8FF" transform="translate(333,228)"/>
<path d="" fill="#FEFDFD" transform="translate(0,0)"/>
<path d="M0 0 C2 1 2 1 2 1 Z " fill="#FFFDFE" transform="translate(108,218)"/>
<path d="M0 0 C2 1 2 1 2 1 Z " fill="#FCFAFA" transform="translate(353,130)"/>
<path d="" fill="#FFF5FF" transform="translate(0,0)"/>
<path d="M0 0 C2 1 2 1 2 1 Z " fill="#FFFFFF" transform="translate(298,110)"/>
<path d="" fill="#FFF4FF" transform="translate(0,0)"/>
<path d="" fill="#FFF6FF" transform="translate(0,0)"/>
<path d="" fill="#FFFDFF" transform="translate(0,0)"/>
<path d="" fill="#FFFFFF" transform="translate(0,0)"/>
<path d="" fill="#FFF9FF" transform="translate(0,0)"/>
<path d="" fill="#FFFBFF" transform="translate(0,0)"/>
<path d="" fill="#FDFDFB" transform="translate(0,0)"/>
<path d="" fill="#FFF8FF" transform="translate(0,0)"/>
<path d="" fill="#FEFEFC" transform="translate(0,0)"/>
<path d="" fill="#FFFFFF" transform="translate(0,0)"/>
<path d="" fill="#FCFBFE" transform="translate(0,0)"/>
<path d="" fill="#FFF8FF" transform="translate(0,0)"/>
<path d="" fill="#FFF4FF" transform="translate(0,0)"/>
<path d="" fill="#FFF2FF" transform="translate(0,0)"/>
<path d="" fill="#FCF9FC" transform="translate(0,0)"/>
<path d="" fill="#FFFAFF" transform="translate(0,0)"/>
<path d="" fill="#FFF1FF" transform="translate(0,0)"/>
<path d="" fill="#FFF5FF" transform="translate(0,0)"/>
<path d="" fill="#FFF4FF" transform="translate(0,0)"/>
<path d="" fill="#FFF8FF" transform="translate(0,0)"/>
<path d="" fill="#FFF9FF" transform="translate(0,0)"/>
<path d="" fill="#FFF7FF" transform="translate(0,0)"/>
<path d="" fill="#FFFFFF" transform="translate(0,0)"/>
<path d="" fill="#FFFFFF" transform="translate(0,0)"/>
</svg>
