<?xml version="1.0" standalone="no"?>
<!DOCTYPE svg PUBLIC "-//W3C//DTD SVG 20010904//EN"
 "http://www.w3.org/TR/2001/REC-SVG-20010904/DTD/svg10.dtd">
<svg version="1.0" xmlns="http://www.w3.org/2000/svg"
 width="876.000000pt" height="995.000000pt" viewBox="0 0 876.000000 995.000000"
 preserveAspectRatio="xMidYMid meet">

<g transform="translate(0.000000,995.000000) scale(0.100000,-0.100000)"
fill="#166534" stroke="none">
<path d="M4590 9930 c-424 -40 -780 -113 -1160 -240 -943 -314 -1770 -911
-2375 -1715 -480 -638 -797 -1380 -929 -2170 -52 -312 -60 -424 -61 -825 0
-206 4 -402 8 -434 l9 -59 466 466 467 467 22 167 c90 683 331 1329 710 1907
561 854 1391 1495 2353 1816 302 101 615 169 952 207 213 24 712 24 926 0
1026 -116 1934 -540 2666 -1246 89 -85 89 -85 35 -21 -89 106 -326 345 -450
455 -775 683 -1674 1084 -2719 1211 -156 19 -765 28 -920 14z"/>
<path d="M3870 7403 c0 -3 38 -57 84 -121 359 -501 699 -1103 944 -1672 416
-969 651 -2034 679 -3080 4 -140 10 -223 14 -205 4 17 19 120 33 230 141 1094
107 2013 -104 2854 -101 403 -233 766 -415 1146 -37 75 -64 139 -61 142 2 3
428 2 946 -2 l941 -8 63 -81 c333 -426 563 -1052 707 -1921 32 -196 89 -625
89 -677 1 -73 18 3 34 147 116 1065 -91 2029 -632 2932 l-67 112 -60 6 c-33 3
-746 48 -1585 100 -839 52 -1544 96 -1567 98 -24 3 -43 2 -43 0z"/>
<path d="M2610 6515 c-580 -217 -1063 -398 -1073 -402 -15 -7 9 -27 130 -103
1090 -690 2071 -1652 2968 -2910 133 -187 416 -609 520 -777 38 -62 71 -111
72 -109 5 4 -97 300 -172 501 -488 1301 -1155 2322 -2022 3093 l-93 82 540
270 c297 149 540 272 540 274 0 14 -334 476 -343 475 -7 0 -487 -178 -1067
-394z"/>
<path d="M5780 6389 c-102 -3 -211 -7 -242 -8 l-58 -1 0 -44 0 -44 178 -6 c97
-3 224 -7 282 -9 l105 -2 3 63 3 62 -43 -2 c-24 -1 -126 -5 -228 -9z"/>
<path d="M6265 5775 c-264 -7 -481 -13 -483 -14 -2 0 -2 -34 0 -73 l3 -73 485
-11 c267 -7 567 -12 668 -13 l182 -1 0 100 0 100 -187 -2 c-104 0 -404 -7
-668 -13z"/>
<path d="M822 4667 l-813 -813 183 -18 c1390 -131 2698 -569 3973 -1329 94
-56 293 -184 444 -284 151 -101 268 -175 260 -166 -185 222 -534 578 -775 789
-736 647 -1511 1100 -2442 1430 -89 31 -161 60 -160 64 2 5 157 180 345 390
l342 383 -271 183 c-149 101 -271 184 -272 184 -1 0 -367 -366 -814 -813z"/>
<path d="M6630 5134 c-338 -6 -637 -12 -663 -13 l-48 -1 3 -57 3 -58 270 -6
c149 -4 449 -10 668 -14 l397 -7 0 86 c0 47 -3 85 -7 84 -5 0 -285 -7 -623
-14z"/>
<path d="M6645 4505 c-335 -7 -611 -12 -612 -13 -2 -1 -3 -27 -3 -57 0 -49 2
-55 23 -59 12 -3 247 -7 522 -11 275 -3 582 -8 683 -12 l182 -6 0 87 0 86 -92
-2 c-51 -1 -367 -7 -703 -13z"/>
<path d="M348 3293 c190 -543 480 -1051 870 -1523 111 -134 467 -492 597 -602
320 -268 644 -479 1010 -658 232 -114 392 -180 618 -254 889 -295 1864 -326
2767 -90 707 185 1347 517 1920 995 134 112 436 407 540 529 l64 75 -94 -90
c-1052 -1003 -2454 -1436 -3880 -1199 -729 121 -1455 447 -2041 916 -577 461
-1033 1051 -1330 1721 -32 72 -64 134 -71 138 -21 11 -327 75 -523 108 -139
23 -467 71 -491 71 -2 0 18 -62 44 -137z"/>
</g>
</svg>
