<?xml version="1.0" encoding="UTF-8"?>
<svg version="1.1" xmlns="http://www.w3.org/2000/svg" width="455" height="398">
<path d="M0 0 C150.15 0 300.3 0 455 0 C455 131.34 455 262.68 455 398 C304.85 398 154.7 398 0 398 C0 266.66 0 135.32 0 0 Z " fill="#FEFEFE" transform="translate(0,0)"/>
<path d="M0 0 C1.17130463 -0.00014603 2.34260925 -0.00029205 3.54940796 -0.0004425 C7.41267767 0.00025296 11.27589889 0.0080283 15.13916016 0.01586914 C17.82101523 0.01773462 20.50286764 0.01920712 23.1847229 0.02015686 C29.51690636 0.02326012 35.84907247 0.03145993 42.18124831 0.04150635 C49.39285605 0.05269874 56.60446463 0.05818581 63.8160789 0.06320179 C78.64513567 0.07364341 93.47417886 0.09122334 108.30322266 0.11352539 C108.34543709 4.61145846 108.32282117 8.96000371 107.75244141 13.42797852 C107.630625 14.40154297 107.50880859 15.37510742 107.38330078 16.37817383 C107.18897461 17.8713916 107.18897461 17.8713916 106.99072266 19.39477539 C106.87277344 20.3303125 106.75482422 21.26584961 106.63330078 22.22973633 C106.19536314 25.69168951 105.74879503 29.15254656 105.30322266 32.61352539 C104.31322266 40.36852539 103.32322266 48.12352539 102.30322266 56.11352539 C74.58322266 56.11352539 46.86322266 56.11352539 18.30322266 56.11352539 C23.88181137 63.55164368 29.47046347 70.97673425 35.11572266 78.36352539 C39.91738631 84.65344693 44.69650349 90.95833734 49.42822266 97.30102539 C57.78365205 108.48615262 66.41925723 119.45542945 75.05322266 130.42602539 C80.18711007 136.94991789 85.26136772 143.51830523 90.30322266 150.11352539 C91.17140625 151.24854492 91.17140625 151.24854492 92.05712891 152.40649414 C99.96678566 162.75239015 107.83492268 173.12762595 115.63110352 183.55932617 C118.96206308 188.01089585 122.31389848 192.44509744 125.69384766 196.85961914 C126.42152344 197.81030273 127.14919922 198.76098633 127.89892578 199.74047852 C129.30155559 201.57038269 130.70639226 203.39859809 132.11376953 205.22485352 C132.74863281 206.05307617 133.38349609 206.88129883 134.03759766 207.73461914 C134.59672852 208.46092529 135.15585937 209.18723145 135.73193359 209.93554688 C137.40400945 212.25322692 138.86608708 214.64456546 140.30322266 217.11352539 C139.89185059 217.7806958 139.48047852 218.44786621 139.05664062 219.13525391 C123.11832644 243.43284495 123.11832644 243.43284495 109.07647705 268.71843433 C107.30322266 271.11352539 107.30322266 271.11352539 104.72047424 271.72317791 C103.15570595 271.71236801 103.15570595 271.71236801 101.55932617 271.70133972 C100.36048798 271.70532272 99.16164978 271.70930573 97.92648315 271.71340942 C96.60834625 271.69229095 95.29020935 271.67117249 93.93212891 271.64941406 C92.53037058 271.64472863 91.12860326 271.64227685 89.72683716 271.64189148 C86.69988108 271.63624182 83.67359304 271.6147165 80.64682007 271.58104515 C75.8230603 271.52752643 70.99955073 271.50934603 66.17553711 271.49568176 C58.50000825 271.46975169 50.82484117 271.42012695 43.14950657 271.36053687 C29.53021565 271.2551648 15.91077362 271.18248699 2.29118633 271.12870008 C-2.4632135 271.1089252 -7.21730943 271.07683306 -11.97155857 271.03445631 C-29.31493725 270.88731932 -46.53003185 271.22658706 -63.8384552 272.40304089 C-91.32964872 274.26042347 -91.32964872 274.26042347 -98.69677734 269.11352539 C-101.26140654 266.23803205 -101.65412255 264.71213849 -101.92724609 260.87915039 C-101.67028076 256.68059823 -100.68899017 253.99644922 -98.94677734 250.17602539 C-98.64167236 249.50418213 -98.33656738 248.83233887 -98.0222168 248.14013672 C-91.78172106 234.59163243 -84.93026323 221.3205737 -77.96630859 208.13305664 C-72.61892314 198.00597571 -67.40031856 187.8150785 -62.19677734 177.61352539 C-56.94032724 167.30824428 -51.66989455 157.01158115 -46.29052734 146.76977539 C-45.88765503 146.00137329 -45.48478271 145.23297119 -45.06970215 144.44128418 C-42.69992983 139.94455732 -40.24332665 135.5126385 -37.69677734 131.11352539 C-34.2166333 134.3162092 -31.68610304 137.91732388 -29.13427734 141.86352539 C-28.2485529 143.21183534 -27.36179855 144.55946918 -26.47412109 145.90649414 C-26.01763184 146.60049316 -25.56114258 147.29449219 -25.09082031 148.00952148 C-22.82898448 151.4232695 -20.51637118 154.80135995 -18.19677734 158.17602539 C-17.74584717 158.83610596 -17.29491699 159.49618652 -16.83032227 160.17626953 C-14.53235411 163.52253442 -12.18842143 166.81798482 -9.74365234 170.05883789 C-9.27378906 170.68910889 -8.80392578 171.31937988 -8.31982422 171.96875 C-7.42783513 173.15907328 -6.52346591 174.34025453 -5.60498047 175.51025391 C-2.63246379 179.49388394 -2.63246379 179.49388394 -2.93603516 182.41870117 C-3.79864224 185.47436774 -4.91669527 188.29915488 -6.16552734 191.21899414 C-6.65408203 192.3669043 -7.14263672 193.51481445 -7.64599609 194.69750977 C-8.15775391 195.88666992 -8.66951172 197.07583008 -9.19677734 198.30102539 C-9.70853516 199.50178711 -10.22029297 200.70254883 -10.74755859 201.93969727 C-14.48016899 210.68030869 -14.48016899 210.68030869 -15.69677734 213.11352539 C11.03322266 212.78352539 37.76322266 212.45352539 65.30322266 212.11352539 C58.37322266 202.70852539 58.37322266 202.70852539 51.30322266 193.11352539 C44.30322266 183.61352539 44.30322266 183.61352539 40.80712891 178.86743164 C38.46310248 175.68601928 36.11651384 172.50651923 33.76806641 169.32836914 C27.52851194 160.88012282 21.33258045 152.40345955 15.1953125 143.88061523 C9.54604183 136.04475054 3.81009373 128.27359685 -1.93066406 120.50463867 C-4.85633837 116.54361377 -7.7762804 112.57836822 -10.69677734 108.61352539 C-11.86341625 107.0301716 -13.03008292 105.44683827 -14.19677734 103.86352539 C-21.19677734 94.36352539 -21.19677734 94.36352539 -22.94873047 91.98583984 C-24.10884225 90.41142557 -25.2689981 88.83704376 -26.42919922 87.26269531 C-29.44652812 83.1681732 -32.46296046 79.07299478 -35.47802734 74.97680664 C-36.10064453 74.13118164 -36.72326172 73.28555664 -37.36474609 72.41430664 C-38.54472125 70.81165381 -39.7244297 69.20880456 -40.90380859 67.60571289 C-41.44392578 66.87223633 -41.98404297 66.13875977 -42.54052734 65.38305664 C-43.06074463 64.67342773 -43.58096191 63.96379883 -44.11694336 63.23266602 C-45.19676206 61.78423049 -46.29734497 60.35110568 -47.4152832 58.93188477 C-47.96063721 58.23514648 -48.50599121 57.5384082 -49.06787109 56.82055664 C-49.80541626 55.89786987 -49.80541626 55.89786987 -50.55786133 54.95654297 C-52.73899129 51.42699311 -52.28598668 48.08324888 -51.69677734 44.11352539 C-51.53822266 43.0371582 -51.37966797 41.96079102 -51.21630859 40.85180664 C-48.81662588 27.63173641 -43.44077848 16.02215203 -32.72412109 7.55493164 C-22.65132544 0.80635881 -11.80153789 -0.03855441 0 0 Z " fill="#176534" transform="translate(131.69677734375,29.886474609375)"/>
<path d="M0 0 C15.1088467 -0.11735274 30.21767227 -0.20524038 45.32687378 -0.25906086 C52.34404839 -0.28472678 59.36093809 -0.3196514 66.37792969 -0.37719727 C73.16014266 -0.43279071 79.94206063 -0.46149101 86.7244873 -0.47438622 C89.30143873 -0.48356625 91.87837554 -0.50149141 94.4552002 -0.52865028 C108.52475873 -0.67093057 120.89480902 -0.52714935 134 5 C134.87436707 5.35187378 135.74873413 5.70374756 136.64959717 6.06628418 C138.6121637 6.88087742 140.48816915 7.77409746 142.375 8.75 C143.36185791 9.25478882 143.36185791 9.25478882 144.36865234 9.76977539 C155.80125343 15.87024722 164.42418202 24.98255591 168.38696289 37.40820312 C169.53006694 42.24101579 169.52997032 47.05413867 169.5 52 C169.49427979 53.09997314 169.48855957 54.19994629 169.48266602 55.33325195 C169.27531879 64.89147048 167.67410269 73.19407203 164 82 C163.74299316 82.61907227 163.48598633 83.23814453 163.22119141 83.87597656 C157.75996782 96.58195409 148.4001513 112.38093839 135.203125 118.2421875 C134.47609375 118.49226563 133.7490625 118.74234375 133 119 C133 119.66 133 120.32 133 121 C133.556875 121.2475 134.11375 121.495 134.6875 121.75 C144.94554881 127.29489125 151.63760049 139.13224445 155 150 C155.28810547 150.89138672 155.28810547 150.89138672 155.58203125 151.80078125 C157.33091899 161.00287282 156.20345893 171.00486703 154 180 C153.81695312 181.00675781 153.63390625 182.01351562 153.4453125 183.05078125 C148.20359933 211.1036536 133.65226022 236.4063075 109.89941406 252.7578125 C95.20495086 262.36776479 79.50662529 268.17804352 62 270 C60.78521973 270.13136353 60.78521973 270.13136353 59.54589844 270.26538086 C50.60621088 271.1335415 41.72002166 271.11418636 32.75 271.0625 C31.21484522 271.05747043 29.67968884 271.05291012 28.14453125 271.04882812 C24.4296533 271.03794839 20.71483741 271.02076577 17 271 C20.3277353 264.79779961 23.70511659 258.67842747 27.5 252.75 C32.40168522 245.00267017 37.169369 237.17731725 41.9140625 229.33300781 C53.07132986 210.92867014 53.07132986 210.92867014 55 209 C56.9935189 208.94292152 58.98729384 208.89040103 60.98144531 208.86328125 C69.56561504 208.68579543 76.44196815 208.13033412 83 202 C89.63403123 194.80106218 92.8081635 184.69196633 93.75 175.0625 C93.62184439 172.27383403 93.25681589 171.28713873 91.37890625 169.1875 C86.44498606 165.30751739 81.4518197 162.82837055 75.11791992 162.58935547 C74.17732224 162.54946503 73.23672455 162.50957458 72.2676239 162.46847534 C71.2653627 162.43505035 70.2631015 162.40162537 69.23046875 162.3671875 C67.67625969 162.30484421 67.67625969 162.30484421 66.09065247 162.24124146 C62.78986422 162.11076519 59.48876531 161.99272215 56.1875 161.875 C53.94593178 161.78858043 51.70439465 161.70135028 49.46289062 161.61328125 C43.97558615 161.39945619 38.48797456 161.19582997 33 161 C32.93402115 161.67501556 32.8680423 162.35003113 32.80006409 163.04550171 C32.71208054 163.93718048 32.62409698 164.82885925 32.53344727 165.74755859 C32.40354149 167.06945694 32.40354149 167.06945694 32.27101135 168.4180603 C31.9121905 171.83656583 31.43762267 175.22416583 30.9375 178.625 C30.76089844 179.83414063 30.58429688 181.04328125 30.40234375 182.2890625 C30.26957031 183.18367187 30.13679688 184.07828125 30 185 C29.34 185 28.68 185 28 185 C26.50079796 183.07333953 25.11935454 181.1418388 23.75 179.125 C19.75276573 173.37879054 15.57860334 167.8129685 11.25 162.3125 C4.44676086 153.64820096 -2.1055245 144.81249542 -8.59643555 135.91259766 C-9.98839467 133.95847881 -9.98839467 133.95847881 -11.66186523 132.10131836 C-15.82088446 125.57026956 -12.65908697 113.88562555 -11.625 106.5625 C-10.63733288 99.41199165 -9.81540262 92.26529772 -9.15625 85.078125 C-8.22986435 75.03347113 -7.15464993 65.00727512 -6.0546875 54.98046875 C-5.96703754 54.18141176 -5.87938759 53.38235477 -5.78908157 52.55908394 C-5.24586358 47.61186825 -4.700326 42.6649102 -4.1541748 37.71801758 C-3.6836898 33.45341147 -3.21497587 29.18861071 -2.74609375 24.92382812 C-1.83242031 16.61569858 -0.91684752 8.30777986 0 0 Z " fill="#166534" transform="translate(256,30)"/>
<path d="M0 0 C50.69713249 -0.41011993 50.69713249 -0.41011993 59.1875 7.625 C62.2047572 13.243341 60.8762498 17.82582979 59.234375 23.7734375 C55.71088673 34.43348251 50.86067117 41.47802415 41 47 C38.60417654 48.19791173 37.13222462 48.1206744 34.45849609 48.11352539 C33.51767181 48.11344986 32.57684753 48.11337433 31.60751343 48.11329651 C30.58976837 48.10813522 29.57202332 48.10297394 28.5234375 48.09765625 C27.48305328 48.0962413 26.44266907 48.09482635 25.37075806 48.09336853 C22.03880979 48.08775866 18.70692805 48.07520447 15.375 48.0625 C13.11979264 48.05748627 10.86458422 48.05292314 8.609375 48.04882812 C3.07289386 48.03778603 -2.46354832 48.02103827 -8 48 C-7.45631556 40.09225743 -6.53296311 32.36152437 -5.125 24.5625 C-4.86154785 23.07351196 -4.86154785 23.07351196 -4.59277344 21.55444336 C-3.28944057 14.30746319 -1.77606229 7.14657234 0 0 Z " fill="#FCFDFD" transform="translate(307,78)"/>
</svg>
