<?xml version="1.0" encoding="UTF-8"?>
<svg version="1.1" xmlns="http://www.w3.org/2000/svg" width="1896" height="1658">
<path d="M0 0 C1.9921376 -0.00115422 3.98427499 -0.00274377 5.97641194 -0.00472724 C11.41335233 -0.00887866 16.85027504 -0.00684896 22.28721547 -0.00374103 C28.16432769 -0.00147022 34.04143696 -0.00497475 39.91854858 -0.00772095 C51.41315201 -0.0121585 62.90774888 -0.01121148 74.40235256 -0.00830831 C83.73884826 -0.0060479 93.0753426 -0.00571813 102.41183853 -0.00683212 C103.07610877 -0.00690851 103.740379 -0.00698489 104.42477864 -0.00706359 C107.12137235 -0.00737494 109.81796607 -0.00769334 112.51455978 -0.00802336 C137.7750753 -0.01107797 163.03558725 -0.00831496 188.29610222 -0.00292646 C210.74762515 0.00182636 233.1991424 0.00138758 255.65066528 -0.00338745 C280.88724547 -0.00873691 306.12382251 -0.01086898 331.36040318 -0.00777519 C334.04763293 -0.00745447 336.73486268 -0.00714163 339.42209244 -0.00683212 C340.41456339 -0.00671351 340.41456339 -0.00671351 341.42708426 -0.00659249 C351.43104425 -0.00545364 361.43500151 -0.0067939 371.43896103 -0.00931168 C382.79962709 -0.01210814 394.16028623 -0.01137438 405.52095149 -0.00603093 C411.32154676 -0.00339294 417.12213048 -0.0023906 422.92272568 -0.00568008 C428.22303239 -0.0086406 433.52331675 -0.0070544 438.82362141 -0.00170253 C440.74982661 -0.00057738 442.67603366 -0.00117166 444.60223769 -0.00357832 C447.20244242 -0.00658017 449.8025686 -0.00354011 452.40276909 0.0011425 C453.16594017 -0.00119866 453.92911126 -0.00353983 454.71540874 -0.00595194 C459.86610456 0.01283307 459.86610456 0.01283307 460.98025513 1.12698364 C463.41251053 31.94509028 458.14769217 63.78917456 454.16602969 94.28117776 C453.5237171 99.21386338 452.89136458 104.14782767 452.25761414 109.08161926 C451.19716886 117.325987 450.12979018 125.56943206 449.05764771 133.81228638 C447.81797778 143.34351807 446.58789258 152.87594888 445.36306804 162.40909892 C444.05281905 172.60652984 442.73606226 182.80311233 441.41719174 192.99943137 C441.03870366 195.92888888 440.66140748 198.85849789 440.28436089 201.78814125 C439.69498112 206.36490208 439.10123473 210.94107556 438.50400925 215.516819 C438.28524093 217.19812827 438.06794109 218.87962933 437.85217857 220.56132698 C437.55882185 222.84577887 437.2602399 225.12948577 436.96022034 227.41307068 C436.71108462 229.33325248 436.71108462 229.33325248 436.45691586 231.29222584 C435.98025513 234.12698364 435.98025513 234.12698364 434.98025513 235.12698364 C433.12974059 235.22455225 431.27544712 235.25069733 429.42236233 235.25003147 C428.20814962 235.25202252 426.99393691 235.25401357 425.74292988 235.25606495 C424.37814467 235.25321136 423.01335966 235.25026575 421.64857483 235.24723816 C420.21228105 235.24767373 418.77598735 235.24854839 417.33969408 235.24982733 C413.37419569 235.25207498 409.40872406 235.24804733 405.44322908 235.24304926 C401.17394977 235.2387488 396.9046721 235.2401909 392.63539124 235.24095154 C385.2323718 235.24147703 377.82936115 235.2383276 370.42634392 235.2327137 C359.72269614 235.22460211 349.01905262 235.22198383 338.3154021 235.22072571 C320.951324 235.21853465 303.5872506 235.21187311 286.22317505 235.2024231 C269.35110498 235.19325037 252.47903617 235.18616885 235.60696411 235.18191528 C234.56775237 235.18165256 233.52854064 235.18138984 232.45783763 235.18111915 C227.24465148 235.17981416 222.03146532 235.17855044 216.81827915 235.17730725 C173.53893456 235.16693296 130.25959508 235.14931318 86.98025513 235.12698364 C89.21818061 238.16852253 91.45693448 241.20945073 93.6958313 244.25027466 C94.64023701 245.53383724 94.64023701 245.53383724 95.60372162 246.84333038 C100.109706 252.96209512 104.6657052 259.03662852 109.29275513 265.06448364 C110.65377032 266.84417304 112.01445054 268.62411866 113.37478638 270.40432739 C114.00336548 271.22658813 114.63194458 272.04884888 115.27957153 272.89602661 C117.3623047 275.62815634 119.4246292 278.37440264 121.48025513 281.12698364 C126.24150235 287.49958986 131.07521095 293.81661695 135.90164185 300.1399231 C139.99764652 305.5108463 144.06659007 310.90035604 148.10525513 316.31448364 C152.32890977 321.97281723 156.63346236 327.56275763 160.98025513 333.12698364 C165.8251154 339.32877403 170.60047643 345.57474757 175.30496216 351.88357544 C179.44741972 357.433816 183.6480341 362.93823405 187.85525513 368.43948364 C193.54643795 375.8873458 199.14671419 383.39454039 204.68630981 390.95559692 C209.75994317 397.86464948 214.94702185 404.68382021 220.15335083 411.49319458 C224.18559727 416.7676765 228.19347818 422.05870021 232.16775513 427.37698364 C241.29463182 439.5784193 250.58720114 451.65024684 259.9536438 463.66848755 C263.3748853 468.0588176 266.78118491 472.45986621 270.16775513 476.87698364 C274.92771038 483.07581425 279.75187118 489.22236541 284.58914185 495.36087036 C286.8889975 498.28069412 289.18441457 501.20400258 291.48025513 504.12698364 C292.39690023 505.29366726 293.3135669 506.46033392 294.23025513 507.62698364 C299.73025513 514.62698364 305.23025513 521.62698364 310.73025513 528.62698364 C311.18376343 529.20416138 311.63727173 529.78133911 312.10452271 530.37600708 C313.02368825 531.5458838 313.94279608 532.71580587 314.86184692 533.88577271 C317.11481606 536.75369521 319.36869236 539.62089354 321.62478638 542.48635864 C328.50513457 551.2282099 335.33955094 560.00528396 342.16433716 568.79055786 C343.98582821 571.13415417 345.8089429 573.47647792 347.63259888 575.81838989 C354.44381054 584.56620366 361.23024725 593.33185749 367.98025513 602.12698364 C369.64634766 604.29409212 371.31332289 606.46052103 372.98025513 608.62698364 C373.81750265 609.7155192 374.65474226 610.80406085 375.49197388 611.89260864 C377.1189193 614.00770117 378.74665493 616.12217816 380.37478638 618.23635864 C391.25334397 632.36618143 402.0676073 646.54502181 412.87088013 660.73245239 C415.58721043 664.2994094 418.30605763 667.86442431 421.02713013 671.42776489 C428.16877444 680.78344903 435.272618 690.16529675 442.32278442 699.59011841 C446.96806354 705.79382164 451.65340407 711.96607003 456.35525513 718.12698364 C461.12719447 724.37988914 465.88942488 730.63825837 470.59744263 736.93948364 C472.51532674 739.50504666 474.4377833 742.06697859 476.36306763 744.62698364 C482.63440639 752.96992843 488.8752134 761.33197112 495.04275513 769.75198364 C500.20036173 776.78528175 505.49180607 783.7001332 510.868927 790.56668091 C515.15354184 796.04326983 519.3489459 801.57977928 523.50759888 807.15237427 C532.53555516 819.24167211 541.77443761 831.17293675 550.98025513 843.12698364 C551.80976171 844.20504747 552.63918786 845.28317321 553.46853638 846.36135864 C553.88272827 846.89978394 554.29692017 847.43820923 554.72366333 847.99295044 C555.55972159 849.08013481 556.39549752 850.16753636 557.23098755 851.25515747 C559.3067699 853.9564736 561.3877452 856.65344257 563.48025513 859.34182739 C572.25170125 870.62797187 580.51079344 882.15453144 588.23025513 894.18948364 C588.82813843 895.09440552 589.42602173 895.99932739 590.04202271 896.93167114 C590.58367065 897.79147583 591.1253186 898.65128052 591.68338013 899.53713989 C592.42056274 900.68388184 592.42056274 900.68388184 593.17263794 901.85379028 C593.98025513 904.12698364 593.98025513 904.12698364 593.32839966 906.58108521 C591.89347813 909.29085733 590.36651933 911.87227071 588.70681763 914.45120239 C588.05302124 915.47060913 587.39922485 916.49001587 586.72561646 917.54031372 C586.02589722 918.62078979 585.32617798 919.70126587 584.60525513 920.81448364 C583.87678239 921.94545755 583.14851286 923.07656238 582.42044067 924.20779419 C577.7934582 931.38409103 573.0970153 938.51254609 568.34109497 945.60403442 C563.06006212 953.48025676 557.89034424 961.42714202 552.74588013 969.39309692 C551.53882918 971.26208981 550.33043318 973.13021453 549.12088013 974.99758911 C532.97850732 999.93706296 517.67494559 1025.30865878 502.98025513 1051.12698364 C502.1536438 1052.57766235 502.1536438 1052.57766235 501.31033325 1054.05764771 C495.59461581 1064.09960746 489.94404574 1074.17669402 484.34158325 1084.28225708 C481.82558361 1088.81999654 479.3038449 1093.35452898 476.7805481 1097.88821411 C475.60505289 1100.00295772 474.4320859 1102.1191092 473.26199341 1104.23684692 C471.6773642 1107.10135095 470.08046817 1109.9586636 468.48025513 1112.81448364 C468.02449097 1113.64480103 467.56872681 1114.47511841 467.09915161 1115.33059692 C462.65206878 1123.21181143 458.66893524 1129.66446742 449.78503609 1132.49723339 C444.11767189 1133.76971209 438.34917489 1133.508459 432.5708313 1133.45510864 C431.06384513 1133.45239461 429.55685622 1133.45096369 428.04986763 1133.45066833 C423.81032013 1133.44563792 419.57107084 1133.42086446 415.3316195 1133.39308548 C411.57286491 1133.37104427 407.81411055 1133.36054842 404.05530876 1133.34998798 C390.37209783 1133.3113618 376.68918956 1133.23200989 363.00617886 1133.15053558 C356.63611695 1133.11296723 350.26603613 1133.07878844 343.89595823 1133.04406512 C309.32562197 1132.85518779 274.7554479 1132.6416363 240.18533325 1132.41604614 C239.28578443 1132.41017762 238.38623562 1132.4043091 237.45942774 1132.39826274 C218.3297536 1132.27338792 199.20009142 1132.14678935 180.07044494 1132.01774597 C102.52591402 1131.49475251 24.98146659 1131.0216528 -52.56500439 1130.94832844 C-58.29386931 1130.94252319 -64.02270964 1130.93177881 -69.75156212 1130.91870117 C-124.61367892 1130.79812991 -179.43658907 1131.64536401 -234.20724487 1135.06448364 C-237.12851723 1135.24000439 -240.04996864 1135.41246963 -242.97140503 1135.5852356 C-257.98079633 1136.47771802 -272.98540811 1137.44183572 -287.98898315 1138.42703247 C-376.66811966 1144.24824761 -376.66811966 1144.24824761 -403.01974487 1122.12698364 C-411.14379616 1114.55605925 -415.77536027 1103.82678436 -416.35568237 1092.78713989 C-416.70776232 1075.02153205 -412.28126251 1060.17957927 -405.01974487 1044.12698364 C-404.59129272 1043.17678345 -404.16284058 1042.22658325 -403.72140503 1041.24758911 C-396.9053091 1026.1970601 -389.79648237 1011.28651044 -382.60568237 996.41213989 C-380.94678043 992.97584301 -379.2952113 989.53608945 -377.64474487 986.09573364 C-367.75787698 965.50311053 -357.78205833 944.94037606 -347.05343628 924.77029419 C-344.34321231 919.66783281 -341.68280155 914.54164104 -339.04708862 909.40042114 C-338.69212814 908.70814926 -338.33716766 908.01587738 -337.97145081 907.30262756 C-337.23641096 905.86895182 -336.50137997 904.43527153 -335.76635742 903.00158691 C-330.71226445 893.14629126 -325.64403509 883.31275253 -320.26974487 873.62698364 C-313.45617075 861.33186723 -307.13153814 848.78123469 -300.75509644 836.25588989 C-296.14283573 827.19971461 -291.48274125 818.17319886 -286.73475647 809.18739319 C-282.14876493 800.49816677 -277.67662347 791.7515967 -273.20724487 783.00198364 C-272.29370407 781.21562936 -271.38004555 779.42933527 -270.46627808 777.64309692 C-268.58002393 773.95565415 -266.69426378 770.26795937 -264.80880737 766.58010864 C-262.15276932 761.38595583 -259.49317508 756.19363163 -256.83224487 751.00198364 C-247.97885615 733.72749583 -239.13859001 716.44641537 -230.31567383 699.15634155 C-220.26246152 679.45635591 -210.18461985 659.76961698 -200.01974487 640.12698364 C-199.47994995 639.08332642 -198.94015503 638.03966919 -198.38400269 636.96438599 C-190.68181311 622.08858847 -182.80631612 607.30728747 -174.86593628 592.55764771 C-173.09522386 589.26724161 -171.32882071 585.97455068 -169.56271362 582.68167114 C-162.93889631 570.36129326 -156.11390792 558.18279579 -149.01974487 546.12698364 C-133.99624931 558.89288595 -123.30074369 573.89754525 -112.51974487 590.25198364 C-111.46449788 591.84468054 -110.40874519 593.43704249 -109.35250854 595.02908325 C-107.23591181 598.22054788 -105.12159724 601.41350255 -103.00949097 604.60794067 C-98.79724357 610.97744641 -94.56718041 617.33504749 -90.33224487 623.68948364 C-89.60577759 624.77994995 -88.8793103 625.87041626 -88.13082886 626.993927 C-82.31300419 635.71431922 -76.42103904 644.38160887 -70.47384644 653.01419067 C-69.04541149 655.08969034 -67.62169935 657.16834737 -66.19943237 659.24807739 C-59.56590705 668.94051894 -52.8345182 678.56111642 -46.01974487 688.12698364 C-45.49622437 688.86207153 -44.97270386 689.59715942 -44.43331909 690.35452271 C-38.0982978 699.23164716 -31.6410082 707.99498295 -24.98727417 716.63577271 C-20.73020864 722.17260123 -16.54501735 727.75968828 -12.39474487 733.37698364 C-11.80250122 734.17547729 -11.21025757 734.97397095 -10.60006714 735.79666138 C-4.88492367 743.55594964 -1.04687461 749.29151256 -2.46896362 759.28323364 C-8.86395999 788.48185118 -24.07167115 816.61086591 -35.96452332 843.82543945 C-40.25082955 853.63964779 -44.47640341 863.47874031 -48.65817261 873.33792114 C-49.07139771 874.30858521 -49.4846228 875.27924927 -49.91036987 876.27932739 C-50.25100464 877.08362183 -50.5916394 877.88791626 -50.94259644 878.71658325 C-52.21565043 881.56537338 -53.61818423 884.33952116 -55.01974487 887.12698364 C-39.7809494 887.16192627 -24.54799889 887.06120155 -9.31051636 886.86746216 C-7.02516822 886.83941448 -4.73981865 886.81148436 -2.45446777 886.78366089 C3.69950835 886.70839041 9.85346237 886.63143953 16.00741315 886.55412793 C22.54269646 886.47228217 29.0779977 886.39189172 35.61329651 886.31129456 C46.63235687 886.17523453 57.65140263 886.03803145 68.67044067 885.900177 C79.83449099 885.76050935 90.99855254 885.62179105 102.16262817 885.48416138 C190.57266757 884.39610995 190.57266757 884.39610995 278.98025513 883.12698364 C276.77250922 880.12655096 274.56394889 877.12671864 272.35525513 874.12698364 C271.73779419 873.28780396 271.12033325 872.44862427 270.48416138 871.58401489 C266.6753276 866.41201956 262.84346204 861.25847988 258.98025513 856.12698364 C252.85141945 847.97599079 246.80316648 839.76677651 240.76248169 831.55032349 C237.83794767 827.57375846 234.90890079 823.60052093 231.98025513 819.62698364 C230.81356625 818.04366668 229.64689959 816.46033333 228.48025513 814.87698364 C227.90275513 814.09323364 227.32525513 813.30948364 226.73025513 812.50198364 C201.64692179 778.46031698 176.56358846 744.41865031 151.48025513 710.37698364 C150.90267456 709.59315308 150.32509399 708.80932251 149.73001099 708.0017395 C148.56404707 706.41930179 147.39819409 704.83678233 146.23245239 703.25418091 C143.30594069 699.28146478 140.37747979 695.3102137 137.44509888 691.34182739 C131.20615833 682.89441232 125.00966516 674.41939955 118.87454224 665.89627075 C114.94626543 660.44591303 110.97304224 655.03022129 106.98025513 649.62698364 C100.79000018 641.2476069 94.67551054 632.81590793 88.58914185 624.36087036 C85.89013395 620.61338595 83.18494019 616.87037164 80.48025513 613.12698364 C77.23894059 608.64087985 73.99883559 604.15393534 70.76541138 599.66213989 C64.6336402 591.14909835 58.45156429 582.67614723 52.21536255 574.23928833 C48.22383191 568.83301693 44.27822171 563.39565821 40.35525513 557.93948364 C35.82867657 551.64829513 31.22993652 545.41834461 26.56521606 539.22903442 C20.9042307 531.71371584 15.33564791 524.13086443 9.76248169 516.55032349 C6.83794767 512.57375846 3.90890079 508.60052093 0.98025513 504.62698364 C-0.18643375 503.04366668 -1.35310041 501.46033333 -2.51974487 499.87698364 C-3.38599487 498.70135864 -3.38599487 498.70135864 -4.26974487 497.50198364 C-149.51974487 300.37698364 -149.51974487 300.37698364 -151.27023315 298.00125122 C-152.43518336 296.42029382 -153.60022222 294.83940173 -154.76535034 293.25857544 C-157.70901467 289.26442536 -160.65105833 285.26909934 -163.59005737 281.27151489 C-167.06058598 276.55220469 -170.53689628 271.83720933 -174.01974487 267.12698364 C-174.54310425 266.4191272 -175.06646362 265.71127075 -175.60568237 264.98196411 C-181.0521131 257.62962822 -186.58524238 250.37237053 -192.33224487 243.25198364 C-193.79822882 241.42291352 -195.26149418 239.5917638 -196.72140503 237.75784302 C-197.87358182 236.31058071 -199.03031944 234.86695193 -200.18771362 233.42385864 C-210.8596155 219.31601394 -210.27504986 203.35454338 -208.10177612 186.63479614 C-200.14929733 129.44307448 -178.28808216 71.52223058 -132.02365112 34.38479614 C-94.00281976 5.80737023 -46.21341444 -0.05876852 0 0 Z " fill="#176534" transform="translate(540.0197448730469,123.87301635742188)"/>
<path d="M0 0 C9.33391442 -0.04109373 18.66779891 -0.07426765 28.00178447 -0.09410581 C32.37626272 -0.10351435 36.75066692 -0.11588859 41.12510331 -0.13751974 C127.3116308 -0.54991307 219.74939945 16.30795655 284.16465897 78.6253588 C285.69510839 80.10215306 287.24507649 81.55676612 288.79503007 83.01305411 C320.38066099 113.14015815 338.47083128 153.61816432 339.56846757 197.07164786 C341.45638811 292.60042747 314.19762399 388.52251428 246.62706132 459.03649161 C246.06503007 459.63107169 245.50299882 460.22565177 244.92393632 460.83824943 C229.80241785 476.77337133 210.38613376 493.35283526 188.62706132 499.03649161 C187.96706132 499.03649161 187.30706132 499.03649161 186.62706132 499.03649161 C186.62706132 501.67649161 186.62706132 504.31649161 186.62706132 507.03649161 C187.80268632 507.32524161 188.97831132 507.61399161 190.18956132 507.91149161 C207.73259225 513.84153024 224.12040532 530.08121922 235.62706132 544.03649161 C236.0758162 544.58015372 236.52457108 545.12381583 236.9869246 545.68395255 C274.01831638 591.17712518 289.35698786 646.46286471 283.85313554 704.2401049 C282.30942749 717.91018711 279.63194158 731.40196336 276.87497086 744.87078116 C275.87436184 749.77006404 274.92702946 754.67784134 273.99815507 759.59117911 C258.58472717 840.61785648 227.16214034 917.52482548 173.62706132 981.03649161 C173.15768144 981.59610587 172.68830155 982.15572013 172.20469804 982.7322924 C166.82222031 989.13901532 161.4327328 995.4286194 155.41221757 1001.25133536 C153.58159417 1003.08195876 151.92081693 1004.99549019 150.25206132 1006.97399161 C146.91615138 1010.84334661 143.24963987 1014.18967785 139.41612382 1017.55992911 C137.44262686 1019.31230597 135.50564218 1021.0770138 133.58799882 1022.88805411 C126.5490958 1029.53036869 119.29904763 1035.71213863 111.58165116 1041.55309318 C110.23580402 1042.57449803 108.89526424 1043.60292156 107.55919022 1044.63707755 C65.47930549 1077.18746931 14.83995261 1100.91220337 -36.37293868 1115.03649161 C-37.86132247 1115.44738029 -37.86132247 1115.44738029 -39.37977462 1115.86656974 C-99.2287628 1132.11604968 -161.03406072 1133.22786432 -222.63319259 1133.16686271 C-228.48569776 1133.16112606 -234.33815743 1133.16448449 -240.190661 1133.17043517 C-244.76527607 1133.17407192 -249.33988058 1133.17288866 -253.91449599 1133.17030738 C-256.07191081 1133.1696488 -258.22932663 1133.17042829 -260.38674026 1133.17278693 C-272.75473785 1133.18336432 -285.03613842 1132.94591611 -297.37293868 1132.03649161 C-290.90913086 1118.71635435 -283.7582335 1105.86585065 -276.37293868 1093.03649161 C-275.79173263 1092.02393302 -275.21052657 1091.01137443 -274.61170821 1089.96813224 C-267.33455387 1077.30906254 -259.83146422 1064.83760812 -251.96522384 1052.5369799 C-236.14672499 1027.6959702 -220.84812104 1002.52309407 -205.58607345 977.33776115 C-201.33259976 970.31870618 -197.07191585 963.30403152 -192.81172042 956.28905509 C-191.7500506 954.54083187 -190.68842866 952.79257961 -189.62684493 951.04430411 C-189.27642135 950.46720695 -188.92599776 949.89010978 -188.56495528 949.29552482 C-186.07053711 945.18697022 -183.57875766 941.0768218 -181.08778243 936.96617911 C-177.2103696 930.56821338 -173.32519436 924.17499859 -169.43592696 917.78423331 C-168.35664826 916.00970726 -167.2787411 914.2343538 -166.20106368 912.4588549 C-164.07679314 908.96025973 -161.94396375 905.4669509 -159.81043868 901.97399161 C-158.86479049 900.41430656 -158.86479049 900.41430656 -157.90003829 898.82311271 C-153.70996529 891.9833776 -149.26178982 885.39857936 -144.37293868 879.03649161 C-143.68901046 877.95964103 -143.00508224 876.88279044 -142.30042892 875.77330802 C-139.95556837 873.01180866 -138.11911833 872.55474224 -134.54871993 872.21935294 C-132.59500748 872.15672287 -130.64014369 872.12509447 -128.68543868 872.11852286 C-127.63251632 872.08973548 -126.57959395 872.0609481 -125.49476485 872.03128837 C-122.12079076 871.94300313 -118.74774898 871.89363835 -115.37293868 871.84899161 C-110.97661799 871.7680441 -106.58103111 871.66979046 -102.18543868 871.55602286 C-101.10683074 871.52818214 -100.0282228 871.50034141 -98.91692977 871.47165702 C-69.21692456 870.50510993 -41.02808572 862.90699389 -19.66590743 841.29821036 C5.16099995 813.03072369 23.06784931 766.9476313 21.80674882 729.11461661 C20.95204826 719.22981886 17.27552486 713.27485501 10.06456132 706.53649161 C-11.2788154 688.71659454 -36.14097554 682.16772383 -63.26746993 681.07164786 C-65.12570772 680.99116117 -66.98392754 680.91025853 -68.84213119 680.82898734 C-100.55176585 679.46533478 -132.27426989 678.37344539 -163.9922012 677.22233991 C-171.5241225 676.94897306 -179.05596428 676.67359629 -186.5876721 676.39440421 C-190.81448542 676.23787979 -195.04139651 676.08449634 -199.26841443 675.93360339 C-202.49175514 675.81763825 -205.71492507 675.69708875 -208.93812423 675.5772631 C-210.08545531 675.53724677 -211.2327864 675.49723044 -212.41488509 675.4560015 C-218.12614921 675.23911533 -223.71541338 674.85488824 -229.37293868 674.03649161 C-229.45221603 674.9800048 -229.53149337 675.92351798 -229.61317306 676.89562247 C-231.58798743 700.01973844 -234.31653708 722.99315725 -237.56043868 745.97399161 C-237.83041671 747.89717719 -237.83041671 747.89717719 -238.10584884 749.859215 C-238.62054677 753.51153893 -239.14152581 757.16289031 -239.66590743 760.81383536 C-239.82306731 761.92033439 -239.98022719 763.02683341 -240.1421495 764.16686271 C-240.36310035 765.68195426 -240.36310035 765.68195426 -240.58851485 767.22765372 C-240.71634856 768.11214698 -240.84418227 768.99664023 -240.97588973 769.90793632 C-241.37293868 772.03649161 -241.37293868 772.03649161 -242.37293868 774.03649161 C-245.95875731 774.66258693 -247.92018589 774.92479555 -251.37293868 774.03649161 C-255.08708706 770.95151591 -257.66973555 766.99766127 -260.37293868 763.03649161 C-260.85246993 762.34490958 -261.33200118 761.65332755 -261.82606368 760.94078849 C-264.57183239 756.97814501 -267.28662636 752.99554842 -269.98621993 749.00133536 C-275.26766139 741.21632395 -280.82106873 733.62968143 -286.37293868 726.03649161 C-287.21791915 724.87633536 -287.21791915 724.87633536 -288.07996993 723.69274161 C-295.52630497 713.47294093 -303.13478802 703.401449 -310.93153243 693.44664786 C-314.3256534 689.10987518 -317.66467545 684.73260469 -320.99793868 680.34899161 C-325.1347614 674.91444041 -329.3382265 669.54268579 -333.62293868 664.22399161 C-337.78286637 659.05780212 -341.82916826 653.82805394 -345.78309493 648.50133536 C-348.48606128 644.86850473 -351.24047402 641.27549451 -353.99159103 637.67906974 C-361.65465895 627.65938688 -369.19688322 617.5596515 -376.65077071 607.38365958 C-378.39584482 605.00527251 -380.14701485 602.63150028 -381.90028243 600.25914786 C-387.73263747 592.36552339 -393.52581876 584.44795657 -399.24793868 576.47399161 C-402.66392973 571.71422121 -406.11231198 567.02121382 -409.81043868 562.47399161 C-425.70781963 542.89511192 -427.21525368 521.97929053 -424.90809493 497.44664786 C-423.93808722 488.69728636 -422.55312503 480.01474877 -421.08387618 471.33727286 C-415.04485405 435.64872725 -410.84476443 399.74654997 -407.36634688 363.72545646 C-407.27907982 362.82223623 -407.19181275 361.91901601 -407.10190122 360.98842547 C-406.73313849 357.16938081 -406.36477585 353.35029768 -405.99669706 349.53118704 C-401.6255087 304.21675909 -396.83985222 258.95231438 -391.86903243 213.70055411 C-391.74656844 212.58557927 -391.74656844 212.58557927 -391.62163042 211.44807969 C-389.62295483 193.25361409 -387.6146939 175.06021125 -385.60207704 156.86728306 C-384.30365603 145.13009331 -383.00867654 133.39252841 -381.71644454 121.65465568 C-381.5868187 120.47722033 -381.5868187 120.47722033 -381.45457415 119.27599841 C-381.10686344 116.11755833 -380.7591605 112.9591174 -380.4114709 109.80067499 C-378.9164108 96.22012851 -377.41887618 82.63985476 -375.92102595 69.05961577 C-375.68160182 66.88868326 -375.44223792 64.71774411 -375.20288973 62.54680322 C-374.30175089 54.37377856 -373.3993881 46.20089109 -372.49515586 38.028208 C-372.22265982 35.56389257 -371.95054017 33.0995355 -371.678824 30.63513396 C-371.30854639 27.2775604 -370.93687154 23.92014442 -370.56481795 20.56276725 C-370.45782354 19.58982235 -370.35082913 18.61687744 -370.24059247 17.61444936 C-368.65117949 3.31473242 -368.65117949 3.31473242 -367.37293868 2.03649161 C-365.54183232 1.92888936 -363.70654436 1.89219966 -361.8723064 1.88220904 C-360.06936526 1.86877228 -360.06936526 1.86877228 -358.23000108 1.85506408 C-356.87848244 1.85005704 -355.52696345 1.84514217 -354.17544417 1.84030936 C-352.75221594 1.8316205 -351.32899031 1.82249624 -349.90576743 1.81297139 C-345.97318814 1.78793525 -342.04059935 1.76915343 -338.10798161 1.75134001 C-333.86983341 1.7310712 -329.63171983 1.70509484 -325.39359908 1.67981742 C-317.05966317 1.631028 -308.72570732 1.58758151 -300.39173329 1.54587427 C-290.61427615 1.49674171 -280.8368504 1.44234305 -271.05942253 1.38774316 C-253.51315103 1.28994031 -235.96685736 1.19692249 -218.4205461 1.10655997 C-201.57547429 1.01980439 -184.73042393 0.92985512 -167.88538985 0.83605216 C-166.34683141 0.82748526 -166.34683141 0.82748526 -164.77719098 0.81874529 C-163.75292234 0.8130416 -162.72865371 0.80733791 -161.67334663 0.80146138 C-142.34094978 0.693829 -123.00853742 0.58924383 -103.67611635 0.48605882 C-97.88853008 0.45511974 -92.10094678 0.42368589 -86.31336557 0.39181472 C-63.00657289 0.26354734 -39.69978764 0.15095327 -16.39279208 0.06661739 C-10.92851684 0.0466588 -5.46425836 0.02412445 0 0 Z M-155.37293868 203.03649161 C-163.15433591 235.7468694 -163.15433591 235.7468694 -169.99793868 268.66149161 C-170.17448989 269.57555778 -170.3510411 270.48962394 -170.53294234 271.43138907 C-176.1506414 300.56751348 -181.24447959 329.8766117 -184.74793868 359.34899161 C-184.89142745 360.54749747 -185.03491622 361.74600333 -185.18275313 362.98082755 C-186.16654203 371.825946 -186.79911662 380.68785764 -187.42225509 389.56456779 C-187.51408568 390.86191604 -187.60591628 392.15926429 -187.70052962 393.49592612 C-187.92550882 396.67605608 -188.14962188 399.85624456 -188.37293868 403.03649161 C-163.51197591 403.10662328 -138.65102801 403.1595002 -113.78998618 403.19192813 C-102.24615152 403.20738627 -90.70237838 403.22845571 -79.15858321 403.26280997 C-69.09510539 403.2927445 -59.03167213 403.31207427 -48.96815102 403.3187571 C-43.64133003 403.32266247 -38.31463651 403.33181882 -32.98785644 403.35368178 C-27.96955456 403.37411092 -22.95143216 403.38031242 -17.93309264 403.37581466 C-16.09574267 403.37663699 -14.25838642 403.38256419 -12.42107253 403.39410804 C13.70945108 403.55017194 30.91523189 391.72019854 49.62706132 374.03649161 C50.93610429 372.84153068 50.93610429 372.84153068 52.27159257 371.62242911 C75.23920103 349.87055958 87.85287595 319.1614599 95.62706132 289.03649161 C96.10659257 287.21311271 96.10659257 287.21311271 96.59581132 285.35289786 C100.2135062 269.79346015 101.31986211 251.10697342 92.76378007 236.95446036 C79.46026004 218.78676483 60.28646339 209.7247221 38.62706132 206.03649161 C21.2571559 203.3887989 3.62258252 202.87718081 -13.92030196 202.92296622 C-15.47958743 202.92324941 -17.03887302 202.92308781 -18.59815841 202.92252372 C-22.76639317 202.92224086 -26.93459821 202.92805348 -31.10282617 202.93509768 C-35.48297234 202.94141773 -39.86311946 202.94194177 -44.24326949 202.94312308 C-52.50876326 202.9462112 -60.77424355 202.95439006 -69.03973143 202.96447257 C-78.46197498 202.97571268 -87.88421922 202.98116392 -97.30646782 202.98616801 C-116.6619657 202.99657523 -136.0174511 203.01412505 -155.37293868 203.03649161 Z " fill="#166534" transform="translate(1434.3729386813939,121.9635083861649)"/>
</svg>
